<?xml version="1.0" encoding="utf-8" standalone="no"?>
<!DOCTYPE svg PUBLIC "-//W3C//DTD SVG 1.1//EN"
  "http://www.w3.org/Graphics/SVG/1.1/DTD/svg11.dtd">
<svg xmlns:xlink="http://www.w3.org/1999/xlink" width="288pt" height="288pt" viewBox="0 0 288 288" xmlns="http://www.w3.org/2000/svg" version="1.1">
 <metadata>
  <rdf:RDF xmlns:dc="http://purl.org/dc/elements/1.1/" xmlns:cc="http://creativecommons.org/ns#" xmlns:rdf="http://www.w3.org/1999/02/22-rdf-syntax-ns#">
   <cc:Work>
    <dc:type rdf:resource="http://purl.org/dc/dcmitype/StillImage"/>
    <dc:date>2025-06-10T15:41:05.310985</dc:date>
    <dc:format>image/svg+xml</dc:format>
    <dc:creator>
     <cc:Agent>
      <dc:title>Matplotlib v3.7.5, https://matplotlib.org/</dc:title>
     </cc:Agent>
    </dc:creator>
   </cc:Work>
  </rdf:RDF>
 </metadata>
 <defs>
  <style type="text/css">*{stroke-linejoin: round; stroke-linecap: butt}</style>
 </defs>
 <g id="figure_1">
  <g id="patch_1">
   <path d="M 0 288 
L 288 288 
L 288 0 
L 0 0 
z
" style="fill: #ffffff"/>
  </g>
  <g id="axes_1">
   <g id="patch_2">
    <path d="M 63.74 240.28 
L 270.757657 240.28 
L 270.757657 26.88 
L 63.74 26.88 
z
" style="fill: #ffffff"/>
   </g>
   <g id="PathCollection_1">
    <defs>
     <path id="m3779b5a4cb" d="M 0 3 
C 0.795609 3 1.55874 2.683901 2.12132 2.12132 
C 2.683901 1.55874 3 0.795609 3 0 
C 3 -0.795609 2.683901 -1.55874 2.12132 -2.12132 
C 1.55874 -2.683901 0.795609 -3 0 -3 
C -0.795609 -3 -1.55874 -2.683901 -2.12132 -2.12132 
C -2.683901 -1.55874 -3 -0.795609 -3 0 
C -3 0.795609 -2.683901 1.55874 -2.12132 2.12132 
C -1.55874 2.683901 -0.795609 3 0 3 
z
" style="stroke: #004c4c; stroke-opacity: 0.5"/>
    </defs>
    <g clip-path="url(#p97f6208aa4)">
     <use xlink:href="#m3779b5a4cb" x="237.219832" y="119.058755" style="fill: #004c4c; fill-opacity: 0.5; stroke: #004c4c; stroke-opacity: 0.5"/>
     <use xlink:href="#m3779b5a4cb" x="140.708103" y="103.063963" style="fill: #004c4c; fill-opacity: 0.5; stroke: #004c4c; stroke-opacity: 0.5"/>
     <use xlink:href="#m3779b5a4cb" x="164.836035" y="125.927702" style="fill: #004c4c; fill-opacity: 0.5; stroke: #004c4c; stroke-opacity: 0.5"/>
     <use xlink:href="#m3779b5a4cb" x="198.61514" y="151.781887" style="fill: #004c4c; fill-opacity: 0.5; stroke: #004c4c; stroke-opacity: 0.5"/>
     <use xlink:href="#m3779b5a4cb" x="131.056931" y="120.140416" style="fill: #004c4c; fill-opacity: 0.5; stroke: #004c4c; stroke-opacity: 0.5"/>
     <use xlink:href="#m3779b5a4cb" x="87.626653" y="162.09616" style="fill: #004c4c; fill-opacity: 0.5; stroke: #004c4c; stroke-opacity: 0.5"/>
     <use xlink:href="#m3779b5a4cb" x="160.010449" y="98.717257" style="fill: #004c4c; fill-opacity: 0.5; stroke: #004c4c; stroke-opacity: 0.5"/>
     <use xlink:href="#m3779b5a4cb" x="135.882517" y="185.285898" style="fill: #004c4c; fill-opacity: 0.5; stroke: #004c4c; stroke-opacity: 0.5"/>
     <use xlink:href="#m3779b5a4cb" x="193.789554" y="111.590835" style="fill: #004c4c; fill-opacity: 0.5; stroke: #004c4c; stroke-opacity: 0.5"/>
     <use xlink:href="#m3779b5a4cb" x="184.138381" y="120.977649" style="fill: #004c4c; fill-opacity: 0.5; stroke: #004c4c; stroke-opacity: 0.5"/>
     <use xlink:href="#m3779b5a4cb" x="188.963968" y="141.002619" style="fill: #004c4c; fill-opacity: 0.5; stroke: #004c4c; stroke-opacity: 0.5"/>
     <use xlink:href="#m3779b5a4cb" x="164.836035" y="88.935138" style="fill: #004c4c; fill-opacity: 0.5; stroke: #004c4c; stroke-opacity: 0.5"/>
     <use xlink:href="#m3779b5a4cb" x="203.440727" y="137.264374" style="fill: #004c4c; fill-opacity: 0.5; stroke: #004c4c; stroke-opacity: 0.5"/>
     <use xlink:href="#m3779b5a4cb" x="131.056931" y="105.018629" style="fill: #004c4c; fill-opacity: 0.5; stroke: #004c4c; stroke-opacity: 0.5"/>
     <use xlink:href="#m3779b5a4cb" x="188.963968" y="150.019138" style="fill: #004c4c; fill-opacity: 0.5; stroke: #004c4c; stroke-opacity: 0.5"/>
     <use xlink:href="#m3779b5a4cb" x="174.487208" y="92.510581" style="fill: #004c4c; fill-opacity: 0.5; stroke: #004c4c; stroke-opacity: 0.5"/>
     <use xlink:href="#m3779b5a4cb" x="179.312795" y="111.329541" style="fill: #004c4c; fill-opacity: 0.5; stroke: #004c4c; stroke-opacity: 0.5"/>
     <use xlink:href="#m3779b5a4cb" x="145.53369" y="122.07204" style="fill: #004c4c; fill-opacity: 0.5; stroke: #004c4c; stroke-opacity: 0.5"/>
     <use xlink:href="#m3779b5a4cb" x="179.312795" y="130.555656" style="fill: #004c4c; fill-opacity: 0.5; stroke: #004c4c; stroke-opacity: 0.5"/>
     <use xlink:href="#m3779b5a4cb" x="203.440727" y="128.539493" style="fill: #004c4c; fill-opacity: 0.5; stroke: #004c4c; stroke-opacity: 0.5"/>
     <use xlink:href="#m3779b5a4cb" x="106.928998" y="94.550567" style="fill: #004c4c; fill-opacity: 0.5; stroke: #004c4c; stroke-opacity: 0.5"/>
     <use xlink:href="#m3779b5a4cb" x="227.568659" y="184.625071" style="fill: #004c4c; fill-opacity: 0.5; stroke: #004c4c; stroke-opacity: 0.5"/>
     <use xlink:href="#m3779b5a4cb" x="184.138381" y="115.964299" style="fill: #004c4c; fill-opacity: 0.5; stroke: #004c4c; stroke-opacity: 0.5"/>
     <use xlink:href="#m3779b5a4cb" x="150.359276" y="143.750278" style="fill: #004c4c; fill-opacity: 0.5; stroke: #004c4c; stroke-opacity: 0.5"/>
     <use xlink:href="#m3779b5a4cb" x="237.219832" y="126.677432" style="fill: #004c4c; fill-opacity: 0.5; stroke: #004c4c; stroke-opacity: 0.5"/>
     <use xlink:href="#m3779b5a4cb" x="232.394245" y="89.472512" style="fill: #004c4c; fill-opacity: 0.5; stroke: #004c4c; stroke-opacity: 0.5"/>
     <use xlink:href="#m3779b5a4cb" x="145.53369" y="118.674138" style="fill: #004c4c; fill-opacity: 0.5; stroke: #004c4c; stroke-opacity: 0.5"/>
     <use xlink:href="#m3779b5a4cb" x="179.312795" y="172.700963" style="fill: #004c4c; fill-opacity: 0.5; stroke: #004c4c; stroke-opacity: 0.5"/>
     <use xlink:href="#m3779b5a4cb" x="213.0919" y="167.955154" style="fill: #004c4c; fill-opacity: 0.5; stroke: #004c4c; stroke-opacity: 0.5"/>
     <use xlink:href="#m3779b5a4cb" x="213.0919" y="131.654392" style="fill: #004c4c; fill-opacity: 0.5; stroke: #004c4c; stroke-opacity: 0.5"/>
     <use xlink:href="#m3779b5a4cb" x="208.266313" y="152.370439" style="fill: #004c4c; fill-opacity: 0.5; stroke: #004c4c; stroke-opacity: 0.5"/>
     <use xlink:href="#m3779b5a4cb" x="193.789554" y="90.745369" style="fill: #004c4c; fill-opacity: 0.5; stroke: #004c4c; stroke-opacity: 0.5"/>
     <use xlink:href="#m3779b5a4cb" x="246.871005" y="105.891121" style="fill: #004c4c; fill-opacity: 0.5; stroke: #004c4c; stroke-opacity: 0.5"/>
     <use xlink:href="#m3779b5a4cb" x="169.661622" y="156.673799" style="fill: #004c4c; fill-opacity: 0.5; stroke: #004c4c; stroke-opacity: 0.5"/>
     <use xlink:href="#m3779b5a4cb" x="213.0919" y="113.415967" style="fill: #004c4c; fill-opacity: 0.5; stroke: #004c4c; stroke-opacity: 0.5"/>
     <use xlink:href="#m3779b5a4cb" x="193.789554" y="107.774999" style="fill: #004c4c; fill-opacity: 0.5; stroke: #004c4c; stroke-opacity: 0.5"/>
     <use xlink:href="#m3779b5a4cb" x="222.743072" y="155.167726" style="fill: #004c4c; fill-opacity: 0.5; stroke: #004c4c; stroke-opacity: 0.5"/>
     <use xlink:href="#m3779b5a4cb" x="150.359276" y="174.015774" style="fill: #004c4c; fill-opacity: 0.5; stroke: #004c4c; stroke-opacity: 0.5"/>
     <use xlink:href="#m3779b5a4cb" x="188.963968" y="123.627962" style="fill: #004c4c; fill-opacity: 0.5; stroke: #004c4c; stroke-opacity: 0.5"/>
     <use xlink:href="#m3779b5a4cb" x="174.487208" y="111.808041" style="fill: #004c4c; fill-opacity: 0.5; stroke: #004c4c; stroke-opacity: 0.5"/>
     <use xlink:href="#m3779b5a4cb" x="198.61514" y="89.88022" style="fill: #004c4c; fill-opacity: 0.5; stroke: #004c4c; stroke-opacity: 0.5"/>
     <use xlink:href="#m3779b5a4cb" x="184.138381" y="136.285604" style="fill: #004c4c; fill-opacity: 0.5; stroke: #004c4c; stroke-opacity: 0.5"/>
     <use xlink:href="#m3779b5a4cb" x="87.626653" y="115.380366" style="fill: #004c4c; fill-opacity: 0.5; stroke: #004c4c; stroke-opacity: 0.5"/>
     <use xlink:href="#m3779b5a4cb" x="203.440727" y="85.333694" style="fill: #004c4c; fill-opacity: 0.5; stroke: #004c4c; stroke-opacity: 0.5"/>
     <use xlink:href="#m3779b5a4cb" x="232.394245" y="130.560143" style="fill: #004c4c; fill-opacity: 0.5; stroke: #004c4c; stroke-opacity: 0.5"/>
     <use xlink:href="#m3779b5a4cb" x="160.010449" y="161.607669" style="fill: #004c4c; fill-opacity: 0.5; stroke: #004c4c; stroke-opacity: 0.5"/>
     <use xlink:href="#m3779b5a4cb" x="208.266313" y="173.656249" style="fill: #004c4c; fill-opacity: 0.5; stroke: #004c4c; stroke-opacity: 0.5"/>
     <use xlink:href="#m3779b5a4cb" x="198.61514" y="108.457587" style="fill: #004c4c; fill-opacity: 0.5; stroke: #004c4c; stroke-opacity: 0.5"/>
     <use xlink:href="#m3779b5a4cb" x="164.836035" y="122.51296" style="fill: #004c4c; fill-opacity: 0.5; stroke: #004c4c; stroke-opacity: 0.5"/>
     <use xlink:href="#m3779b5a4cb" x="246.871005" y="102.980867" style="fill: #004c4c; fill-opacity: 0.5; stroke: #004c4c; stroke-opacity: 0.5"/>
     <use xlink:href="#m3779b5a4cb" x="145.53369" y="122.427015" style="fill: #004c4c; fill-opacity: 0.5; stroke: #004c4c; stroke-opacity: 0.5"/>
     <use xlink:href="#m3779b5a4cb" x="160.010449" y="125.814415" style="fill: #004c4c; fill-opacity: 0.5; stroke: #004c4c; stroke-opacity: 0.5"/>
     <use xlink:href="#m3779b5a4cb" x="203.440727" y="97.728203" style="fill: #004c4c; fill-opacity: 0.5; stroke: #004c4c; stroke-opacity: 0.5"/>
     <use xlink:href="#m3779b5a4cb" x="155.184863" y="209.548365" style="fill: #004c4c; fill-opacity: 0.5; stroke: #004c4c; stroke-opacity: 0.5"/>
     <use xlink:href="#m3779b5a4cb" x="237.219832" y="77.270694" style="fill: #004c4c; fill-opacity: 0.5; stroke: #004c4c; stroke-opacity: 0.5"/>
     <use xlink:href="#m3779b5a4cb" x="222.743072" y="90.044474" style="fill: #004c4c; fill-opacity: 0.5; stroke: #004c4c; stroke-opacity: 0.5"/>
     <use xlink:href="#m3779b5a4cb" x="208.266313" y="92.279391" style="fill: #004c4c; fill-opacity: 0.5; stroke: #004c4c; stroke-opacity: 0.5"/>
     <use xlink:href="#m3779b5a4cb" x="106.928998" y="133.536208" style="fill: #004c4c; fill-opacity: 0.5; stroke: #004c4c; stroke-opacity: 0.5"/>
     <use xlink:href="#m3779b5a4cb" x="193.789554" y="89.477833" style="fill: #004c4c; fill-opacity: 0.5; stroke: #004c4c; stroke-opacity: 0.5"/>
     <use xlink:href="#m3779b5a4cb" x="188.963968" y="122.400291" style="fill: #004c4c; fill-opacity: 0.5; stroke: #004c4c; stroke-opacity: 0.5"/>
     <use xlink:href="#m3779b5a4cb" x="208.266313" y="72.1507" style="fill: #004c4c; fill-opacity: 0.5; stroke: #004c4c; stroke-opacity: 0.5"/>
     <use xlink:href="#m3779b5a4cb" x="179.312795" y="123.592281" style="fill: #004c4c; fill-opacity: 0.5; stroke: #004c4c; stroke-opacity: 0.5"/>
     <use xlink:href="#m3779b5a4cb" x="135.882517" y="85.36939" style="fill: #004c4c; fill-opacity: 0.5; stroke: #004c4c; stroke-opacity: 0.5"/>
     <use xlink:href="#m3779b5a4cb" x="184.138381" y="91.595849" style="fill: #004c4c; fill-opacity: 0.5; stroke: #004c4c; stroke-opacity: 0.5"/>
     <use xlink:href="#m3779b5a4cb" x="174.487208" y="143.249315" style="fill: #004c4c; fill-opacity: 0.5; stroke: #004c4c; stroke-opacity: 0.5"/>
     <use xlink:href="#m3779b5a4cb" x="203.440727" y="155.547345" style="fill: #004c4c; fill-opacity: 0.5; stroke: #004c4c; stroke-opacity: 0.5"/>
     <use xlink:href="#m3779b5a4cb" x="232.394245" y="137.360216" style="fill: #004c4c; fill-opacity: 0.5; stroke: #004c4c; stroke-opacity: 0.5"/>
     <use xlink:href="#m3779b5a4cb" x="131.056931" y="121.559" style="fill: #004c4c; fill-opacity: 0.5; stroke: #004c4c; stroke-opacity: 0.5"/>
     <use xlink:href="#m3779b5a4cb" x="160.010449" y="164.078121" style="fill: #004c4c; fill-opacity: 0.5; stroke: #004c4c; stroke-opacity: 0.5"/>
     <use xlink:href="#m3779b5a4cb" x="217.917486" y="127.844472" style="fill: #004c4c; fill-opacity: 0.5; stroke: #004c4c; stroke-opacity: 0.5"/>
     <use xlink:href="#m3779b5a4cb" x="237.219832" y="100.724746" style="fill: #004c4c; fill-opacity: 0.5; stroke: #004c4c; stroke-opacity: 0.5"/>
     <use xlink:href="#m3779b5a4cb" x="174.487208" y="105.458662" style="fill: #004c4c; fill-opacity: 0.5; stroke: #004c4c; stroke-opacity: 0.5"/>
     <use xlink:href="#m3779b5a4cb" x="222.743072" y="149.563566" style="fill: #004c4c; fill-opacity: 0.5; stroke: #004c4c; stroke-opacity: 0.5"/>
     <use xlink:href="#m3779b5a4cb" x="164.836035" y="137.617892" style="fill: #004c4c; fill-opacity: 0.5; stroke: #004c4c; stroke-opacity: 0.5"/>
     <use xlink:href="#m3779b5a4cb" x="116.580171" y="82.697541" style="fill: #004c4c; fill-opacity: 0.5; stroke: #004c4c; stroke-opacity: 0.5"/>
     <use xlink:href="#m3779b5a4cb" x="169.661622" y="149.251859" style="fill: #004c4c; fill-opacity: 0.5; stroke: #004c4c; stroke-opacity: 0.5"/>
     <use xlink:href="#m3779b5a4cb" x="193.789554" y="215.656923" style="fill: #004c4c; fill-opacity: 0.5; stroke: #004c4c; stroke-opacity: 0.5"/>
     <use xlink:href="#m3779b5a4cb" x="232.394245" y="134.36249" style="fill: #004c4c; fill-opacity: 0.5; stroke: #004c4c; stroke-opacity: 0.5"/>
     <use xlink:href="#m3779b5a4cb" x="102.103412" y="148.1707" style="fill: #004c4c; fill-opacity: 0.5; stroke: #004c4c; stroke-opacity: 0.5"/>
     <use xlink:href="#m3779b5a4cb" x="169.661622" y="111.600406" style="fill: #004c4c; fill-opacity: 0.5; stroke: #004c4c; stroke-opacity: 0.5"/>
     <use xlink:href="#m3779b5a4cb" x="213.0919" y="156.405727" style="fill: #004c4c; fill-opacity: 0.5; stroke: #004c4c; stroke-opacity: 0.5"/>
     <use xlink:href="#m3779b5a4cb" x="160.010449" y="130.49646" style="fill: #004c4c; fill-opacity: 0.5; stroke: #004c4c; stroke-opacity: 0.5"/>
     <use xlink:href="#m3779b5a4cb" x="213.0919" y="156.586622" style="fill: #004c4c; fill-opacity: 0.5; stroke: #004c4c; stroke-opacity: 0.5"/>
     <use xlink:href="#m3779b5a4cb" x="237.219832" y="134.102742" style="fill: #004c4c; fill-opacity: 0.5; stroke: #004c4c; stroke-opacity: 0.5"/>
     <use xlink:href="#m3779b5a4cb" x="145.53369" y="126.407718" style="fill: #004c4c; fill-opacity: 0.5; stroke: #004c4c; stroke-opacity: 0.5"/>
     <use xlink:href="#m3779b5a4cb" x="193.789554" y="131.835584" style="fill: #004c4c; fill-opacity: 0.5; stroke: #004c4c; stroke-opacity: 0.5"/>
     <use xlink:href="#m3779b5a4cb" x="179.312795" y="74.307681" style="fill: #004c4c; fill-opacity: 0.5; stroke: #004c4c; stroke-opacity: 0.5"/>
     <use xlink:href="#m3779b5a4cb" x="140.708103" y="147.811327" style="fill: #004c4c; fill-opacity: 0.5; stroke: #004c4c; stroke-opacity: 0.5"/>
     <use xlink:href="#m3779b5a4cb" x="131.056931" y="131.943848" style="fill: #004c4c; fill-opacity: 0.5; stroke: #004c4c; stroke-opacity: 0.5"/>
     <use xlink:href="#m3779b5a4cb" x="150.359276" y="109.817744" style="fill: #004c4c; fill-opacity: 0.5; stroke: #004c4c; stroke-opacity: 0.5"/>
     <use xlink:href="#m3779b5a4cb" x="217.917486" y="80.389076" style="fill: #004c4c; fill-opacity: 0.5; stroke: #004c4c; stroke-opacity: 0.5"/>
     <use xlink:href="#m3779b5a4cb" x="179.312795" y="126.706722" style="fill: #004c4c; fill-opacity: 0.5; stroke: #004c4c; stroke-opacity: 0.5"/>
     <use xlink:href="#m3779b5a4cb" x="217.917486" y="161.856649" style="fill: #004c4c; fill-opacity: 0.5; stroke: #004c4c; stroke-opacity: 0.5"/>
     <use xlink:href="#m3779b5a4cb" x="237.219832" y="144.100596" style="fill: #004c4c; fill-opacity: 0.5; stroke: #004c4c; stroke-opacity: 0.5"/>
     <use xlink:href="#m3779b5a4cb" x="155.184863" y="94.523085" style="fill: #004c4c; fill-opacity: 0.5; stroke: #004c4c; stroke-opacity: 0.5"/>
     <use xlink:href="#m3779b5a4cb" x="121.405758" y="124.889974" style="fill: #004c4c; fill-opacity: 0.5; stroke: #004c4c; stroke-opacity: 0.5"/>
     <use xlink:href="#m3779b5a4cb" x="164.836035" y="51.503077" style="fill: #004c4c; fill-opacity: 0.5; stroke: #004c4c; stroke-opacity: 0.5"/>
     <use xlink:href="#m3779b5a4cb" x="217.917486" y="148.611612" style="fill: #004c4c; fill-opacity: 0.5; stroke: #004c4c; stroke-opacity: 0.5"/>
     <use xlink:href="#m3779b5a4cb" x="92.452239" y="124.782768" style="fill: #004c4c; fill-opacity: 0.5; stroke: #004c4c; stroke-opacity: 0.5"/>
     <use xlink:href="#m3779b5a4cb" x="135.882517" y="109.839773" style="fill: #004c4c; fill-opacity: 0.5; stroke: #004c4c; stroke-opacity: 0.5"/>
     <use xlink:href="#m3779b5a4cb" x="174.487208" y="128.082619" style="fill: #004c4c; fill-opacity: 0.5; stroke: #004c4c; stroke-opacity: 0.5"/>
     <use xlink:href="#m3779b5a4cb" x="155.184863" y="117.21059" style="fill: #004c4c; fill-opacity: 0.5; stroke: #004c4c; stroke-opacity: 0.5"/>
     <use xlink:href="#m3779b5a4cb" x="213.0919" y="140.795567" style="fill: #004c4c; fill-opacity: 0.5; stroke: #004c4c; stroke-opacity: 0.5"/>
     <use xlink:href="#m3779b5a4cb" x="135.882517" y="151.269472" style="fill: #004c4c; fill-opacity: 0.5; stroke: #004c4c; stroke-opacity: 0.5"/>
     <use xlink:href="#m3779b5a4cb" x="164.836035" y="120.493283" style="fill: #004c4c; fill-opacity: 0.5; stroke: #004c4c; stroke-opacity: 0.5"/>
     <use xlink:href="#m3779b5a4cb" x="184.138381" y="171.766809" style="fill: #004c4c; fill-opacity: 0.5; stroke: #004c4c; stroke-opacity: 0.5"/>
     <use xlink:href="#m3779b5a4cb" x="198.61514" y="157.609551" style="fill: #004c4c; fill-opacity: 0.5; stroke: #004c4c; stroke-opacity: 0.5"/>
     <use xlink:href="#m3779b5a4cb" x="164.836035" y="124.731285" style="fill: #004c4c; fill-opacity: 0.5; stroke: #004c4c; stroke-opacity: 0.5"/>
     <use xlink:href="#m3779b5a4cb" x="150.359276" y="118.009964" style="fill: #004c4c; fill-opacity: 0.5; stroke: #004c4c; stroke-opacity: 0.5"/>
     <use xlink:href="#m3779b5a4cb" x="135.882517" y="141.20943" style="fill: #004c4c; fill-opacity: 0.5; stroke: #004c4c; stroke-opacity: 0.5"/>
     <use xlink:href="#m3779b5a4cb" x="106.928998" y="148.780172" style="fill: #004c4c; fill-opacity: 0.5; stroke: #004c4c; stroke-opacity: 0.5"/>
     <use xlink:href="#m3779b5a4cb" x="106.928998" y="137.606147" style="fill: #004c4c; fill-opacity: 0.5; stroke: #004c4c; stroke-opacity: 0.5"/>
     <use xlink:href="#m3779b5a4cb" x="174.487208" y="115.991219" style="fill: #004c4c; fill-opacity: 0.5; stroke: #004c4c; stroke-opacity: 0.5"/>
     <use xlink:href="#m3779b5a4cb" x="222.743072" y="93.479431" style="fill: #004c4c; fill-opacity: 0.5; stroke: #004c4c; stroke-opacity: 0.5"/>
     <use xlink:href="#m3779b5a4cb" x="150.359276" y="147.867335" style="fill: #004c4c; fill-opacity: 0.5; stroke: #004c4c; stroke-opacity: 0.5"/>
     <use xlink:href="#m3779b5a4cb" x="116.580171" y="140.752586" style="fill: #004c4c; fill-opacity: 0.5; stroke: #004c4c; stroke-opacity: 0.5"/>
     <use xlink:href="#m3779b5a4cb" x="169.661622" y="99.015821" style="fill: #004c4c; fill-opacity: 0.5; stroke: #004c4c; stroke-opacity: 0.5"/>
     <use xlink:href="#m3779b5a4cb" x="140.708103" y="176.583314" style="fill: #004c4c; fill-opacity: 0.5; stroke: #004c4c; stroke-opacity: 0.5"/>
     <use xlink:href="#m3779b5a4cb" x="213.0919" y="139.079497" style="fill: #004c4c; fill-opacity: 0.5; stroke: #004c4c; stroke-opacity: 0.5"/>
     <use xlink:href="#m3779b5a4cb" x="184.138381" y="104.204216" style="fill: #004c4c; fill-opacity: 0.5; stroke: #004c4c; stroke-opacity: 0.5"/>
     <use xlink:href="#m3779b5a4cb" x="150.359276" y="77.958651" style="fill: #004c4c; fill-opacity: 0.5; stroke: #004c4c; stroke-opacity: 0.5"/>
     <use xlink:href="#m3779b5a4cb" x="174.487208" y="127.962782" style="fill: #004c4c; fill-opacity: 0.5; stroke: #004c4c; stroke-opacity: 0.5"/>
     <use xlink:href="#m3779b5a4cb" x="208.266313" y="170.100684" style="fill: #004c4c; fill-opacity: 0.5; stroke: #004c4c; stroke-opacity: 0.5"/>
     <use xlink:href="#m3779b5a4cb" x="198.61514" y="94.685115" style="fill: #004c4c; fill-opacity: 0.5; stroke: #004c4c; stroke-opacity: 0.5"/>
     <use xlink:href="#m3779b5a4cb" x="203.440727" y="126.930773" style="fill: #004c4c; fill-opacity: 0.5; stroke: #004c4c; stroke-opacity: 0.5"/>
     <use xlink:href="#m3779b5a4cb" x="164.836035" y="123.980814" style="fill: #004c4c; fill-opacity: 0.5; stroke: #004c4c; stroke-opacity: 0.5"/>
     <use xlink:href="#m3779b5a4cb" x="213.0919" y="107.706513" style="fill: #004c4c; fill-opacity: 0.5; stroke: #004c4c; stroke-opacity: 0.5"/>
     <use xlink:href="#m3779b5a4cb" x="198.61514" y="99.764076" style="fill: #004c4c; fill-opacity: 0.5; stroke: #004c4c; stroke-opacity: 0.5"/>
     <use xlink:href="#m3779b5a4cb" x="169.661622" y="77.35128" style="fill: #004c4c; fill-opacity: 0.5; stroke: #004c4c; stroke-opacity: 0.5"/>
     <use xlink:href="#m3779b5a4cb" x="193.789554" y="77.266217" style="fill: #004c4c; fill-opacity: 0.5; stroke: #004c4c; stroke-opacity: 0.5"/>
     <use xlink:href="#m3779b5a4cb" x="150.359276" y="107.405537" style="fill: #004c4c; fill-opacity: 0.5; stroke: #004c4c; stroke-opacity: 0.5"/>
     <use xlink:href="#m3779b5a4cb" x="188.963968" y="109.949244" style="fill: #004c4c; fill-opacity: 0.5; stroke: #004c4c; stroke-opacity: 0.5"/>
     <use xlink:href="#m3779b5a4cb" x="208.266313" y="69.333343" style="fill: #004c4c; fill-opacity: 0.5; stroke: #004c4c; stroke-opacity: 0.5"/>
     <use xlink:href="#m3779b5a4cb" x="222.743072" y="104.186447" style="fill: #004c4c; fill-opacity: 0.5; stroke: #004c4c; stroke-opacity: 0.5"/>
     <use xlink:href="#m3779b5a4cb" x="126.231344" y="158.249949" style="fill: #004c4c; fill-opacity: 0.5; stroke: #004c4c; stroke-opacity: 0.5"/>
     <use xlink:href="#m3779b5a4cb" x="174.487208" y="132.171316" style="fill: #004c4c; fill-opacity: 0.5; stroke: #004c4c; stroke-opacity: 0.5"/>
     <use xlink:href="#m3779b5a4cb" x="179.312795" y="108.803169" style="fill: #004c4c; fill-opacity: 0.5; stroke: #004c4c; stroke-opacity: 0.5"/>
     <use xlink:href="#m3779b5a4cb" x="232.394245" y="161.102705" style="fill: #004c4c; fill-opacity: 0.5; stroke: #004c4c; stroke-opacity: 0.5"/>
     <use xlink:href="#m3779b5a4cb" x="111.754585" y="122.631403" style="fill: #004c4c; fill-opacity: 0.5; stroke: #004c4c; stroke-opacity: 0.5"/>
     <use xlink:href="#m3779b5a4cb" x="227.568659" y="146.685413" style="fill: #004c4c; fill-opacity: 0.5; stroke: #004c4c; stroke-opacity: 0.5"/>
     <use xlink:href="#m3779b5a4cb" x="97.277826" y="120.589445" style="fill: #004c4c; fill-opacity: 0.5; stroke: #004c4c; stroke-opacity: 0.5"/>
     <use xlink:href="#m3779b5a4cb" x="160.010449" y="103.134975" style="fill: #004c4c; fill-opacity: 0.5; stroke: #004c4c; stroke-opacity: 0.5"/>
     <use xlink:href="#m3779b5a4cb" x="188.963968" y="112.453663" style="fill: #004c4c; fill-opacity: 0.5; stroke: #004c4c; stroke-opacity: 0.5"/>
     <use xlink:href="#m3779b5a4cb" x="208.266313" y="133.219956" style="fill: #004c4c; fill-opacity: 0.5; stroke: #004c4c; stroke-opacity: 0.5"/>
     <use xlink:href="#m3779b5a4cb" x="126.231344" y="126.803389" style="fill: #004c4c; fill-opacity: 0.5; stroke: #004c4c; stroke-opacity: 0.5"/>
     <use xlink:href="#m3779b5a4cb" x="198.61514" y="132.205808" style="fill: #004c4c; fill-opacity: 0.5; stroke: #004c4c; stroke-opacity: 0.5"/>
     <use xlink:href="#m3779b5a4cb" x="213.0919" y="103.015504" style="fill: #004c4c; fill-opacity: 0.5; stroke: #004c4c; stroke-opacity: 0.5"/>
     <use xlink:href="#m3779b5a4cb" x="217.917486" y="129.919472" style="fill: #004c4c; fill-opacity: 0.5; stroke: #004c4c; stroke-opacity: 0.5"/>
     <use xlink:href="#m3779b5a4cb" x="121.405758" y="133.18084" style="fill: #004c4c; fill-opacity: 0.5; stroke: #004c4c; stroke-opacity: 0.5"/>
     <use xlink:href="#m3779b5a4cb" x="97.277826" y="146.471808" style="fill: #004c4c; fill-opacity: 0.5; stroke: #004c4c; stroke-opacity: 0.5"/>
     <use xlink:href="#m3779b5a4cb" x="145.53369" y="154.025739" style="fill: #004c4c; fill-opacity: 0.5; stroke: #004c4c; stroke-opacity: 0.5"/>
     <use xlink:href="#m3779b5a4cb" x="213.0919" y="120.905324" style="fill: #004c4c; fill-opacity: 0.5; stroke: #004c4c; stroke-opacity: 0.5"/>
     <use xlink:href="#m3779b5a4cb" x="174.487208" y="91.538244" style="fill: #004c4c; fill-opacity: 0.5; stroke: #004c4c; stroke-opacity: 0.5"/>
     <use xlink:href="#m3779b5a4cb" x="222.743072" y="91.777436" style="fill: #004c4c; fill-opacity: 0.5; stroke: #004c4c; stroke-opacity: 0.5"/>
    </g>
   </g>
   <g id="PolyCollection_1">
    <path d="M 87.626653 119.292409 
L 87.626653 139.651999 
L 89.235182 139.427168 
L 90.84371 139.202955 
L 92.452239 138.978742 
L 94.060768 138.753763 
L 95.669297 138.525795 
L 97.277826 138.246582 
L 98.886354 137.923608 
L 100.494883 137.690979 
L 102.103412 137.48114 
L 103.711941 137.271301 
L 105.32047 137.061461 
L 106.928998 136.851622 
L 108.537527 136.654789 
L 110.146056 136.48148 
L 111.754585 136.270945 
L 113.363114 136.046815 
L 114.971642 135.822517 
L 116.580171 135.595606 
L 118.1887 135.392649 
L 119.797229 135.174803 
L 121.405758 134.935367 
L 123.014287 134.69327 
L 124.622815 134.537699 
L 126.231344 134.34925 
L 127.839873 134.199421 
L 129.448402 134.048689 
L 131.056931 133.794691 
L 132.665459 133.519851 
L 134.273988 133.290769 
L 135.882517 133.081715 
L 137.491046 132.871434 
L 139.099575 132.661153 
L 140.708103 132.446691 
L 142.316632 132.242012 
L 143.925161 132.03789 
L 145.53369 131.864808 
L 147.142219 131.716241 
L 148.750747 131.551394 
L 150.359276 131.443688 
L 151.967805 131.252642 
L 153.576334 131.136694 
L 155.184863 131.047728 
L 156.793391 130.943829 
L 158.40192 130.84258 
L 160.010449 130.700261 
L 161.618978 130.579392 
L 163.227507 130.458598 
L 164.836035 130.307364 
L 166.444564 130.176119 
L 168.053093 130.046188 
L 169.661622 129.904885 
L 171.270151 129.707655 
L 172.878679 129.594391 
L 174.487208 129.514852 
L 176.095737 129.459513 
L 177.704266 129.365739 
L 179.312795 129.247736 
L 180.921324 129.179058 
L 182.529852 129.118764 
L 184.138381 129.079224 
L 185.74691 128.931637 
L 187.355439 128.794962 
L 188.963968 128.881704 
L 190.572496 128.932496 
L 192.181025 128.955934 
L 193.789554 128.964289 
L 195.398083 128.944344 
L 197.006612 128.91184 
L 198.61514 128.891336 
L 200.223669 128.929516 
L 201.832198 128.951889 
L 203.440727 128.987171 
L 205.049256 129.022086 
L 206.657784 128.983386 
L 208.266313 129.037778 
L 209.874842 129.131181 
L 211.483371 129.167896 
L 213.0919 129.19032 
L 214.700428 129.208617 
L 216.308957 129.268263 
L 217.917486 129.311877 
L 219.526015 129.301604 
L 221.134544 129.243215 
L 222.743072 129.334354 
L 224.351601 129.3358 
L 225.96013 129.256978 
L 227.568659 129.221029 
L 229.177188 129.266129 
L 230.785717 129.311228 
L 232.394245 129.359481 
L 234.002774 129.479153 
L 235.611303 129.44385 
L 237.219832 129.491157 
L 238.828361 129.536725 
L 240.436889 129.581825 
L 242.045418 129.626924 
L 243.653947 129.692551 
L 245.262476 129.793564 
L 246.871005 129.889045 
L 246.871005 112.896065 
L 246.871005 112.896065 
L 245.262476 113.169238 
L 243.653947 113.458763 
L 242.045418 113.714363 
L 240.436889 113.928061 
L 238.828361 114.20926 
L 237.219832 114.433435 
L 235.611303 114.682621 
L 234.002774 114.847747 
L 232.394245 115.053657 
L 230.785717 115.318315 
L 229.177188 115.483371 
L 227.568659 115.619452 
L 225.96013 115.755626 
L 224.351601 115.906101 
L 222.743072 116.120661 
L 221.134544 116.335221 
L 219.526015 116.498241 
L 217.917486 116.625294 
L 216.308957 116.7982 
L 214.700428 117.043574 
L 213.0919 117.283434 
L 211.483371 117.434875 
L 209.874842 117.569131 
L 208.266313 117.779143 
L 206.657784 117.968898 
L 205.049256 118.155685 
L 203.440727 118.344208 
L 201.832198 118.50733 
L 200.223669 118.661999 
L 198.61514 118.816668 
L 197.006612 118.973489 
L 195.398083 119.131687 
L 193.789554 119.260629 
L 192.181025 119.405543 
L 190.572496 119.552173 
L 188.963968 119.693115 
L 187.355439 119.825417 
L 185.74691 120.01945 
L 184.138381 120.126817 
L 182.529852 120.192971 
L 180.921324 120.267799 
L 179.312795 120.361607 
L 177.704266 120.392024 
L 176.095737 120.435761 
L 174.487208 120.519637 
L 172.878679 120.571507 
L 171.270151 120.619047 
L 169.661622 120.680174 
L 168.053093 120.764122 
L 166.444564 120.802409 
L 164.836035 120.874952 
L 163.227507 120.930244 
L 161.618978 120.984769 
L 160.010449 121.06514 
L 158.40192 121.155588 
L 156.793391 121.229445 
L 155.184863 121.231558 
L 153.576334 121.292644 
L 151.967805 121.330078 
L 150.359276 121.37147 
L 148.750747 121.364745 
L 147.142219 121.35063 
L 145.53369 121.336639 
L 143.925161 121.321216 
L 142.316632 121.307949 
L 140.708103 121.327248 
L 139.099575 121.364877 
L 137.491046 121.318479 
L 135.882517 121.249266 
L 134.273988 121.187649 
L 132.665459 121.11788 
L 131.056931 121.050528 
L 129.448402 120.98158 
L 127.839873 120.969397 
L 126.231344 120.974464 
L 124.622815 120.913353 
L 123.014287 120.870829 
L 121.405758 120.79193 
L 119.797229 120.730243 
L 118.1887 120.668557 
L 116.580171 120.496165 
L 114.971642 120.457914 
L 113.363114 120.406866 
L 111.754585 120.260774 
L 110.146056 120.156439 
L 108.537527 120.096649 
L 106.928998 120.018767 
L 105.32047 119.996656 
L 103.711941 119.9566 
L 102.103412 119.923792 
L 100.494883 119.849352 
L 98.886354 119.797906 
L 97.277826 119.751613 
L 95.669297 119.698211 
L 94.060768 119.646825 
L 92.452239 119.589761 
L 90.84371 119.490644 
L 89.235182 119.391526 
L 87.626653 119.292409 
z
" clip-path="url(#p97f6208aa4)" style="fill: #004c4c; fill-opacity: 0.15"/>
   </g>
   <g id="matplotlib.axis_1">
    <g id="xtick_1">
     <g id="line2d_1">
      <defs>
       <path id="mb52cf7a73c" d="M 0 0 
L 0 3.5 
" style="stroke: #000000; stroke-width: 0.8"/>
      </defs>
      <g>
       <use xlink:href="#mb52cf7a73c" x="73.149894" y="240.28" style="stroke: #000000; stroke-width: 0.8"/>
      </g>
     </g>
     <g id="text_1">
      <!-- 85 -->
      <g transform="translate(65.514894 256.398125) scale(0.12 -0.12)">
       <defs>
        <path id="DejaVuSans-38" d="M 2034 2216 
Q 1584 2216 1326 1975 
Q 1069 1734 1069 1313 
Q 1069 891 1326 650 
Q 1584 409 2034 409 
Q 2484 409 2743 651 
Q 3003 894 3003 1313 
Q 3003 1734 2745 1975 
Q 2488 2216 2034 2216 
z
M 1403 2484 
Q 997 2584 770 2862 
Q 544 3141 544 3541 
Q 544 4100 942 4425 
Q 1341 4750 2034 4750 
Q 2731 4750 3128 4425 
Q 3525 4100 3525 3541 
Q 3525 3141 3298 2862 
Q 3072 2584 2669 2484 
Q 3125 2378 3379 2068 
Q 3634 1759 3634 1313 
Q 3634 634 3220 271 
Q 2806 -91 2034 -91 
Q 1263 -91 848 271 
Q 434 634 434 1313 
Q 434 1759 690 2068 
Q 947 2378 1403 2484 
z
M 1172 3481 
Q 1172 3119 1398 2916 
Q 1625 2713 2034 2713 
Q 2441 2713 2670 2916 
Q 2900 3119 2900 3481 
Q 2900 3844 2670 4047 
Q 2441 4250 2034 4250 
Q 1625 4250 1398 4047 
Q 1172 3844 1172 3481 
z
" transform="scale(0.015625)"/>
        <path id="DejaVuSans-35" d="M 691 4666 
L 3169 4666 
L 3169 4134 
L 1269 4134 
L 1269 2991 
Q 1406 3038 1543 3061 
Q 1681 3084 1819 3084 
Q 2600 3084 3056 2656 
Q 3513 2228 3513 1497 
Q 3513 744 3044 326 
Q 2575 -91 1722 -91 
Q 1428 -91 1123 -41 
Q 819 9 494 109 
L 494 744 
Q 775 591 1075 516 
Q 1375 441 1709 441 
Q 2250 441 2565 725 
Q 2881 1009 2881 1497 
Q 2881 1984 2565 2268 
Q 2250 2553 1709 2553 
Q 1456 2553 1204 2497 
Q 953 2441 691 2322 
L 691 4666 
z
" transform="scale(0.015625)"/>
       </defs>
       <use xlink:href="#DejaVuSans-38"/>
       <use xlink:href="#DejaVuSans-35" x="63.623047"/>
      </g>
     </g>
    </g>
    <g id="xtick_2">
     <g id="line2d_2">
      <g>
       <use xlink:href="#mb52cf7a73c" x="121.405758" y="240.28" style="stroke: #000000; stroke-width: 0.8"/>
      </g>
     </g>
     <g id="text_2">
      <!-- 100 -->
      <g transform="translate(109.953258 256.398125) scale(0.12 -0.12)">
       <defs>
        <path id="DejaVuSans-31" d="M 794 531 
L 1825 531 
L 1825 4091 
L 703 3866 
L 703 4441 
L 1819 4666 
L 2450 4666 
L 2450 531 
L 3481 531 
L 3481 0 
L 794 0 
L 794 531 
z
" transform="scale(0.015625)"/>
        <path id="DejaVuSans-30" d="M 2034 4250 
Q 1547 4250 1301 3770 
Q 1056 3291 1056 2328 
Q 1056 1369 1301 889 
Q 1547 409 2034 409 
Q 2525 409 2770 889 
Q 3016 1369 3016 2328 
Q 3016 3291 2770 3770 
Q 2525 4250 2034 4250 
z
M 2034 4750 
Q 2819 4750 3233 4129 
Q 3647 3509 3647 2328 
Q 3647 1150 3233 529 
Q 2819 -91 2034 -91 
Q 1250 -91 836 529 
Q 422 1150 422 2328 
Q 422 3509 836 4129 
Q 1250 4750 2034 4750 
z
" transform="scale(0.015625)"/>
       </defs>
       <use xlink:href="#DejaVuSans-31"/>
       <use xlink:href="#DejaVuSans-30" x="63.623047"/>
       <use xlink:href="#DejaVuSans-30" x="127.246094"/>
      </g>
     </g>
    </g>
    <g id="xtick_3">
     <g id="line2d_3">
      <g>
       <use xlink:href="#mb52cf7a73c" x="169.661622" y="240.28" style="stroke: #000000; stroke-width: 0.8"/>
      </g>
     </g>
     <g id="text_3">
      <!-- 115 -->
      <g transform="translate(158.209122 256.398125) scale(0.12 -0.12)">
       <use xlink:href="#DejaVuSans-31"/>
       <use xlink:href="#DejaVuSans-31" x="63.623047"/>
       <use xlink:href="#DejaVuSans-35" x="127.246094"/>
      </g>
     </g>
    </g>
    <g id="xtick_4">
     <g id="line2d_4">
      <g>
       <use xlink:href="#mb52cf7a73c" x="217.917486" y="240.28" style="stroke: #000000; stroke-width: 0.8"/>
      </g>
     </g>
     <g id="text_4">
      <!-- 130 -->
      <g transform="translate(206.464986 256.398125) scale(0.12 -0.12)">
       <defs>
        <path id="DejaVuSans-33" d="M 2597 2516 
Q 3050 2419 3304 2112 
Q 3559 1806 3559 1356 
Q 3559 666 3084 287 
Q 2609 -91 1734 -91 
Q 1441 -91 1130 -33 
Q 819 25 488 141 
L 488 750 
Q 750 597 1062 519 
Q 1375 441 1716 441 
Q 2309 441 2620 675 
Q 2931 909 2931 1356 
Q 2931 1769 2642 2001 
Q 2353 2234 1838 2234 
L 1294 2234 
L 1294 2753 
L 1863 2753 
Q 2328 2753 2575 2939 
Q 2822 3125 2822 3475 
Q 2822 3834 2567 4026 
Q 2313 4219 1838 4219 
Q 1578 4219 1281 4162 
Q 984 4106 628 3988 
L 628 4550 
Q 988 4650 1302 4700 
Q 1616 4750 1894 4750 
Q 2613 4750 3031 4423 
Q 3450 4097 3450 3541 
Q 3450 3153 3228 2886 
Q 3006 2619 2597 2516 
z
" transform="scale(0.015625)"/>
       </defs>
       <use xlink:href="#DejaVuSans-31"/>
       <use xlink:href="#DejaVuSans-33" x="63.623047"/>
       <use xlink:href="#DejaVuSans-30" x="127.246094"/>
      </g>
     </g>
    </g>
    <g id="xtick_5">
     <g id="line2d_5">
      <g>
       <use xlink:href="#mb52cf7a73c" x="266.17335" y="240.28" style="stroke: #000000; stroke-width: 0.8"/>
      </g>
     </g>
     <g id="text_5">
      <!-- 145 -->
      <g transform="translate(254.72085 256.398125) scale(0.12 -0.12)">
       <defs>
        <path id="DejaVuSans-34" d="M 2419 4116 
L 825 1625 
L 2419 1625 
L 2419 4116 
z
M 2253 4666 
L 3047 4666 
L 3047 1625 
L 3713 1625 
L 3713 1100 
L 3047 1100 
L 3047 0 
L 2419 0 
L 2419 1100 
L 313 1100 
L 313 1709 
L 2253 4666 
z
" transform="scale(0.015625)"/>
       </defs>
       <use xlink:href="#DejaVuSans-31"/>
       <use xlink:href="#DejaVuSans-34" x="63.623047"/>
       <use xlink:href="#DejaVuSans-35" x="127.246094"/>
      </g>
     </g>
    </g>
    <g id="text_6">
     <!-- gf -->
     <g transform="translate(161.327579 272.011875) scale(0.12 -0.12)">
      <defs>
       <path id="DejaVuSans-67" d="M 2906 1791 
Q 2906 2416 2648 2759 
Q 2391 3103 1925 3103 
Q 1463 3103 1205 2759 
Q 947 2416 947 1791 
Q 947 1169 1205 825 
Q 1463 481 1925 481 
Q 2391 481 2648 825 
Q 2906 1169 2906 1791 
z
M 3481 434 
Q 3481 -459 3084 -895 
Q 2688 -1331 1869 -1331 
Q 1566 -1331 1297 -1286 
Q 1028 -1241 775 -1147 
L 775 -588 
Q 1028 -725 1275 -790 
Q 1522 -856 1778 -856 
Q 2344 -856 2625 -561 
Q 2906 -266 2906 331 
L 2906 616 
Q 2728 306 2450 153 
Q 2172 0 1784 0 
Q 1141 0 747 490 
Q 353 981 353 1791 
Q 353 2603 747 3093 
Q 1141 3584 1784 3584 
Q 2172 3584 2450 3431 
Q 2728 3278 2906 2969 
L 2906 3500 
L 3481 3500 
L 3481 434 
z
" transform="scale(0.015625)"/>
       <path id="DejaVuSans-66" d="M 2375 4863 
L 2375 4384 
L 1825 4384 
Q 1516 4384 1395 4259 
Q 1275 4134 1275 3809 
L 1275 3500 
L 2222 3500 
L 2222 3053 
L 1275 3053 
L 1275 0 
L 697 0 
L 697 3053 
L 147 3053 
L 147 3500 
L 697 3500 
L 697 3744 
Q 697 4328 969 4595 
Q 1241 4863 1831 4863 
L 2375 4863 
z
" transform="scale(0.015625)"/>
      </defs>
      <use xlink:href="#DejaVuSans-67"/>
      <use xlink:href="#DejaVuSans-66" x="63.476562"/>
     </g>
    </g>
   </g>
   <g id="matplotlib.axis_2">
    <g id="ytick_1">
     <g id="line2d_6">
      <defs>
       <path id="mb09608eae7" d="M 0 0 
L -3.5 0 
" style="stroke: #000000; stroke-width: 0.8"/>
      </defs>
      <g>
       <use xlink:href="#mb09608eae7" x="63.74" y="226.812438" style="stroke: #000000; stroke-width: 0.8"/>
      </g>
     </g>
     <g id="text_7">
      <!-- −1.5 -->
      <g transform="translate(27.600625 231.371501) scale(0.12 -0.12)">
       <defs>
        <path id="DejaVuSans-2212" d="M 678 2272 
L 4684 2272 
L 4684 1741 
L 678 1741 
L 678 2272 
z
" transform="scale(0.015625)"/>
        <path id="DejaVuSans-2e" d="M 684 794 
L 1344 794 
L 1344 0 
L 684 0 
L 684 794 
z
" transform="scale(0.015625)"/>
       </defs>
       <use xlink:href="#DejaVuSans-2212"/>
       <use xlink:href="#DejaVuSans-31" x="83.789062"/>
       <use xlink:href="#DejaVuSans-2e" x="147.412109"/>
       <use xlink:href="#DejaVuSans-35" x="179.199219"/>
      </g>
     </g>
    </g>
    <g id="ytick_2">
     <g id="line2d_7">
      <g>
       <use xlink:href="#mb09608eae7" x="63.74" y="196.166707" style="stroke: #000000; stroke-width: 0.8"/>
      </g>
     </g>
     <g id="text_8">
      <!-- −1.0 -->
      <g transform="translate(27.600625 200.72577) scale(0.12 -0.12)">
       <use xlink:href="#DejaVuSans-2212"/>
       <use xlink:href="#DejaVuSans-31" x="83.789062"/>
       <use xlink:href="#DejaVuSans-2e" x="147.412109"/>
       <use xlink:href="#DejaVuSans-30" x="179.199219"/>
      </g>
     </g>
    </g>
    <g id="ytick_3">
     <g id="line2d_8">
      <g>
       <use xlink:href="#mb09608eae7" x="63.74" y="165.520976" style="stroke: #000000; stroke-width: 0.8"/>
      </g>
     </g>
     <g id="text_9">
      <!-- −0.5 -->
      <g transform="translate(27.600625 170.080039) scale(0.12 -0.12)">
       <use xlink:href="#DejaVuSans-2212"/>
       <use xlink:href="#DejaVuSans-30" x="83.789062"/>
       <use xlink:href="#DejaVuSans-2e" x="147.412109"/>
       <use xlink:href="#DejaVuSans-35" x="179.199219"/>
      </g>
     </g>
    </g>
    <g id="ytick_4">
     <g id="line2d_9">
      <g>
       <use xlink:href="#mb09608eae7" x="63.74" y="134.875245" style="stroke: #000000; stroke-width: 0.8"/>
      </g>
     </g>
     <g id="text_10">
      <!-- 0.0 -->
      <g transform="translate(37.65625 139.434308) scale(0.12 -0.12)">
       <use xlink:href="#DejaVuSans-30"/>
       <use xlink:href="#DejaVuSans-2e" x="63.623047"/>
       <use xlink:href="#DejaVuSans-30" x="95.410156"/>
      </g>
     </g>
    </g>
    <g id="ytick_5">
     <g id="line2d_10">
      <g>
       <use xlink:href="#mb09608eae7" x="63.74" y="104.229514" style="stroke: #000000; stroke-width: 0.8"/>
      </g>
     </g>
     <g id="text_11">
      <!-- 0.5 -->
      <g transform="translate(37.65625 108.788576) scale(0.12 -0.12)">
       <use xlink:href="#DejaVuSans-30"/>
       <use xlink:href="#DejaVuSans-2e" x="63.623047"/>
       <use xlink:href="#DejaVuSans-35" x="95.410156"/>
      </g>
     </g>
    </g>
    <g id="ytick_6">
     <g id="line2d_11">
      <g>
       <use xlink:href="#mb09608eae7" x="63.74" y="73.583783" style="stroke: #000000; stroke-width: 0.8"/>
      </g>
     </g>
     <g id="text_12">
      <!-- 1.0 -->
      <g transform="translate(37.65625 78.142845) scale(0.12 -0.12)">
       <use xlink:href="#DejaVuSans-31"/>
       <use xlink:href="#DejaVuSans-2e" x="63.623047"/>
       <use xlink:href="#DejaVuSans-30" x="95.410156"/>
      </g>
     </g>
    </g>
    <g id="ytick_7">
     <g id="line2d_12">
      <g>
       <use xlink:href="#mb09608eae7" x="63.74" y="42.938052" style="stroke: #000000; stroke-width: 0.8"/>
      </g>
     </g>
     <g id="text_13">
      <!-- 1.5 -->
      <g transform="translate(37.65625 47.497114) scale(0.12 -0.12)">
       <use xlink:href="#DejaVuSans-31"/>
       <use xlink:href="#DejaVuSans-2e" x="63.623047"/>
       <use xlink:href="#DejaVuSans-35" x="95.410156"/>
      </g>
     </g>
    </g>
    <g id="text_14">
     <!-- rHC item familiarity signal -->
     <g transform="translate(21.105 212.12) rotate(-90) scale(0.12 -0.12)">
      <defs>
       <path id="DejaVuSans-72" d="M 2631 2963 
Q 2534 3019 2420 3045 
Q 2306 3072 2169 3072 
Q 1681 3072 1420 2755 
Q 1159 2438 1159 1844 
L 1159 0 
L 581 0 
L 581 3500 
L 1159 3500 
L 1159 2956 
Q 1341 3275 1631 3429 
Q 1922 3584 2338 3584 
Q 2397 3584 2469 3576 
Q 2541 3569 2628 3553 
L 2631 2963 
z
" transform="scale(0.015625)"/>
       <path id="DejaVuSans-48" d="M 628 4666 
L 1259 4666 
L 1259 2753 
L 3553 2753 
L 3553 4666 
L 4184 4666 
L 4184 0 
L 3553 0 
L 3553 2222 
L 1259 2222 
L 1259 0 
L 628 0 
L 628 4666 
z
" transform="scale(0.015625)"/>
       <path id="DejaVuSans-43" d="M 4122 4306 
L 4122 3641 
Q 3803 3938 3442 4084 
Q 3081 4231 2675 4231 
Q 1875 4231 1450 3742 
Q 1025 3253 1025 2328 
Q 1025 1406 1450 917 
Q 1875 428 2675 428 
Q 3081 428 3442 575 
Q 3803 722 4122 1019 
L 4122 359 
Q 3791 134 3420 21 
Q 3050 -91 2638 -91 
Q 1578 -91 968 557 
Q 359 1206 359 2328 
Q 359 3453 968 4101 
Q 1578 4750 2638 4750 
Q 3056 4750 3426 4639 
Q 3797 4528 4122 4306 
z
" transform="scale(0.015625)"/>
       <path id="DejaVuSans-20" transform="scale(0.015625)"/>
       <path id="DejaVuSans-69" d="M 603 3500 
L 1178 3500 
L 1178 0 
L 603 0 
L 603 3500 
z
M 603 4863 
L 1178 4863 
L 1178 4134 
L 603 4134 
L 603 4863 
z
" transform="scale(0.015625)"/>
       <path id="DejaVuSans-74" d="M 1172 4494 
L 1172 3500 
L 2356 3500 
L 2356 3053 
L 1172 3053 
L 1172 1153 
Q 1172 725 1289 603 
Q 1406 481 1766 481 
L 2356 481 
L 2356 0 
L 1766 0 
Q 1100 0 847 248 
Q 594 497 594 1153 
L 594 3053 
L 172 3053 
L 172 3500 
L 594 3500 
L 594 4494 
L 1172 4494 
z
" transform="scale(0.015625)"/>
       <path id="DejaVuSans-65" d="M 3597 1894 
L 3597 1613 
L 953 1613 
Q 991 1019 1311 708 
Q 1631 397 2203 397 
Q 2534 397 2845 478 
Q 3156 559 3463 722 
L 3463 178 
Q 3153 47 2828 -22 
Q 2503 -91 2169 -91 
Q 1331 -91 842 396 
Q 353 884 353 1716 
Q 353 2575 817 3079 
Q 1281 3584 2069 3584 
Q 2775 3584 3186 3129 
Q 3597 2675 3597 1894 
z
M 3022 2063 
Q 3016 2534 2758 2815 
Q 2500 3097 2075 3097 
Q 1594 3097 1305 2825 
Q 1016 2553 972 2059 
L 3022 2063 
z
" transform="scale(0.015625)"/>
       <path id="DejaVuSans-6d" d="M 3328 2828 
Q 3544 3216 3844 3400 
Q 4144 3584 4550 3584 
Q 5097 3584 5394 3201 
Q 5691 2819 5691 2113 
L 5691 0 
L 5113 0 
L 5113 2094 
Q 5113 2597 4934 2840 
Q 4756 3084 4391 3084 
Q 3944 3084 3684 2787 
Q 3425 2491 3425 1978 
L 3425 0 
L 2847 0 
L 2847 2094 
Q 2847 2600 2669 2842 
Q 2491 3084 2119 3084 
Q 1678 3084 1418 2786 
Q 1159 2488 1159 1978 
L 1159 0 
L 581 0 
L 581 3500 
L 1159 3500 
L 1159 2956 
Q 1356 3278 1631 3431 
Q 1906 3584 2284 3584 
Q 2666 3584 2933 3390 
Q 3200 3197 3328 2828 
z
" transform="scale(0.015625)"/>
       <path id="DejaVuSans-61" d="M 2194 1759 
Q 1497 1759 1228 1600 
Q 959 1441 959 1056 
Q 959 750 1161 570 
Q 1363 391 1709 391 
Q 2188 391 2477 730 
Q 2766 1069 2766 1631 
L 2766 1759 
L 2194 1759 
z
M 3341 1997 
L 3341 0 
L 2766 0 
L 2766 531 
Q 2569 213 2275 61 
Q 1981 -91 1556 -91 
Q 1019 -91 701 211 
Q 384 513 384 1019 
Q 384 1609 779 1909 
Q 1175 2209 1959 2209 
L 2766 2209 
L 2766 2266 
Q 2766 2663 2505 2880 
Q 2244 3097 1772 3097 
Q 1472 3097 1187 3025 
Q 903 2953 641 2809 
L 641 3341 
Q 956 3463 1253 3523 
Q 1550 3584 1831 3584 
Q 2591 3584 2966 3190 
Q 3341 2797 3341 1997 
z
" transform="scale(0.015625)"/>
       <path id="DejaVuSans-6c" d="M 603 4863 
L 1178 4863 
L 1178 0 
L 603 0 
L 603 4863 
z
" transform="scale(0.015625)"/>
       <path id="DejaVuSans-79" d="M 2059 -325 
Q 1816 -950 1584 -1140 
Q 1353 -1331 966 -1331 
L 506 -1331 
L 506 -850 
L 844 -850 
Q 1081 -850 1212 -737 
Q 1344 -625 1503 -206 
L 1606 56 
L 191 3500 
L 800 3500 
L 1894 763 
L 2988 3500 
L 3597 3500 
L 2059 -325 
z
" transform="scale(0.015625)"/>
       <path id="DejaVuSans-73" d="M 2834 3397 
L 2834 2853 
Q 2591 2978 2328 3040 
Q 2066 3103 1784 3103 
Q 1356 3103 1142 2972 
Q 928 2841 928 2578 
Q 928 2378 1081 2264 
Q 1234 2150 1697 2047 
L 1894 2003 
Q 2506 1872 2764 1633 
Q 3022 1394 3022 966 
Q 3022 478 2636 193 
Q 2250 -91 1575 -91 
Q 1294 -91 989 -36 
Q 684 19 347 128 
L 347 722 
Q 666 556 975 473 
Q 1284 391 1588 391 
Q 1994 391 2212 530 
Q 2431 669 2431 922 
Q 2431 1156 2273 1281 
Q 2116 1406 1581 1522 
L 1381 1569 
Q 847 1681 609 1914 
Q 372 2147 372 2553 
Q 372 3047 722 3315 
Q 1072 3584 1716 3584 
Q 2034 3584 2315 3537 
Q 2597 3491 2834 3397 
z
" transform="scale(0.015625)"/>
       <path id="DejaVuSans-6e" d="M 3513 2113 
L 3513 0 
L 2938 0 
L 2938 2094 
Q 2938 2591 2744 2837 
Q 2550 3084 2163 3084 
Q 1697 3084 1428 2787 
Q 1159 2491 1159 1978 
L 1159 0 
L 581 0 
L 581 3500 
L 1159 3500 
L 1159 2956 
Q 1366 3272 1645 3428 
Q 1925 3584 2291 3584 
Q 2894 3584 3203 3211 
Q 3513 2838 3513 2113 
z
" transform="scale(0.015625)"/>
      </defs>
      <use xlink:href="#DejaVuSans-72"/>
      <use xlink:href="#DejaVuSans-48" x="41.113281"/>
      <use xlink:href="#DejaVuSans-43" x="116.308594"/>
      <use xlink:href="#DejaVuSans-20" x="186.132812"/>
      <use xlink:href="#DejaVuSans-69" x="217.919922"/>
      <use xlink:href="#DejaVuSans-74" x="245.703125"/>
      <use xlink:href="#DejaVuSans-65" x="284.912109"/>
      <use xlink:href="#DejaVuSans-6d" x="346.435547"/>
      <use xlink:href="#DejaVuSans-20" x="443.847656"/>
      <use xlink:href="#DejaVuSans-66" x="475.634766"/>
      <use xlink:href="#DejaVuSans-61" x="510.839844"/>
      <use xlink:href="#DejaVuSans-6d" x="572.119141"/>
      <use xlink:href="#DejaVuSans-69" x="669.53125"/>
      <use xlink:href="#DejaVuSans-6c" x="697.314453"/>
      <use xlink:href="#DejaVuSans-69" x="725.097656"/>
      <use xlink:href="#DejaVuSans-61" x="752.880859"/>
      <use xlink:href="#DejaVuSans-72" x="814.160156"/>
      <use xlink:href="#DejaVuSans-69" x="855.273438"/>
      <use xlink:href="#DejaVuSans-74" x="883.056641"/>
      <use xlink:href="#DejaVuSans-79" x="922.265625"/>
      <use xlink:href="#DejaVuSans-20" x="981.445312"/>
      <use xlink:href="#DejaVuSans-73" x="1013.232422"/>
      <use xlink:href="#DejaVuSans-69" x="1065.332031"/>
      <use xlink:href="#DejaVuSans-67" x="1093.115234"/>
      <use xlink:href="#DejaVuSans-6e" x="1156.591797"/>
      <use xlink:href="#DejaVuSans-61" x="1219.970703"/>
      <use xlink:href="#DejaVuSans-6c" x="1281.25"/>
     </g>
    </g>
   </g>
   <g id="line2d_13">
    <path d="M 87.626653 129.79376 
L 89.235182 129.706465 
L 90.84371 129.61917 
L 92.452239 129.531875 
L 94.060768 129.44458 
L 95.669297 129.357285 
L 97.277826 129.269989 
L 98.886354 129.182694 
L 100.494883 129.095399 
L 102.103412 129.008104 
L 103.711941 128.920809 
L 105.32047 128.833514 
L 106.928998 128.746219 
L 108.537527 128.658923 
L 110.146056 128.571628 
L 111.754585 128.484333 
L 113.363114 128.397038 
L 114.971642 128.309743 
L 116.580171 128.222448 
L 118.1887 128.135153 
L 119.797229 128.047858 
L 121.405758 127.960562 
L 123.014287 127.873267 
L 124.622815 127.785972 
L 126.231344 127.698677 
L 127.839873 127.611382 
L 129.448402 127.524087 
L 131.056931 127.436792 
L 132.665459 127.349496 
L 134.273988 127.262201 
L 135.882517 127.174906 
L 137.491046 127.087611 
L 139.099575 127.000316 
L 140.708103 126.913021 
L 142.316632 126.825726 
L 143.925161 126.738431 
L 145.53369 126.651135 
L 147.142219 126.56384 
L 148.750747 126.476545 
L 150.359276 126.38925 
L 151.967805 126.301955 
L 153.576334 126.21466 
L 155.184863 126.127365 
L 156.793391 126.040069 
L 158.40192 125.952774 
L 160.010449 125.865479 
L 161.618978 125.778184 
L 163.227507 125.690889 
L 164.836035 125.603594 
L 166.444564 125.516299 
L 168.053093 125.429004 
L 169.661622 125.341708 
L 171.270151 125.254413 
L 172.878679 125.167118 
L 174.487208 125.079823 
L 176.095737 124.992528 
L 177.704266 124.905233 
L 179.312795 124.817938 
L 180.921324 124.730642 
L 182.529852 124.643347 
L 184.138381 124.556052 
L 185.74691 124.468757 
L 187.355439 124.381462 
L 188.963968 124.294167 
L 190.572496 124.206872 
L 192.181025 124.119577 
L 193.789554 124.032281 
L 195.398083 123.944986 
L 197.006612 123.857691 
L 198.61514 123.770396 
L 200.223669 123.683101 
L 201.832198 123.595806 
L 203.440727 123.508511 
L 205.049256 123.421215 
L 206.657784 123.33392 
L 208.266313 123.246625 
L 209.874842 123.15933 
L 211.483371 123.072035 
L 213.0919 122.98474 
L 214.700428 122.897445 
L 216.308957 122.81015 
L 217.917486 122.722854 
L 219.526015 122.635559 
L 221.134544 122.548264 
L 222.743072 122.460969 
L 224.351601 122.373674 
L 225.96013 122.286379 
L 227.568659 122.199084 
L 229.177188 122.111788 
L 230.785717 122.024493 
L 232.394245 121.937198 
L 234.002774 121.849903 
L 235.611303 121.762608 
L 237.219832 121.675313 
L 238.828361 121.588018 
L 240.436889 121.500723 
L 242.045418 121.413427 
L 243.653947 121.326132 
L 245.262476 121.238837 
L 246.871005 121.151542 
" clip-path="url(#p97f6208aa4)" style="fill: none; stroke: #004c4c; stroke-width: 2.25; stroke-linecap: square"/>
   </g>
   <g id="line2d_14">
    <path d="M 63.74 134.875245 
L 270.757657 134.875245 
" clip-path="url(#p97f6208aa4)" style="fill: none; stroke-dasharray: 5.55,2.4; stroke-dashoffset: 0; stroke: #808080; stroke-width: 1.5"/>
   </g>
   <g id="patch_3">
    <path d="M 63.74 240.28 
L 63.74 26.88 
" style="fill: none; stroke: #000000; stroke-width: 0.8; stroke-linejoin: miter; stroke-linecap: square"/>
   </g>
   <g id="patch_4">
    <path d="M 270.757657 240.28 
L 270.757657 26.88 
" style="fill: none; stroke: #000000; stroke-width: 0.8; stroke-linejoin: miter; stroke-linecap: square"/>
   </g>
   <g id="patch_5">
    <path d="M 63.74 240.28 
L 270.757657 240.28 
" style="fill: none; stroke: #000000; stroke-width: 0.8; stroke-linejoin: miter; stroke-linecap: square"/>
   </g>
   <g id="patch_6">
    <path d="M 63.74 26.88 
L 270.757657 26.88 
" style="fill: none; stroke: #000000; stroke-width: 0.8; stroke-linejoin: miter; stroke-linecap: square"/>
   </g>
   <g id="text_15">
    <!-- Correlation between gf and item familiarity signal -->
    <g transform="translate(17.918204 20.88) scale(0.12 -0.12)">
     <defs>
      <path id="DejaVuSans-6f" d="M 1959 3097 
Q 1497 3097 1228 2736 
Q 959 2375 959 1747 
Q 959 1119 1226 758 
Q 1494 397 1959 397 
Q 2419 397 2687 759 
Q 2956 1122 2956 1747 
Q 2956 2369 2687 2733 
Q 2419 3097 1959 3097 
z
M 1959 3584 
Q 2709 3584 3137 3096 
Q 3566 2609 3566 1747 
Q 3566 888 3137 398 
Q 2709 -91 1959 -91 
Q 1206 -91 779 398 
Q 353 888 353 1747 
Q 353 2609 779 3096 
Q 1206 3584 1959 3584 
z
" transform="scale(0.015625)"/>
      <path id="DejaVuSans-62" d="M 3116 1747 
Q 3116 2381 2855 2742 
Q 2594 3103 2138 3103 
Q 1681 3103 1420 2742 
Q 1159 2381 1159 1747 
Q 1159 1113 1420 752 
Q 1681 391 2138 391 
Q 2594 391 2855 752 
Q 3116 1113 3116 1747 
z
M 1159 2969 
Q 1341 3281 1617 3432 
Q 1894 3584 2278 3584 
Q 2916 3584 3314 3078 
Q 3713 2572 3713 1747 
Q 3713 922 3314 415 
Q 2916 -91 2278 -91 
Q 1894 -91 1617 61 
Q 1341 213 1159 525 
L 1159 0 
L 581 0 
L 581 4863 
L 1159 4863 
L 1159 2969 
z
" transform="scale(0.015625)"/>
      <path id="DejaVuSans-77" d="M 269 3500 
L 844 3500 
L 1563 769 
L 2278 3500 
L 2956 3500 
L 3675 769 
L 4391 3500 
L 4966 3500 
L 4050 0 
L 3372 0 
L 2619 2869 
L 1863 0 
L 1184 0 
L 269 3500 
z
" transform="scale(0.015625)"/>
      <path id="DejaVuSans-64" d="M 2906 2969 
L 2906 4863 
L 3481 4863 
L 3481 0 
L 2906 0 
L 2906 525 
Q 2725 213 2448 61 
Q 2172 -91 1784 -91 
Q 1150 -91 751 415 
Q 353 922 353 1747 
Q 353 2572 751 3078 
Q 1150 3584 1784 3584 
Q 2172 3584 2448 3432 
Q 2725 3281 2906 2969 
z
M 947 1747 
Q 947 1113 1208 752 
Q 1469 391 1925 391 
Q 2381 391 2643 752 
Q 2906 1113 2906 1747 
Q 2906 2381 2643 2742 
Q 2381 3103 1925 3103 
Q 1469 3103 1208 2742 
Q 947 2381 947 1747 
z
" transform="scale(0.015625)"/>
     </defs>
     <use xlink:href="#DejaVuSans-43"/>
     <use xlink:href="#DejaVuSans-6f" x="69.824219"/>
     <use xlink:href="#DejaVuSans-72" x="131.005859"/>
     <use xlink:href="#DejaVuSans-72" x="170.369141"/>
     <use xlink:href="#DejaVuSans-65" x="209.232422"/>
     <use xlink:href="#DejaVuSans-6c" x="270.755859"/>
     <use xlink:href="#DejaVuSans-61" x="298.539062"/>
     <use xlink:href="#DejaVuSans-74" x="359.818359"/>
     <use xlink:href="#DejaVuSans-69" x="399.027344"/>
     <use xlink:href="#DejaVuSans-6f" x="426.810547"/>
     <use xlink:href="#DejaVuSans-6e" x="487.992188"/>
     <use xlink:href="#DejaVuSans-20" x="551.371094"/>
     <use xlink:href="#DejaVuSans-62" x="583.158203"/>
     <use xlink:href="#DejaVuSans-65" x="646.634766"/>
     <use xlink:href="#DejaVuSans-74" x="708.158203"/>
     <use xlink:href="#DejaVuSans-77" x="747.367188"/>
     <use xlink:href="#DejaVuSans-65" x="829.154297"/>
     <use xlink:href="#DejaVuSans-65" x="890.677734"/>
     <use xlink:href="#DejaVuSans-6e" x="952.201172"/>
     <use xlink:href="#DejaVuSans-20" x="1015.580078"/>
     <use xlink:href="#DejaVuSans-67" x="1047.367188"/>
     <use xlink:href="#DejaVuSans-66" x="1110.84375"/>
     <use xlink:href="#DejaVuSans-20" x="1146.048828"/>
     <use xlink:href="#DejaVuSans-61" x="1177.835938"/>
     <use xlink:href="#DejaVuSans-6e" x="1239.115234"/>
     <use xlink:href="#DejaVuSans-64" x="1302.494141"/>
     <use xlink:href="#DejaVuSans-20" x="1365.970703"/>
     <use xlink:href="#DejaVuSans-69" x="1397.757812"/>
     <use xlink:href="#DejaVuSans-74" x="1425.541016"/>
     <use xlink:href="#DejaVuSans-65" x="1464.75"/>
     <use xlink:href="#DejaVuSans-6d" x="1526.273438"/>
     <use xlink:href="#DejaVuSans-20" x="1623.685547"/>
     <use xlink:href="#DejaVuSans-66" x="1655.472656"/>
     <use xlink:href="#DejaVuSans-61" x="1690.677734"/>
     <use xlink:href="#DejaVuSans-6d" x="1751.957031"/>
     <use xlink:href="#DejaVuSans-69" x="1849.369141"/>
     <use xlink:href="#DejaVuSans-6c" x="1877.152344"/>
     <use xlink:href="#DejaVuSans-69" x="1904.935547"/>
     <use xlink:href="#DejaVuSans-61" x="1932.71875"/>
     <use xlink:href="#DejaVuSans-72" x="1993.998047"/>
     <use xlink:href="#DejaVuSans-69" x="2035.111328"/>
     <use xlink:href="#DejaVuSans-74" x="2062.894531"/>
     <use xlink:href="#DejaVuSans-79" x="2102.103516"/>
     <use xlink:href="#DejaVuSans-20" x="2161.283203"/>
     <use xlink:href="#DejaVuSans-73" x="2193.070312"/>
     <use xlink:href="#DejaVuSans-69" x="2245.169922"/>
     <use xlink:href="#DejaVuSans-67" x="2272.953125"/>
     <use xlink:href="#DejaVuSans-6e" x="2336.429688"/>
     <use xlink:href="#DejaVuSans-61" x="2399.808594"/>
     <use xlink:href="#DejaVuSans-6c" x="2461.087891"/>
    </g>
   </g>
  </g>
 </g>
 <defs>
  <clipPath id="p97f6208aa4">
   <rect x="63.74" y="26.88" width="207.017657" height="213.4"/>
  </clipPath>
 </defs>
</svg>
