<?xml version="1.0" encoding="utf-8" standalone="no"?>
<!DOCTYPE svg PUBLIC "-//W3C//DTD SVG 1.1//EN"
  "http://www.w3.org/Graphics/SVG/1.1/DTD/svg11.dtd">
<svg xmlns:xlink="http://www.w3.org/1999/xlink" width="288pt" height="288pt" viewBox="0 0 288 288" xmlns="http://www.w3.org/2000/svg" version="1.1">
 <metadata>
  <rdf:RDF xmlns:dc="http://purl.org/dc/elements/1.1/" xmlns:cc="http://creativecommons.org/ns#" xmlns:rdf="http://www.w3.org/1999/02/22-rdf-syntax-ns#">
   <cc:Work>
    <dc:type rdf:resource="http://purl.org/dc/dcmitype/StillImage"/>
    <dc:date>2025-06-10T15:49:39.514922</dc:date>
    <dc:format>image/svg+xml</dc:format>
    <dc:creator>
     <cc:Agent>
      <dc:title>Matplotlib v3.7.5, https://matplotlib.org/</dc:title>
     </cc:Agent>
    </dc:creator>
   </cc:Work>
  </rdf:RDF>
 </metadata>
 <defs>
  <style type="text/css">*{stroke-linejoin: round; stroke-linecap: butt}</style>
 </defs>
 <g id="figure_1">
  <g id="patch_1">
   <path d="M 0 288 
L 288 288 
L 288 0 
L 0 0 
z
" style="fill: #ffffff"/>
  </g>
  <g id="axes_1">
   <g id="patch_2">
    <path d="M 63.74 240.28 
L 277.2 240.28 
L 277.2 26.88 
L 63.74 26.88 
z
" style="fill: #ffffff"/>
   </g>
   <g id="PathCollection_1">
    <defs>
     <path id="ma08fd4a825" d="M 0 3 
C 0.795609 3 1.55874 2.683901 2.12132 2.12132 
C 2.683901 1.55874 3 0.795609 3 0 
C 3 -0.795609 2.683901 -1.55874 2.12132 -2.12132 
C 1.55874 -2.683901 0.795609 -3 0 -3 
C -0.795609 -3 -1.55874 -2.683901 -2.12132 -2.12132 
C -2.683901 -1.55874 -3 -0.795609 -3 0 
C -3 0.795609 -2.683901 1.55874 -2.12132 2.12132 
C -1.55874 2.683901 -0.795609 3 0 3 
z
" style="stroke: #004c4c; stroke-opacity: 0.5"/>
    </defs>
    <g clip-path="url(#pad3fb2ebb8)">
     <use xlink:href="#ma08fd4a825" x="167.982121" y="110.877872" style="fill: #004c4c; fill-opacity: 0.5; stroke: #004c4c; stroke-opacity: 0.5"/>
     <use xlink:href="#ma08fd4a825" x="192.860909" y="76.388101" style="fill: #004c4c; fill-opacity: 0.5; stroke: #004c4c; stroke-opacity: 0.5"/>
     <use xlink:href="#ma08fd4a825" x="202.812424" y="128.777627" style="fill: #004c4c; fill-opacity: 0.5; stroke: #004c4c; stroke-opacity: 0.5"/>
     <use xlink:href="#ma08fd4a825" x="227.691212" y="130.087365" style="fill: #004c4c; fill-opacity: 0.5; stroke: #004c4c; stroke-opacity: 0.5"/>
     <use xlink:href="#ma08fd4a825" x="232.66697" y="78.570998" style="fill: #004c4c; fill-opacity: 0.5; stroke: #004c4c; stroke-opacity: 0.5"/>
     <use xlink:href="#ma08fd4a825" x="108.27303" y="165.886874" style="fill: #004c4c; fill-opacity: 0.5; stroke: #004c4c; stroke-opacity: 0.5"/>
     <use xlink:href="#ma08fd4a825" x="227.691212" y="120.046039" style="fill: #004c4c; fill-opacity: 0.5; stroke: #004c4c; stroke-opacity: 0.5"/>
     <use xlink:href="#ma08fd4a825" x="138.127576" y="125.721571" style="fill: #004c4c; fill-opacity: 0.5; stroke: #004c4c; stroke-opacity: 0.5"/>
     <use xlink:href="#ma08fd4a825" x="167.982121" y="142.311588" style="fill: #004c4c; fill-opacity: 0.5; stroke: #004c4c; stroke-opacity: 0.5"/>
     <use xlink:href="#ma08fd4a825" x="202.812424" y="82.063633" style="fill: #004c4c; fill-opacity: 0.5; stroke: #004c4c; stroke-opacity: 0.5"/>
     <use xlink:href="#ma08fd4a825" x="207.788182" y="123.102095" style="fill: #004c4c; fill-opacity: 0.5; stroke: #004c4c; stroke-opacity: 0.5"/>
     <use xlink:href="#ma08fd4a825" x="138.127576" y="148.860278" style="fill: #004c4c; fill-opacity: 0.5; stroke: #004c4c; stroke-opacity: 0.5"/>
     <use xlink:href="#ma08fd4a825" x="133.151818" y="96.470753" style="fill: #004c4c; fill-opacity: 0.5; stroke: #004c4c; stroke-opacity: 0.5"/>
     <use xlink:href="#ma08fd4a825" x="252.57" y="152.352913" style="fill: #004c4c; fill-opacity: 0.5; stroke: #004c4c; stroke-opacity: 0.5"/>
     <use xlink:href="#ma08fd4a825" x="202.812424" y="100.399967" style="fill: #004c4c; fill-opacity: 0.5; stroke: #004c4c; stroke-opacity: 0.5"/>
     <use xlink:href="#ma08fd4a825" x="217.739697" y="79.444157" style="fill: #004c4c; fill-opacity: 0.5; stroke: #004c4c; stroke-opacity: 0.5"/>
     <use xlink:href="#ma08fd4a825" x="217.739697" y="99.090229" style="fill: #004c4c; fill-opacity: 0.5; stroke: #004c4c; stroke-opacity: 0.5"/>
     <use xlink:href="#ma08fd4a825" x="187.885152" y="115.680245" style="fill: #004c4c; fill-opacity: 0.5; stroke: #004c4c; stroke-opacity: 0.5"/>
     <use xlink:href="#ma08fd4a825" x="242.618485" y="109.131555" style="fill: #004c4c; fill-opacity: 0.5; stroke: #004c4c; stroke-opacity: 0.5"/>
     <use xlink:href="#ma08fd4a825" x="187.885152" y="144.057905" style="fill: #004c4c; fill-opacity: 0.5; stroke: #004c4c; stroke-opacity: 0.5"/>
     <use xlink:href="#ma08fd4a825" x="242.618485" y="124.848412" style="fill: #004c4c; fill-opacity: 0.5; stroke: #004c4c; stroke-opacity: 0.5"/>
     <use xlink:href="#ma08fd4a825" x="88.37" y="117.863142" style="fill: #004c4c; fill-opacity: 0.5; stroke: #004c4c; stroke-opacity: 0.5"/>
     <use xlink:href="#ma08fd4a825" x="182.909394" y="167.196612" style="fill: #004c4c; fill-opacity: 0.5; stroke: #004c4c; stroke-opacity: 0.5"/>
     <use xlink:href="#ma08fd4a825" x="212.763939" y="85.119689" style="fill: #004c4c; fill-opacity: 0.5; stroke: #004c4c; stroke-opacity: 0.5"/>
     <use xlink:href="#ma08fd4a825" x="158.030606" y="63.29072" style="fill: #004c4c; fill-opacity: 0.5; stroke: #004c4c; stroke-opacity: 0.5"/>
     <use xlink:href="#ma08fd4a825" x="227.691212" y="91.2318" style="fill: #004c4c; fill-opacity: 0.5; stroke: #004c4c; stroke-opacity: 0.5"/>
     <use xlink:href="#ma08fd4a825" x="163.006364" y="142.748167" style="fill: #004c4c; fill-opacity: 0.5; stroke: #004c4c; stroke-opacity: 0.5"/>
     <use xlink:href="#ma08fd4a825" x="207.788182" y="138.818953" style="fill: #004c4c; fill-opacity: 0.5; stroke: #004c4c; stroke-opacity: 0.5"/>
     <use xlink:href="#ma08fd4a825" x="222.715455" y="137.945794" style="fill: #004c4c; fill-opacity: 0.5; stroke: #004c4c; stroke-opacity: 0.5"/>
     <use xlink:href="#ma08fd4a825" x="217.739697" y="71.585728" style="fill: #004c4c; fill-opacity: 0.5; stroke: #004c4c; stroke-opacity: 0.5"/>
     <use xlink:href="#ma08fd4a825" x="242.618485" y="108.694975" style="fill: #004c4c; fill-opacity: 0.5; stroke: #004c4c; stroke-opacity: 0.5"/>
     <use xlink:href="#ma08fd4a825" x="172.957879" y="134.889738" style="fill: #004c4c; fill-opacity: 0.5; stroke: #004c4c; stroke-opacity: 0.5"/>
     <use xlink:href="#ma08fd4a825" x="187.885152" y="123.538674" style="fill: #004c4c; fill-opacity: 0.5; stroke: #004c4c; stroke-opacity: 0.5"/>
     <use xlink:href="#ma08fd4a825" x="207.788182" y="151.479755" style="fill: #004c4c; fill-opacity: 0.5; stroke: #004c4c; stroke-opacity: 0.5"/>
     <use xlink:href="#ma08fd4a825" x="143.103333" y="148.423699" style="fill: #004c4c; fill-opacity: 0.5; stroke: #004c4c; stroke-opacity: 0.5"/>
     <use xlink:href="#ma08fd4a825" x="148.079091" y="105.20234" style="fill: #004c4c; fill-opacity: 0.5; stroke: #004c4c; stroke-opacity: 0.5"/>
     <use xlink:href="#ma08fd4a825" x="202.812424" y="118.736301" style="fill: #004c4c; fill-opacity: 0.5; stroke: #004c4c; stroke-opacity: 0.5"/>
     <use xlink:href="#ma08fd4a825" x="207.788182" y="78.134419" style="fill: #004c4c; fill-opacity: 0.5; stroke: #004c4c; stroke-opacity: 0.5"/>
     <use xlink:href="#ma08fd4a825" x="197.836667" y="68.529673" style="fill: #004c4c; fill-opacity: 0.5; stroke: #004c4c; stroke-opacity: 0.5"/>
     <use xlink:href="#ma08fd4a825" x="143.103333" y="141.001849" style="fill: #004c4c; fill-opacity: 0.5; stroke: #004c4c; stroke-opacity: 0.5"/>
     <use xlink:href="#ma08fd4a825" x="128.176061" y="131.397103" style="fill: #004c4c; fill-opacity: 0.5; stroke: #004c4c; stroke-opacity: 0.5"/>
     <use xlink:href="#ma08fd4a825" x="128.176061" y="169.379509" style="fill: #004c4c; fill-opacity: 0.5; stroke: #004c4c; stroke-opacity: 0.5"/>
     <use xlink:href="#ma08fd4a825" x="242.618485" y="106.948658" style="fill: #004c4c; fill-opacity: 0.5; stroke: #004c4c; stroke-opacity: 0.5"/>
     <use xlink:href="#ma08fd4a825" x="217.739697" y="68.529673" style="fill: #004c4c; fill-opacity: 0.5; stroke: #004c4c; stroke-opacity: 0.5"/>
     <use xlink:href="#ma08fd4a825" x="133.151818" y="119.60946" style="fill: #004c4c; fill-opacity: 0.5; stroke: #004c4c; stroke-opacity: 0.5"/>
     <use xlink:href="#ma08fd4a825" x="148.079091" y="144.494484" style="fill: #004c4c; fill-opacity: 0.5; stroke: #004c4c; stroke-opacity: 0.5"/>
     <use xlink:href="#ma08fd4a825" x="192.860909" y="139.255532" style="fill: #004c4c; fill-opacity: 0.5; stroke: #004c4c; stroke-opacity: 0.5"/>
     <use xlink:href="#ma08fd4a825" x="98.321515" y="120.482619" style="fill: #004c4c; fill-opacity: 0.5; stroke: #004c4c; stroke-opacity: 0.5"/>
     <use xlink:href="#ma08fd4a825" x="212.763939" y="96.907332" style="fill: #004c4c; fill-opacity: 0.5; stroke: #004c4c; stroke-opacity: 0.5"/>
     <use xlink:href="#ma08fd4a825" x="242.618485" y="149.733437" style="fill: #004c4c; fill-opacity: 0.5; stroke: #004c4c; stroke-opacity: 0.5"/>
     <use xlink:href="#ma08fd4a825" x="187.885152" y="142.748167" style="fill: #004c4c; fill-opacity: 0.5; stroke: #004c4c; stroke-opacity: 0.5"/>
     <use xlink:href="#ma08fd4a825" x="197.836667" y="110.004714" style="fill: #004c4c; fill-opacity: 0.5; stroke: #004c4c; stroke-opacity: 0.5"/>
     <use xlink:href="#ma08fd4a825" x="167.982121" y="99.090229" style="fill: #004c4c; fill-opacity: 0.5; stroke: #004c4c; stroke-opacity: 0.5"/>
     <use xlink:href="#ma08fd4a825" x="187.885152" y="113.497349" style="fill: #004c4c; fill-opacity: 0.5; stroke: #004c4c; stroke-opacity: 0.5"/>
     <use xlink:href="#ma08fd4a825" x="222.715455" y="56.30545" style="fill: #004c4c; fill-opacity: 0.5; stroke: #004c4c; stroke-opacity: 0.5"/>
     <use xlink:href="#ma08fd4a825" x="108.27303" y="118.299722" style="fill: #004c4c; fill-opacity: 0.5; stroke: #004c4c; stroke-opacity: 0.5"/>
     <use xlink:href="#ma08fd4a825" x="197.836667" y="147.113961" style="fill: #004c4c; fill-opacity: 0.5; stroke: #004c4c; stroke-opacity: 0.5"/>
     <use xlink:href="#ma08fd4a825" x="98.321515" y="138.818953" style="fill: #004c4c; fill-opacity: 0.5; stroke: #004c4c; stroke-opacity: 0.5"/>
     <use xlink:href="#ma08fd4a825" x="143.103333" y="107.821817" style="fill: #004c4c; fill-opacity: 0.5; stroke: #004c4c; stroke-opacity: 0.5"/>
     <use xlink:href="#ma08fd4a825" x="177.933636" y="111.751031" style="fill: #004c4c; fill-opacity: 0.5; stroke: #004c4c; stroke-opacity: 0.5"/>
     <use xlink:href="#ma08fd4a825" x="247.594242" y="142.748167" style="fill: #004c4c; fill-opacity: 0.5; stroke: #004c4c; stroke-opacity: 0.5"/>
     <use xlink:href="#ma08fd4a825" x="237.642727" y="82.936792" style="fill: #004c4c; fill-opacity: 0.5; stroke: #004c4c; stroke-opacity: 0.5"/>
     <use xlink:href="#ma08fd4a825" x="148.079091" y="107.385237" style="fill: #004c4c; fill-opacity: 0.5; stroke: #004c4c; stroke-opacity: 0.5"/>
     <use xlink:href="#ma08fd4a825" x="187.885152" y="113.933928" style="fill: #004c4c; fill-opacity: 0.5; stroke: #004c4c; stroke-opacity: 0.5"/>
     <use xlink:href="#ma08fd4a825" x="148.079091" y="114.807087" style="fill: #004c4c; fill-opacity: 0.5; stroke: #004c4c; stroke-opacity: 0.5"/>
     <use xlink:href="#ma08fd4a825" x="197.836667" y="96.034173" style="fill: #004c4c; fill-opacity: 0.5; stroke: #004c4c; stroke-opacity: 0.5"/>
     <use xlink:href="#ma08fd4a825" x="128.176061" y="98.21707" style="fill: #004c4c; fill-opacity: 0.5; stroke: #004c4c; stroke-opacity: 0.5"/>
     <use xlink:href="#ma08fd4a825" x="103.297273" y="154.53581" style="fill: #004c4c; fill-opacity: 0.5; stroke: #004c4c; stroke-opacity: 0.5"/>
     <use xlink:href="#ma08fd4a825" x="182.909394" y="121.792357" style="fill: #004c4c; fill-opacity: 0.5; stroke: #004c4c; stroke-opacity: 0.5"/>
     <use xlink:href="#ma08fd4a825" x="217.739697" y="105.63892" style="fill: #004c4c; fill-opacity: 0.5; stroke: #004c4c; stroke-opacity: 0.5"/>
     <use xlink:href="#ma08fd4a825" x="227.691212" y="137.945794" style="fill: #004c4c; fill-opacity: 0.5; stroke: #004c4c; stroke-opacity: 0.5"/>
     <use xlink:href="#ma08fd4a825" x="167.982121" y="99.090229" style="fill: #004c4c; fill-opacity: 0.5; stroke: #004c4c; stroke-opacity: 0.5"/>
     <use xlink:href="#ma08fd4a825" x="227.691212" y="154.53581" style="fill: #004c4c; fill-opacity: 0.5; stroke: #004c4c; stroke-opacity: 0.5"/>
     <use xlink:href="#ma08fd4a825" x="217.739697" y="136.199476" style="fill: #004c4c; fill-opacity: 0.5; stroke: #004c4c; stroke-opacity: 0.5"/>
     <use xlink:href="#ma08fd4a825" x="148.079091" y="134.453159" style="fill: #004c4c; fill-opacity: 0.5; stroke: #004c4c; stroke-opacity: 0.5"/>
     <use xlink:href="#ma08fd4a825" x="192.860909" y="103.019444" style="fill: #004c4c; fill-opacity: 0.5; stroke: #004c4c; stroke-opacity: 0.5"/>
     <use xlink:href="#ma08fd4a825" x="217.739697" y="134.016579" style="fill: #004c4c; fill-opacity: 0.5; stroke: #004c4c; stroke-opacity: 0.5"/>
     <use xlink:href="#ma08fd4a825" x="212.763939" y="124.411833" style="fill: #004c4c; fill-opacity: 0.5; stroke: #004c4c; stroke-opacity: 0.5"/>
     <use xlink:href="#ma08fd4a825" x="177.933636" y="153.226072" style="fill: #004c4c; fill-opacity: 0.5; stroke: #004c4c; stroke-opacity: 0.5"/>
     <use xlink:href="#ma08fd4a825" x="202.812424" y="131.833682" style="fill: #004c4c; fill-opacity: 0.5; stroke: #004c4c; stroke-opacity: 0.5"/>
     <use xlink:href="#ma08fd4a825" x="163.006364" y="139.255532" style="fill: #004c4c; fill-opacity: 0.5; stroke: #004c4c; stroke-opacity: 0.5"/>
     <use xlink:href="#ma08fd4a825" x="167.982121" y="135.762897" style="fill: #004c4c; fill-opacity: 0.5; stroke: #004c4c; stroke-opacity: 0.5"/>
     <use xlink:href="#ma08fd4a825" x="167.982121" y="176.801358" style="fill: #004c4c; fill-opacity: 0.5; stroke: #004c4c; stroke-opacity: 0.5"/>
     <use xlink:href="#ma08fd4a825" x="153.054848" y="148.423699" style="fill: #004c4c; fill-opacity: 0.5; stroke: #004c4c; stroke-opacity: 0.5"/>
     <use xlink:href="#ma08fd4a825" x="167.982121" y="81.627054" style="fill: #004c4c; fill-opacity: 0.5; stroke: #004c4c; stroke-opacity: 0.5"/>
     <use xlink:href="#ma08fd4a825" x="118.224545" y="107.385237" style="fill: #004c4c; fill-opacity: 0.5; stroke: #004c4c; stroke-opacity: 0.5"/>
     <use xlink:href="#ma08fd4a825" x="177.933636" y="128.777627" style="fill: #004c4c; fill-opacity: 0.5; stroke: #004c4c; stroke-opacity: 0.5"/>
     <use xlink:href="#ma08fd4a825" x="227.691212" y="66.783355" style="fill: #004c4c; fill-opacity: 0.5; stroke: #004c4c; stroke-opacity: 0.5"/>
     <use xlink:href="#ma08fd4a825" x="103.297273" y="106.075499" style="fill: #004c4c; fill-opacity: 0.5; stroke: #004c4c; stroke-opacity: 0.5"/>
     <use xlink:href="#ma08fd4a825" x="237.642727" y="107.385237" style="fill: #004c4c; fill-opacity: 0.5; stroke: #004c4c; stroke-opacity: 0.5"/>
     <use xlink:href="#ma08fd4a825" x="182.909394" y="141.438429" style="fill: #004c4c; fill-opacity: 0.5; stroke: #004c4c; stroke-opacity: 0.5"/>
     <use xlink:href="#ma08fd4a825" x="172.957879" y="122.228936" style="fill: #004c4c; fill-opacity: 0.5; stroke: #004c4c; stroke-opacity: 0.5"/>
     <use xlink:href="#ma08fd4a825" x="177.933636" y="169.816088" style="fill: #004c4c; fill-opacity: 0.5; stroke: #004c4c; stroke-opacity: 0.5"/>
     <use xlink:href="#ma08fd4a825" x="158.030606" y="95.161015" style="fill: #004c4c; fill-opacity: 0.5; stroke: #004c4c; stroke-opacity: 0.5"/>
     <use xlink:href="#ma08fd4a825" x="237.642727" y="120.482619" style="fill: #004c4c; fill-opacity: 0.5; stroke: #004c4c; stroke-opacity: 0.5"/>
     <use xlink:href="#ma08fd4a825" x="153.054848" y="133.58" style="fill: #004c4c; fill-opacity: 0.5; stroke: #004c4c; stroke-opacity: 0.5"/>
     <use xlink:href="#ma08fd4a825" x="177.933636" y="103.019444" style="fill: #004c4c; fill-opacity: 0.5; stroke: #004c4c; stroke-opacity: 0.5"/>
     <use xlink:href="#ma08fd4a825" x="138.127576" y="97.780491" style="fill: #004c4c; fill-opacity: 0.5; stroke: #004c4c; stroke-opacity: 0.5"/>
     <use xlink:href="#ma08fd4a825" x="202.812424" y="82.500213" style="fill: #004c4c; fill-opacity: 0.5; stroke: #004c4c; stroke-opacity: 0.5"/>
     <use xlink:href="#ma08fd4a825" x="143.103333" y="102.146285" style="fill: #004c4c; fill-opacity: 0.5; stroke: #004c4c; stroke-opacity: 0.5"/>
     <use xlink:href="#ma08fd4a825" x="153.054848" y="158.465025" style="fill: #004c4c; fill-opacity: 0.5; stroke: #004c4c; stroke-opacity: 0.5"/>
     <use xlink:href="#ma08fd4a825" x="217.739697" y="107.385237" style="fill: #004c4c; fill-opacity: 0.5; stroke: #004c4c; stroke-opacity: 0.5"/>
     <use xlink:href="#ma08fd4a825" x="182.909394" y="111.751031" style="fill: #004c4c; fill-opacity: 0.5; stroke: #004c4c; stroke-opacity: 0.5"/>
     <use xlink:href="#ma08fd4a825" x="167.982121" y="51.503077" style="fill: #004c4c; fill-opacity: 0.5; stroke: #004c4c; stroke-opacity: 0.5"/>
     <use xlink:href="#ma08fd4a825" x="197.836667" y="151.479755" style="fill: #004c4c; fill-opacity: 0.5; stroke: #004c4c; stroke-opacity: 0.5"/>
     <use xlink:href="#ma08fd4a825" x="138.127576" y="78.134419" style="fill: #004c4c; fill-opacity: 0.5; stroke: #004c4c; stroke-opacity: 0.5"/>
     <use xlink:href="#ma08fd4a825" x="177.933636" y="127.031309" style="fill: #004c4c; fill-opacity: 0.5; stroke: #004c4c; stroke-opacity: 0.5"/>
     <use xlink:href="#ma08fd4a825" x="153.054848" y="145.804223" style="fill: #004c4c; fill-opacity: 0.5; stroke: #004c4c; stroke-opacity: 0.5"/>
     <use xlink:href="#ma08fd4a825" x="118.224545" y="131.833682" style="fill: #004c4c; fill-opacity: 0.5; stroke: #004c4c; stroke-opacity: 0.5"/>
     <use xlink:href="#ma08fd4a825" x="133.151818" y="129.214206" style="fill: #004c4c; fill-opacity: 0.5; stroke: #004c4c; stroke-opacity: 0.5"/>
     <use xlink:href="#ma08fd4a825" x="167.982121" y="184.223208" style="fill: #004c4c; fill-opacity: 0.5; stroke: #004c4c; stroke-opacity: 0.5"/>
     <use xlink:href="#ma08fd4a825" x="252.57" y="113.497349" style="fill: #004c4c; fill-opacity: 0.5; stroke: #004c4c; stroke-opacity: 0.5"/>
     <use xlink:href="#ma08fd4a825" x="98.321515" y="130.960524" style="fill: #004c4c; fill-opacity: 0.5; stroke: #004c4c; stroke-opacity: 0.5"/>
     <use xlink:href="#ma08fd4a825" x="133.151818" y="215.656923" style="fill: #004c4c; fill-opacity: 0.5; stroke: #004c4c; stroke-opacity: 0.5"/>
     <use xlink:href="#ma08fd4a825" x="197.836667" y="103.892602" style="fill: #004c4c; fill-opacity: 0.5; stroke: #004c4c; stroke-opacity: 0.5"/>
     <use xlink:href="#ma08fd4a825" x="197.836667" y="95.161015" style="fill: #004c4c; fill-opacity: 0.5; stroke: #004c4c; stroke-opacity: 0.5"/>
     <use xlink:href="#ma08fd4a825" x="232.66697" y="88.612324" style="fill: #004c4c; fill-opacity: 0.5; stroke: #004c4c; stroke-opacity: 0.5"/>
     <use xlink:href="#ma08fd4a825" x="212.763939" y="130.087365" style="fill: #004c4c; fill-opacity: 0.5; stroke: #004c4c; stroke-opacity: 0.5"/>
     <use xlink:href="#ma08fd4a825" x="153.054848" y="183.350049" style="fill: #004c4c; fill-opacity: 0.5; stroke: #004c4c; stroke-opacity: 0.5"/>
     <use xlink:href="#ma08fd4a825" x="212.763939" y="97.780491" style="fill: #004c4c; fill-opacity: 0.5; stroke: #004c4c; stroke-opacity: 0.5"/>
     <use xlink:href="#ma08fd4a825" x="192.860909" y="116.989984" style="fill: #004c4c; fill-opacity: 0.5; stroke: #004c4c; stroke-opacity: 0.5"/>
     <use xlink:href="#ma08fd4a825" x="113.248788" y="144.931064" style="fill: #004c4c; fill-opacity: 0.5; stroke: #004c4c; stroke-opacity: 0.5"/>
     <use xlink:href="#ma08fd4a825" x="98.321515" y="89.048903" style="fill: #004c4c; fill-opacity: 0.5; stroke: #004c4c; stroke-opacity: 0.5"/>
     <use xlink:href="#ma08fd4a825" x="182.909394" y="97.780491" style="fill: #004c4c; fill-opacity: 0.5; stroke: #004c4c; stroke-opacity: 0.5"/>
     <use xlink:href="#ma08fd4a825" x="217.739697" y="157.591866" style="fill: #004c4c; fill-opacity: 0.5; stroke: #004c4c; stroke-opacity: 0.5"/>
     <use xlink:href="#ma08fd4a825" x="158.030606" y="118.299722" style="fill: #004c4c; fill-opacity: 0.5; stroke: #004c4c; stroke-opacity: 0.5"/>
     <use xlink:href="#ma08fd4a825" x="153.054848" y="103.019444" style="fill: #004c4c; fill-opacity: 0.5; stroke: #004c4c; stroke-opacity: 0.5"/>
     <use xlink:href="#ma08fd4a825" x="172.957879" y="127.031309" style="fill: #004c4c; fill-opacity: 0.5; stroke: #004c4c; stroke-opacity: 0.5"/>
     <use xlink:href="#ma08fd4a825" x="212.763939" y="134.889738" style="fill: #004c4c; fill-opacity: 0.5; stroke: #004c4c; stroke-opacity: 0.5"/>
     <use xlink:href="#ma08fd4a825" x="153.054848" y="130.960524" style="fill: #004c4c; fill-opacity: 0.5; stroke: #004c4c; stroke-opacity: 0.5"/>
     <use xlink:href="#ma08fd4a825" x="197.836667" y="88.175745" style="fill: #004c4c; fill-opacity: 0.5; stroke: #004c4c; stroke-opacity: 0.5"/>
     <use xlink:href="#ma08fd4a825" x="182.909394" y="122.665516" style="fill: #004c4c; fill-opacity: 0.5; stroke: #004c4c; stroke-opacity: 0.5"/>
     <use xlink:href="#ma08fd4a825" x="237.642727" y="146.677381" style="fill: #004c4c; fill-opacity: 0.5; stroke: #004c4c; stroke-opacity: 0.5"/>
     <use xlink:href="#ma08fd4a825" x="207.788182" y="152.352913" style="fill: #004c4c; fill-opacity: 0.5; stroke: #004c4c; stroke-opacity: 0.5"/>
     <use xlink:href="#ma08fd4a825" x="113.248788" y="111.314452" style="fill: #004c4c; fill-opacity: 0.5; stroke: #004c4c; stroke-opacity: 0.5"/>
     <use xlink:href="#ma08fd4a825" x="172.957879" y="78.570998" style="fill: #004c4c; fill-opacity: 0.5; stroke: #004c4c; stroke-opacity: 0.5"/>
     <use xlink:href="#ma08fd4a825" x="222.715455" y="136.636056" style="fill: #004c4c; fill-opacity: 0.5; stroke: #004c4c; stroke-opacity: 0.5"/>
     <use xlink:href="#ma08fd4a825" x="88.37" y="84.68311" style="fill: #004c4c; fill-opacity: 0.5; stroke: #004c4c; stroke-opacity: 0.5"/>
     <use xlink:href="#ma08fd4a825" x="177.933636" y="140.56527" style="fill: #004c4c; fill-opacity: 0.5; stroke: #004c4c; stroke-opacity: 0.5"/>
     <use xlink:href="#ma08fd4a825" x="182.909394" y="127.904468" style="fill: #004c4c; fill-opacity: 0.5; stroke: #004c4c; stroke-opacity: 0.5"/>
     <use xlink:href="#ma08fd4a825" x="222.715455" y="71.149149" style="fill: #004c4c; fill-opacity: 0.5; stroke: #004c4c; stroke-opacity: 0.5"/>
     <use xlink:href="#ma08fd4a825" x="123.200303" y="116.116825" style="fill: #004c4c; fill-opacity: 0.5; stroke: #004c4c; stroke-opacity: 0.5"/>
     <use xlink:href="#ma08fd4a825" x="202.812424" y="113.060769" style="fill: #004c4c; fill-opacity: 0.5; stroke: #004c4c; stroke-opacity: 0.5"/>
     <use xlink:href="#ma08fd4a825" x="123.200303" y="121.355777" style="fill: #004c4c; fill-opacity: 0.5; stroke: #004c4c; stroke-opacity: 0.5"/>
     <use xlink:href="#ma08fd4a825" x="217.739697" y="103.892602" style="fill: #004c4c; fill-opacity: 0.5; stroke: #004c4c; stroke-opacity: 0.5"/>
     <use xlink:href="#ma08fd4a825" x="212.763939" y="96.470753" style="fill: #004c4c; fill-opacity: 0.5; stroke: #004c4c; stroke-opacity: 0.5"/>
     <use xlink:href="#ma08fd4a825" x="227.691212" y="104.329182" style="fill: #004c4c; fill-opacity: 0.5; stroke: #004c4c; stroke-opacity: 0.5"/>
    </g>
   </g>
   <g id="PolyCollection_1">
    <path d="M 88.37 119.314775 
L 88.37 140.613582 
L 90.028586 140.275749 
L 91.687172 139.929774 
L 93.345758 139.65105 
L 95.004343 139.319146 
L 96.662929 138.978614 
L 98.321515 138.688837 
L 99.980101 138.368997 
L 101.638687 138.049157 
L 103.297273 137.778698 
L 104.955859 137.465685 
L 106.614444 137.090502 
L 108.27303 136.769798 
L 109.931616 136.449959 
L 111.590202 136.129304 
L 113.248788 135.806954 
L 114.907374 135.484604 
L 116.56596 135.162254 
L 118.224545 134.80064 
L 119.883131 134.423626 
L 121.541717 134.144295 
L 123.200303 133.864749 
L 124.858889 133.500576 
L 126.517475 133.130604 
L 128.176061 132.760631 
L 129.834646 132.430503 
L 131.493232 132.14263 
L 133.151818 131.843171 
L 134.810404 131.540962 
L 136.46899 131.238754 
L 138.127576 130.936545 
L 139.786162 130.634336 
L 141.444747 130.332128 
L 143.103333 130.029919 
L 144.761919 129.710881 
L 146.420505 129.390354 
L 148.079091 129.070515 
L 149.737677 128.759037 
L 151.396263 128.466825 
L 153.054848 128.175127 
L 154.713434 127.883081 
L 156.37202 127.614255 
L 158.030606 127.314433 
L 159.689192 127.006943 
L 161.347778 126.715123 
L 163.006364 126.434122 
L 164.664949 126.131833 
L 166.323535 125.863106 
L 167.982121 125.528139 
L 169.640707 125.263022 
L 171.299293 125.006688 
L 172.957879 124.728866 
L 174.616465 124.54419 
L 176.275051 124.343065 
L 177.933636 124.183266 
L 179.592222 123.898914 
L 181.250808 123.688875 
L 182.909394 123.460082 
L 184.56798 123.297474 
L 186.226566 123.099335 
L 187.885152 122.99665 
L 189.543737 122.834809 
L 191.202323 122.608237 
L 192.860909 122.363971 
L 194.519495 122.234247 
L 196.178081 122.104036 
L 197.836667 121.974782 
L 199.495253 121.890758 
L 201.153838 121.686382 
L 202.812424 121.453471 
L 204.47101 121.344921 
L 206.129596 121.23402 
L 207.788182 121.061934 
L 209.446768 120.942247 
L 211.105354 120.8739 
L 212.763939 120.798763 
L 214.422525 120.776637 
L 216.081111 120.689161 
L 217.739697 120.597265 
L 219.398283 120.467652 
L 221.056869 120.356515 
L 222.715455 120.313502 
L 224.37404 120.28427 
L 226.032626 120.287728 
L 227.691212 120.219221 
L 229.349798 120.190615 
L 231.008384 120.124109 
L 232.66697 120.043342 
L 234.325556 119.961668 
L 235.984141 119.960915 
L 237.642727 119.987098 
L 239.301313 119.907332 
L 240.959899 119.859018 
L 242.618485 119.830591 
L 244.277071 119.770777 
L 245.935657 119.680016 
L 247.594242 119.57947 
L 249.252828 119.478924 
L 250.911414 119.3934 
L 252.57 119.448185 
L 252.57 102.633224 
L 252.57 102.633224 
L 250.911414 102.982755 
L 249.252828 103.332286 
L 247.594242 103.681817 
L 245.935657 104.031348 
L 244.277071 104.380972 
L 242.618485 104.7307 
L 240.959899 105.080428 
L 239.301313 105.401 
L 237.642727 105.647831 
L 235.984141 105.879981 
L 234.325556 106.232919 
L 232.66697 106.600318 
L 231.008384 106.977597 
L 229.349798 107.310812 
L 227.691212 107.62232 
L 226.032626 107.949231 
L 224.37404 108.243908 
L 222.715455 108.528613 
L 221.056869 108.771373 
L 219.398283 109.113354 
L 217.739697 109.379076 
L 216.081111 109.732207 
L 214.422525 110.066806 
L 212.763939 110.340134 
L 211.105354 110.628679 
L 209.446768 110.854998 
L 207.788182 111.093147 
L 206.129596 111.382455 
L 204.47101 111.603935 
L 202.812424 111.810998 
L 201.153838 112.045972 
L 199.495253 112.28893 
L 197.836667 112.527255 
L 196.178081 112.765802 
L 194.519495 112.995093 
L 192.860909 113.218595 
L 191.202323 113.47074 
L 189.543737 113.682772 
L 187.885152 113.864429 
L 186.226566 114.032285 
L 184.56798 114.211766 
L 182.909394 114.411677 
L 181.250808 114.592929 
L 179.592222 114.774182 
L 177.933636 114.955434 
L 176.275051 115.137043 
L 174.616465 115.346476 
L 172.957879 115.498882 
L 171.299293 115.677358 
L 169.640707 115.76667 
L 167.982121 115.970921 
L 166.323535 116.175566 
L 164.664949 116.321025 
L 163.006364 116.37422 
L 161.347778 116.357298 
L 159.689192 116.527435 
L 158.030606 116.665374 
L 156.37202 116.773347 
L 154.713434 116.876277 
L 153.054848 116.900617 
L 151.396263 116.969196 
L 149.737677 117.001062 
L 148.079091 117.063864 
L 146.420505 117.085164 
L 144.761919 117.095718 
L 143.103333 117.156895 
L 141.444747 117.136544 
L 139.786162 117.128201 
L 138.127576 117.151715 
L 136.46899 117.237263 
L 134.810404 117.289103 
L 133.151818 117.331212 
L 131.493232 117.496498 
L 129.834646 117.587007 
L 128.176061 117.614475 
L 126.517475 117.660169 
L 124.858889 117.740082 
L 123.200303 117.893934 
L 121.541717 118.025192 
L 119.883131 118.113295 
L 118.224545 118.191302 
L 116.56596 118.252486 
L 114.907374 118.313874 
L 113.248788 118.377426 
L 111.590202 118.424817 
L 109.931616 118.487892 
L 108.27303 118.576364 
L 106.614444 118.671747 
L 104.955859 118.741577 
L 103.297273 118.769999 
L 101.638687 118.82901 
L 99.980101 118.922281 
L 98.321515 119.015552 
L 96.662929 119.108824 
L 95.004343 119.173432 
L 93.345758 119.184301 
L 91.687172 119.195169 
L 90.028586 119.255865 
L 88.37 119.314775 
z
" clip-path="url(#pad3fb2ebb8)" style="fill: #004c4c; fill-opacity: 0.15"/>
   </g>
   <g id="matplotlib.axis_1">
    <g id="xtick_1">
     <g id="line2d_1">
      <defs>
       <path id="mda4d4bbb70" d="M 0 0 
L 0 3.5 
" style="stroke: #000000; stroke-width: 0.8"/>
      </defs>
      <g>
       <use xlink:href="#mda4d4bbb70" x="90.028586" y="240.28" style="stroke: #000000; stroke-width: 0.8"/>
      </g>
     </g>
     <g id="text_1">
      <!-- 90 -->
      <g transform="translate(82.393586 256.398125) scale(0.12 -0.12)">
       <defs>
        <path id="DejaVuSans-39" d="M 703 97 
L 703 672 
Q 941 559 1184 500 
Q 1428 441 1663 441 
Q 2288 441 2617 861 
Q 2947 1281 2994 2138 
Q 2813 1869 2534 1725 
Q 2256 1581 1919 1581 
Q 1219 1581 811 2004 
Q 403 2428 403 3163 
Q 403 3881 828 4315 
Q 1253 4750 1959 4750 
Q 2769 4750 3195 4129 
Q 3622 3509 3622 2328 
Q 3622 1225 3098 567 
Q 2575 -91 1691 -91 
Q 1453 -91 1209 -44 
Q 966 3 703 97 
z
M 1959 2075 
Q 2384 2075 2632 2365 
Q 2881 2656 2881 3163 
Q 2881 3666 2632 3958 
Q 2384 4250 1959 4250 
Q 1534 4250 1286 3958 
Q 1038 3666 1038 3163 
Q 1038 2656 1286 2365 
Q 1534 2075 1959 2075 
z
" transform="scale(0.015625)"/>
        <path id="DejaVuSans-30" d="M 2034 4250 
Q 1547 4250 1301 3770 
Q 1056 3291 1056 2328 
Q 1056 1369 1301 889 
Q 1547 409 2034 409 
Q 2525 409 2770 889 
Q 3016 1369 3016 2328 
Q 3016 3291 2770 3770 
Q 2525 4250 2034 4250 
z
M 2034 4750 
Q 2819 4750 3233 4129 
Q 3647 3509 3647 2328 
Q 3647 1150 3233 529 
Q 2819 -91 2034 -91 
Q 1250 -91 836 529 
Q 422 1150 422 2328 
Q 422 3509 836 4129 
Q 1250 4750 2034 4750 
z
" transform="scale(0.015625)"/>
       </defs>
       <use xlink:href="#DejaVuSans-39"/>
       <use xlink:href="#DejaVuSans-30" x="63.623047"/>
      </g>
     </g>
    </g>
    <g id="xtick_2">
     <g id="line2d_2">
      <g>
       <use xlink:href="#mda4d4bbb70" x="123.200303" y="240.28" style="stroke: #000000; stroke-width: 0.8"/>
      </g>
     </g>
     <g id="text_2">
      <!-- 100 -->
      <g transform="translate(111.747803 256.398125) scale(0.12 -0.12)">
       <defs>
        <path id="DejaVuSans-31" d="M 794 531 
L 1825 531 
L 1825 4091 
L 703 3866 
L 703 4441 
L 1819 4666 
L 2450 4666 
L 2450 531 
L 3481 531 
L 3481 0 
L 794 0 
L 794 531 
z
" transform="scale(0.015625)"/>
       </defs>
       <use xlink:href="#DejaVuSans-31"/>
       <use xlink:href="#DejaVuSans-30" x="63.623047"/>
       <use xlink:href="#DejaVuSans-30" x="127.246094"/>
      </g>
     </g>
    </g>
    <g id="xtick_3">
     <g id="line2d_3">
      <g>
       <use xlink:href="#mda4d4bbb70" x="156.37202" y="240.28" style="stroke: #000000; stroke-width: 0.8"/>
      </g>
     </g>
     <g id="text_3">
      <!-- 110 -->
      <g transform="translate(144.91952 256.398125) scale(0.12 -0.12)">
       <use xlink:href="#DejaVuSans-31"/>
       <use xlink:href="#DejaVuSans-31" x="63.623047"/>
       <use xlink:href="#DejaVuSans-30" x="127.246094"/>
      </g>
     </g>
    </g>
    <g id="xtick_4">
     <g id="line2d_4">
      <g>
       <use xlink:href="#mda4d4bbb70" x="189.543737" y="240.28" style="stroke: #000000; stroke-width: 0.8"/>
      </g>
     </g>
     <g id="text_4">
      <!-- 120 -->
      <g transform="translate(178.091237 256.398125) scale(0.12 -0.12)">
       <defs>
        <path id="DejaVuSans-32" d="M 1228 531 
L 3431 531 
L 3431 0 
L 469 0 
L 469 531 
Q 828 903 1448 1529 
Q 2069 2156 2228 2338 
Q 2531 2678 2651 2914 
Q 2772 3150 2772 3378 
Q 2772 3750 2511 3984 
Q 2250 4219 1831 4219 
Q 1534 4219 1204 4116 
Q 875 4013 500 3803 
L 500 4441 
Q 881 4594 1212 4672 
Q 1544 4750 1819 4750 
Q 2544 4750 2975 4387 
Q 3406 4025 3406 3419 
Q 3406 3131 3298 2873 
Q 3191 2616 2906 2266 
Q 2828 2175 2409 1742 
Q 1991 1309 1228 531 
z
" transform="scale(0.015625)"/>
       </defs>
       <use xlink:href="#DejaVuSans-31"/>
       <use xlink:href="#DejaVuSans-32" x="63.623047"/>
       <use xlink:href="#DejaVuSans-30" x="127.246094"/>
      </g>
     </g>
    </g>
    <g id="xtick_5">
     <g id="line2d_5">
      <g>
       <use xlink:href="#mda4d4bbb70" x="222.715455" y="240.28" style="stroke: #000000; stroke-width: 0.8"/>
      </g>
     </g>
     <g id="text_5">
      <!-- 130 -->
      <g transform="translate(211.262955 256.398125) scale(0.12 -0.12)">
       <defs>
        <path id="DejaVuSans-33" d="M 2597 2516 
Q 3050 2419 3304 2112 
Q 3559 1806 3559 1356 
Q 3559 666 3084 287 
Q 2609 -91 1734 -91 
Q 1441 -91 1130 -33 
Q 819 25 488 141 
L 488 750 
Q 750 597 1062 519 
Q 1375 441 1716 441 
Q 2309 441 2620 675 
Q 2931 909 2931 1356 
Q 2931 1769 2642 2001 
Q 2353 2234 1838 2234 
L 1294 2234 
L 1294 2753 
L 1863 2753 
Q 2328 2753 2575 2939 
Q 2822 3125 2822 3475 
Q 2822 3834 2567 4026 
Q 2313 4219 1838 4219 
Q 1578 4219 1281 4162 
Q 984 4106 628 3988 
L 628 4550 
Q 988 4650 1302 4700 
Q 1616 4750 1894 4750 
Q 2613 4750 3031 4423 
Q 3450 4097 3450 3541 
Q 3450 3153 3228 2886 
Q 3006 2619 2597 2516 
z
" transform="scale(0.015625)"/>
       </defs>
       <use xlink:href="#DejaVuSans-31"/>
       <use xlink:href="#DejaVuSans-33" x="63.623047"/>
       <use xlink:href="#DejaVuSans-30" x="127.246094"/>
      </g>
     </g>
    </g>
    <g id="xtick_6">
     <g id="line2d_6">
      <g>
       <use xlink:href="#mda4d4bbb70" x="255.887172" y="240.28" style="stroke: #000000; stroke-width: 0.8"/>
      </g>
     </g>
     <g id="text_6">
      <!-- 140 -->
      <g transform="translate(244.434672 256.398125) scale(0.12 -0.12)">
       <defs>
        <path id="DejaVuSans-34" d="M 2419 4116 
L 825 1625 
L 2419 1625 
L 2419 4116 
z
M 2253 4666 
L 3047 4666 
L 3047 1625 
L 3713 1625 
L 3713 1100 
L 3047 1100 
L 3047 0 
L 2419 0 
L 2419 1100 
L 313 1100 
L 313 1709 
L 2253 4666 
z
" transform="scale(0.015625)"/>
       </defs>
       <use xlink:href="#DejaVuSans-31"/>
       <use xlink:href="#DejaVuSans-34" x="63.623047"/>
       <use xlink:href="#DejaVuSans-30" x="127.246094"/>
      </g>
     </g>
    </g>
    <g id="text_7">
     <!-- gf -->
     <g transform="translate(164.54875 272.011875) scale(0.12 -0.12)">
      <defs>
       <path id="DejaVuSans-67" d="M 2906 1791 
Q 2906 2416 2648 2759 
Q 2391 3103 1925 3103 
Q 1463 3103 1205 2759 
Q 947 2416 947 1791 
Q 947 1169 1205 825 
Q 1463 481 1925 481 
Q 2391 481 2648 825 
Q 2906 1169 2906 1791 
z
M 3481 434 
Q 3481 -459 3084 -895 
Q 2688 -1331 1869 -1331 
Q 1566 -1331 1297 -1286 
Q 1028 -1241 775 -1147 
L 775 -588 
Q 1028 -725 1275 -790 
Q 1522 -856 1778 -856 
Q 2344 -856 2625 -561 
Q 2906 -266 2906 331 
L 2906 616 
Q 2728 306 2450 153 
Q 2172 0 1784 0 
Q 1141 0 747 490 
Q 353 981 353 1791 
Q 353 2603 747 3093 
Q 1141 3584 1784 3584 
Q 2172 3584 2450 3431 
Q 2728 3278 2906 2969 
L 2906 3500 
L 3481 3500 
L 3481 434 
z
" transform="scale(0.015625)"/>
       <path id="DejaVuSans-66" d="M 2375 4863 
L 2375 4384 
L 1825 4384 
Q 1516 4384 1395 4259 
Q 1275 4134 1275 3809 
L 1275 3500 
L 2222 3500 
L 2222 3053 
L 1275 3053 
L 1275 0 
L 697 0 
L 697 3053 
L 147 3053 
L 147 3500 
L 697 3500 
L 697 3744 
Q 697 4328 969 4595 
Q 1241 4863 1831 4863 
L 2375 4863 
z
" transform="scale(0.015625)"/>
      </defs>
      <use xlink:href="#DejaVuSans-67"/>
      <use xlink:href="#DejaVuSans-66" x="63.476562"/>
     </g>
    </g>
   </g>
   <g id="matplotlib.axis_2">
    <g id="ytick_1">
     <g id="line2d_7">
      <defs>
       <path id="m84e3ba0a75" d="M 0 0 
L -3.5 0 
" style="stroke: #000000; stroke-width: 0.8"/>
      </defs>
      <g>
       <use xlink:href="#m84e3ba0a75" x="63.74" y="219.149558" style="stroke: #000000; stroke-width: 0.8"/>
      </g>
     </g>
     <g id="text_8">
      <!-- −0.8 -->
      <g transform="translate(27.600625 223.708621) scale(0.12 -0.12)">
       <defs>
        <path id="DejaVuSans-2212" d="M 678 2272 
L 4684 2272 
L 4684 1741 
L 678 1741 
L 678 2272 
z
" transform="scale(0.015625)"/>
        <path id="DejaVuSans-2e" d="M 684 794 
L 1344 794 
L 1344 0 
L 684 0 
L 684 794 
z
" transform="scale(0.015625)"/>
        <path id="DejaVuSans-38" d="M 2034 2216 
Q 1584 2216 1326 1975 
Q 1069 1734 1069 1313 
Q 1069 891 1326 650 
Q 1584 409 2034 409 
Q 2484 409 2743 651 
Q 3003 894 3003 1313 
Q 3003 1734 2745 1975 
Q 2488 2216 2034 2216 
z
M 1403 2484 
Q 997 2584 770 2862 
Q 544 3141 544 3541 
Q 544 4100 942 4425 
Q 1341 4750 2034 4750 
Q 2731 4750 3128 4425 
Q 3525 4100 3525 3541 
Q 3525 3141 3298 2862 
Q 3072 2584 2669 2484 
Q 3125 2378 3379 2068 
Q 3634 1759 3634 1313 
Q 3634 634 3220 271 
Q 2806 -91 2034 -91 
Q 1263 -91 848 271 
Q 434 634 434 1313 
Q 434 1759 690 2068 
Q 947 2378 1403 2484 
z
M 1172 3481 
Q 1172 3119 1398 2916 
Q 1625 2713 2034 2713 
Q 2441 2713 2670 2916 
Q 2900 3119 2900 3481 
Q 2900 3844 2670 4047 
Q 2441 4250 2034 4250 
Q 1625 4250 1398 4047 
Q 1172 3844 1172 3481 
z
" transform="scale(0.015625)"/>
       </defs>
       <use xlink:href="#DejaVuSans-2212"/>
       <use xlink:href="#DejaVuSans-30" x="83.789062"/>
       <use xlink:href="#DejaVuSans-2e" x="147.412109"/>
       <use xlink:href="#DejaVuSans-38" x="179.199219"/>
      </g>
     </g>
    </g>
    <g id="ytick_2">
     <g id="line2d_8">
      <g>
       <use xlink:href="#m84e3ba0a75" x="63.74" y="194.701113" style="stroke: #000000; stroke-width: 0.8"/>
      </g>
     </g>
     <g id="text_9">
      <!-- −0.6 -->
      <g transform="translate(27.600625 199.260175) scale(0.12 -0.12)">
       <defs>
        <path id="DejaVuSans-36" d="M 2113 2584 
Q 1688 2584 1439 2293 
Q 1191 2003 1191 1497 
Q 1191 994 1439 701 
Q 1688 409 2113 409 
Q 2538 409 2786 701 
Q 3034 994 3034 1497 
Q 3034 2003 2786 2293 
Q 2538 2584 2113 2584 
z
M 3366 4563 
L 3366 3988 
Q 3128 4100 2886 4159 
Q 2644 4219 2406 4219 
Q 1781 4219 1451 3797 
Q 1122 3375 1075 2522 
Q 1259 2794 1537 2939 
Q 1816 3084 2150 3084 
Q 2853 3084 3261 2657 
Q 3669 2231 3669 1497 
Q 3669 778 3244 343 
Q 2819 -91 2113 -91 
Q 1303 -91 875 529 
Q 447 1150 447 2328 
Q 447 3434 972 4092 
Q 1497 4750 2381 4750 
Q 2619 4750 2861 4703 
Q 3103 4656 3366 4563 
z
" transform="scale(0.015625)"/>
       </defs>
       <use xlink:href="#DejaVuSans-2212"/>
       <use xlink:href="#DejaVuSans-30" x="83.789062"/>
       <use xlink:href="#DejaVuSans-2e" x="147.412109"/>
       <use xlink:href="#DejaVuSans-36" x="179.199219"/>
      </g>
     </g>
    </g>
    <g id="ytick_3">
     <g id="line2d_9">
      <g>
       <use xlink:href="#m84e3ba0a75" x="63.74" y="170.252668" style="stroke: #000000; stroke-width: 0.8"/>
      </g>
     </g>
     <g id="text_10">
      <!-- −0.4 -->
      <g transform="translate(27.600625 174.81173) scale(0.12 -0.12)">
       <use xlink:href="#DejaVuSans-2212"/>
       <use xlink:href="#DejaVuSans-30" x="83.789062"/>
       <use xlink:href="#DejaVuSans-2e" x="147.412109"/>
       <use xlink:href="#DejaVuSans-34" x="179.199219"/>
      </g>
     </g>
    </g>
    <g id="ytick_4">
     <g id="line2d_10">
      <g>
       <use xlink:href="#m84e3ba0a75" x="63.74" y="145.804223" style="stroke: #000000; stroke-width: 0.8"/>
      </g>
     </g>
     <g id="text_11">
      <!-- −0.2 -->
      <g transform="translate(27.600625 150.363285) scale(0.12 -0.12)">
       <use xlink:href="#DejaVuSans-2212"/>
       <use xlink:href="#DejaVuSans-30" x="83.789062"/>
       <use xlink:href="#DejaVuSans-2e" x="147.412109"/>
       <use xlink:href="#DejaVuSans-32" x="179.199219"/>
      </g>
     </g>
    </g>
    <g id="ytick_5">
     <g id="line2d_11">
      <g>
       <use xlink:href="#m84e3ba0a75" x="63.74" y="121.355777" style="stroke: #000000; stroke-width: 0.8"/>
      </g>
     </g>
     <g id="text_12">
      <!-- 0.0 -->
      <g transform="translate(37.65625 125.91484) scale(0.12 -0.12)">
       <use xlink:href="#DejaVuSans-30"/>
       <use xlink:href="#DejaVuSans-2e" x="63.623047"/>
       <use xlink:href="#DejaVuSans-30" x="95.410156"/>
      </g>
     </g>
    </g>
    <g id="ytick_6">
     <g id="line2d_12">
      <g>
       <use xlink:href="#m84e3ba0a75" x="63.74" y="96.907332" style="stroke: #000000; stroke-width: 0.8"/>
      </g>
     </g>
     <g id="text_13">
      <!-- 0.2 -->
      <g transform="translate(37.65625 101.466395) scale(0.12 -0.12)">
       <use xlink:href="#DejaVuSans-30"/>
       <use xlink:href="#DejaVuSans-2e" x="63.623047"/>
       <use xlink:href="#DejaVuSans-32" x="95.410156"/>
      </g>
     </g>
    </g>
    <g id="ytick_7">
     <g id="line2d_13">
      <g>
       <use xlink:href="#m84e3ba0a75" x="63.74" y="72.458887" style="stroke: #000000; stroke-width: 0.8"/>
      </g>
     </g>
     <g id="text_14">
      <!-- 0.4 -->
      <g transform="translate(37.65625 77.01795) scale(0.12 -0.12)">
       <use xlink:href="#DejaVuSans-30"/>
       <use xlink:href="#DejaVuSans-2e" x="63.623047"/>
       <use xlink:href="#DejaVuSans-34" x="95.410156"/>
      </g>
     </g>
    </g>
    <g id="ytick_8">
     <g id="line2d_14">
      <g>
       <use xlink:href="#m84e3ba0a75" x="63.74" y="48.010442" style="stroke: #000000; stroke-width: 0.8"/>
      </g>
     </g>
     <g id="text_15">
      <!-- 0.6 -->
      <g transform="translate(37.65625 52.569504) scale(0.12 -0.12)">
       <use xlink:href="#DejaVuSans-30"/>
       <use xlink:href="#DejaVuSans-2e" x="63.623047"/>
       <use xlink:href="#DejaVuSans-36" x="95.410156"/>
      </g>
     </g>
    </g>
    <g id="text_16">
     <!-- HC map-like representations -->
     <g transform="translate(21.105 218.996562) rotate(-90) scale(0.12 -0.12)">
      <defs>
       <path id="DejaVuSans-48" d="M 628 4666 
L 1259 4666 
L 1259 2753 
L 3553 2753 
L 3553 4666 
L 4184 4666 
L 4184 0 
L 3553 0 
L 3553 2222 
L 1259 2222 
L 1259 0 
L 628 0 
L 628 4666 
z
" transform="scale(0.015625)"/>
       <path id="DejaVuSans-43" d="M 4122 4306 
L 4122 3641 
Q 3803 3938 3442 4084 
Q 3081 4231 2675 4231 
Q 1875 4231 1450 3742 
Q 1025 3253 1025 2328 
Q 1025 1406 1450 917 
Q 1875 428 2675 428 
Q 3081 428 3442 575 
Q 3803 722 4122 1019 
L 4122 359 
Q 3791 134 3420 21 
Q 3050 -91 2638 -91 
Q 1578 -91 968 557 
Q 359 1206 359 2328 
Q 359 3453 968 4101 
Q 1578 4750 2638 4750 
Q 3056 4750 3426 4639 
Q 3797 4528 4122 4306 
z
" transform="scale(0.015625)"/>
       <path id="DejaVuSans-20" transform="scale(0.015625)"/>
       <path id="DejaVuSans-6d" d="M 3328 2828 
Q 3544 3216 3844 3400 
Q 4144 3584 4550 3584 
Q 5097 3584 5394 3201 
Q 5691 2819 5691 2113 
L 5691 0 
L 5113 0 
L 5113 2094 
Q 5113 2597 4934 2840 
Q 4756 3084 4391 3084 
Q 3944 3084 3684 2787 
Q 3425 2491 3425 1978 
L 3425 0 
L 2847 0 
L 2847 2094 
Q 2847 2600 2669 2842 
Q 2491 3084 2119 3084 
Q 1678 3084 1418 2786 
Q 1159 2488 1159 1978 
L 1159 0 
L 581 0 
L 581 3500 
L 1159 3500 
L 1159 2956 
Q 1356 3278 1631 3431 
Q 1906 3584 2284 3584 
Q 2666 3584 2933 3390 
Q 3200 3197 3328 2828 
z
" transform="scale(0.015625)"/>
       <path id="DejaVuSans-61" d="M 2194 1759 
Q 1497 1759 1228 1600 
Q 959 1441 959 1056 
Q 959 750 1161 570 
Q 1363 391 1709 391 
Q 2188 391 2477 730 
Q 2766 1069 2766 1631 
L 2766 1759 
L 2194 1759 
z
M 3341 1997 
L 3341 0 
L 2766 0 
L 2766 531 
Q 2569 213 2275 61 
Q 1981 -91 1556 -91 
Q 1019 -91 701 211 
Q 384 513 384 1019 
Q 384 1609 779 1909 
Q 1175 2209 1959 2209 
L 2766 2209 
L 2766 2266 
Q 2766 2663 2505 2880 
Q 2244 3097 1772 3097 
Q 1472 3097 1187 3025 
Q 903 2953 641 2809 
L 641 3341 
Q 956 3463 1253 3523 
Q 1550 3584 1831 3584 
Q 2591 3584 2966 3190 
Q 3341 2797 3341 1997 
z
" transform="scale(0.015625)"/>
       <path id="DejaVuSans-70" d="M 1159 525 
L 1159 -1331 
L 581 -1331 
L 581 3500 
L 1159 3500 
L 1159 2969 
Q 1341 3281 1617 3432 
Q 1894 3584 2278 3584 
Q 2916 3584 3314 3078 
Q 3713 2572 3713 1747 
Q 3713 922 3314 415 
Q 2916 -91 2278 -91 
Q 1894 -91 1617 61 
Q 1341 213 1159 525 
z
M 3116 1747 
Q 3116 2381 2855 2742 
Q 2594 3103 2138 3103 
Q 1681 3103 1420 2742 
Q 1159 2381 1159 1747 
Q 1159 1113 1420 752 
Q 1681 391 2138 391 
Q 2594 391 2855 752 
Q 3116 1113 3116 1747 
z
" transform="scale(0.015625)"/>
       <path id="DejaVuSans-2d" d="M 313 2009 
L 1997 2009 
L 1997 1497 
L 313 1497 
L 313 2009 
z
" transform="scale(0.015625)"/>
       <path id="DejaVuSans-6c" d="M 603 4863 
L 1178 4863 
L 1178 0 
L 603 0 
L 603 4863 
z
" transform="scale(0.015625)"/>
       <path id="DejaVuSans-69" d="M 603 3500 
L 1178 3500 
L 1178 0 
L 603 0 
L 603 3500 
z
M 603 4863 
L 1178 4863 
L 1178 4134 
L 603 4134 
L 603 4863 
z
" transform="scale(0.015625)"/>
       <path id="DejaVuSans-6b" d="M 581 4863 
L 1159 4863 
L 1159 1991 
L 2875 3500 
L 3609 3500 
L 1753 1863 
L 3688 0 
L 2938 0 
L 1159 1709 
L 1159 0 
L 581 0 
L 581 4863 
z
" transform="scale(0.015625)"/>
       <path id="DejaVuSans-65" d="M 3597 1894 
L 3597 1613 
L 953 1613 
Q 991 1019 1311 708 
Q 1631 397 2203 397 
Q 2534 397 2845 478 
Q 3156 559 3463 722 
L 3463 178 
Q 3153 47 2828 -22 
Q 2503 -91 2169 -91 
Q 1331 -91 842 396 
Q 353 884 353 1716 
Q 353 2575 817 3079 
Q 1281 3584 2069 3584 
Q 2775 3584 3186 3129 
Q 3597 2675 3597 1894 
z
M 3022 2063 
Q 3016 2534 2758 2815 
Q 2500 3097 2075 3097 
Q 1594 3097 1305 2825 
Q 1016 2553 972 2059 
L 3022 2063 
z
" transform="scale(0.015625)"/>
       <path id="DejaVuSans-72" d="M 2631 2963 
Q 2534 3019 2420 3045 
Q 2306 3072 2169 3072 
Q 1681 3072 1420 2755 
Q 1159 2438 1159 1844 
L 1159 0 
L 581 0 
L 581 3500 
L 1159 3500 
L 1159 2956 
Q 1341 3275 1631 3429 
Q 1922 3584 2338 3584 
Q 2397 3584 2469 3576 
Q 2541 3569 2628 3553 
L 2631 2963 
z
" transform="scale(0.015625)"/>
       <path id="DejaVuSans-73" d="M 2834 3397 
L 2834 2853 
Q 2591 2978 2328 3040 
Q 2066 3103 1784 3103 
Q 1356 3103 1142 2972 
Q 928 2841 928 2578 
Q 928 2378 1081 2264 
Q 1234 2150 1697 2047 
L 1894 2003 
Q 2506 1872 2764 1633 
Q 3022 1394 3022 966 
Q 3022 478 2636 193 
Q 2250 -91 1575 -91 
Q 1294 -91 989 -36 
Q 684 19 347 128 
L 347 722 
Q 666 556 975 473 
Q 1284 391 1588 391 
Q 1994 391 2212 530 
Q 2431 669 2431 922 
Q 2431 1156 2273 1281 
Q 2116 1406 1581 1522 
L 1381 1569 
Q 847 1681 609 1914 
Q 372 2147 372 2553 
Q 372 3047 722 3315 
Q 1072 3584 1716 3584 
Q 2034 3584 2315 3537 
Q 2597 3491 2834 3397 
z
" transform="scale(0.015625)"/>
       <path id="DejaVuSans-6e" d="M 3513 2113 
L 3513 0 
L 2938 0 
L 2938 2094 
Q 2938 2591 2744 2837 
Q 2550 3084 2163 3084 
Q 1697 3084 1428 2787 
Q 1159 2491 1159 1978 
L 1159 0 
L 581 0 
L 581 3500 
L 1159 3500 
L 1159 2956 
Q 1366 3272 1645 3428 
Q 1925 3584 2291 3584 
Q 2894 3584 3203 3211 
Q 3513 2838 3513 2113 
z
" transform="scale(0.015625)"/>
       <path id="DejaVuSans-74" d="M 1172 4494 
L 1172 3500 
L 2356 3500 
L 2356 3053 
L 1172 3053 
L 1172 1153 
Q 1172 725 1289 603 
Q 1406 481 1766 481 
L 2356 481 
L 2356 0 
L 1766 0 
Q 1100 0 847 248 
Q 594 497 594 1153 
L 594 3053 
L 172 3053 
L 172 3500 
L 594 3500 
L 594 4494 
L 1172 4494 
z
" transform="scale(0.015625)"/>
       <path id="DejaVuSans-6f" d="M 1959 3097 
Q 1497 3097 1228 2736 
Q 959 2375 959 1747 
Q 959 1119 1226 758 
Q 1494 397 1959 397 
Q 2419 397 2687 759 
Q 2956 1122 2956 1747 
Q 2956 2369 2687 2733 
Q 2419 3097 1959 3097 
z
M 1959 3584 
Q 2709 3584 3137 3096 
Q 3566 2609 3566 1747 
Q 3566 888 3137 398 
Q 2709 -91 1959 -91 
Q 1206 -91 779 398 
Q 353 888 353 1747 
Q 353 2609 779 3096 
Q 1206 3584 1959 3584 
z
" transform="scale(0.015625)"/>
      </defs>
      <use xlink:href="#DejaVuSans-48"/>
      <use xlink:href="#DejaVuSans-43" x="75.195312"/>
      <use xlink:href="#DejaVuSans-20" x="145.019531"/>
      <use xlink:href="#DejaVuSans-6d" x="176.806641"/>
      <use xlink:href="#DejaVuSans-61" x="274.21875"/>
      <use xlink:href="#DejaVuSans-70" x="335.498047"/>
      <use xlink:href="#DejaVuSans-2d" x="398.974609"/>
      <use xlink:href="#DejaVuSans-6c" x="435.058594"/>
      <use xlink:href="#DejaVuSans-69" x="462.841797"/>
      <use xlink:href="#DejaVuSans-6b" x="490.625"/>
      <use xlink:href="#DejaVuSans-65" x="544.910156"/>
      <use xlink:href="#DejaVuSans-20" x="606.433594"/>
      <use xlink:href="#DejaVuSans-72" x="638.220703"/>
      <use xlink:href="#DejaVuSans-65" x="677.083984"/>
      <use xlink:href="#DejaVuSans-70" x="738.607422"/>
      <use xlink:href="#DejaVuSans-72" x="802.083984"/>
      <use xlink:href="#DejaVuSans-65" x="840.947266"/>
      <use xlink:href="#DejaVuSans-73" x="902.470703"/>
      <use xlink:href="#DejaVuSans-65" x="954.570312"/>
      <use xlink:href="#DejaVuSans-6e" x="1016.09375"/>
      <use xlink:href="#DejaVuSans-74" x="1079.472656"/>
      <use xlink:href="#DejaVuSans-61" x="1118.681641"/>
      <use xlink:href="#DejaVuSans-74" x="1179.960938"/>
      <use xlink:href="#DejaVuSans-69" x="1219.169922"/>
      <use xlink:href="#DejaVuSans-6f" x="1246.953125"/>
      <use xlink:href="#DejaVuSans-6e" x="1308.134766"/>
      <use xlink:href="#DejaVuSans-73" x="1371.513672"/>
     </g>
    </g>
   </g>
   <g id="line2d_15">
    <path d="M 88.37 129.909222 
L 90.028586 129.717267 
L 91.687172 129.525312 
L 93.345758 129.333357 
L 95.004343 129.141402 
L 96.662929 128.949447 
L 98.321515 128.757492 
L 99.980101 128.565537 
L 101.638687 128.373582 
L 103.297273 128.181627 
L 104.955859 127.989672 
L 106.614444 127.797717 
L 108.27303 127.605762 
L 109.931616 127.413807 
L 111.590202 127.221852 
L 113.248788 127.029897 
L 114.907374 126.837942 
L 116.56596 126.645987 
L 118.224545 126.454032 
L 119.883131 126.262077 
L 121.541717 126.070122 
L 123.200303 125.878167 
L 124.858889 125.686212 
L 126.517475 125.494257 
L 128.176061 125.302302 
L 129.834646 125.110347 
L 131.493232 124.918392 
L 133.151818 124.726437 
L 134.810404 124.534482 
L 136.46899 124.342527 
L 138.127576 124.150572 
L 139.786162 123.958617 
L 141.444747 123.766662 
L 143.103333 123.574707 
L 144.761919 123.382752 
L 146.420505 123.190797 
L 148.079091 122.998842 
L 149.737677 122.806887 
L 151.396263 122.614932 
L 153.054848 122.422977 
L 154.713434 122.231022 
L 156.37202 122.039067 
L 158.030606 121.847112 
L 159.689192 121.655157 
L 161.347778 121.463202 
L 163.006364 121.271247 
L 164.664949 121.079292 
L 166.323535 120.887337 
L 167.982121 120.695382 
L 169.640707 120.503427 
L 171.299293 120.311473 
L 172.957879 120.119518 
L 174.616465 119.927563 
L 176.275051 119.735608 
L 177.933636 119.543653 
L 179.592222 119.351698 
L 181.250808 119.159743 
L 182.909394 118.967788 
L 184.56798 118.775833 
L 186.226566 118.583878 
L 187.885152 118.391923 
L 189.543737 118.199968 
L 191.202323 118.008013 
L 192.860909 117.816058 
L 194.519495 117.624103 
L 196.178081 117.432148 
L 197.836667 117.240193 
L 199.495253 117.048238 
L 201.153838 116.856283 
L 202.812424 116.664328 
L 204.47101 116.472373 
L 206.129596 116.280418 
L 207.788182 116.088463 
L 209.446768 115.896508 
L 211.105354 115.704553 
L 212.763939 115.512598 
L 214.422525 115.320643 
L 216.081111 115.128688 
L 217.739697 114.936733 
L 219.398283 114.744778 
L 221.056869 114.552823 
L 222.715455 114.360868 
L 224.37404 114.168913 
L 226.032626 113.976958 
L 227.691212 113.785003 
L 229.349798 113.593048 
L 231.008384 113.401093 
L 232.66697 113.209138 
L 234.325556 113.017183 
L 235.984141 112.825228 
L 237.642727 112.633273 
L 239.301313 112.441318 
L 240.959899 112.249363 
L 242.618485 112.057408 
L 244.277071 111.865453 
L 245.935657 111.673498 
L 247.594242 111.481543 
L 249.252828 111.289588 
L 250.911414 111.097633 
L 252.57 110.905678 
" clip-path="url(#pad3fb2ebb8)" style="fill: none; stroke: #004c4c; stroke-width: 2.25; stroke-linecap: square"/>
   </g>
   <g id="line2d_16">
    <path d="M 63.74 121.355777 
L 277.2 121.355777 
" clip-path="url(#pad3fb2ebb8)" style="fill: none; stroke-dasharray: 5.55,2.4; stroke-dashoffset: 0; stroke: #808080; stroke-width: 1.5"/>
   </g>
   <g id="patch_3">
    <path d="M 63.74 240.28 
L 63.74 26.88 
" style="fill: none; stroke: #000000; stroke-width: 0.8; stroke-linejoin: miter; stroke-linecap: square"/>
   </g>
   <g id="patch_4">
    <path d="M 277.2 240.28 
L 277.2 26.88 
" style="fill: none; stroke: #000000; stroke-width: 0.8; stroke-linejoin: miter; stroke-linecap: square"/>
   </g>
   <g id="patch_5">
    <path d="M 63.74 240.28 
L 277.2 240.28 
" style="fill: none; stroke: #000000; stroke-width: 0.8; stroke-linejoin: miter; stroke-linecap: square"/>
   </g>
   <g id="patch_6">
    <path d="M 63.74 26.88 
L 277.2 26.88 
" style="fill: none; stroke: #000000; stroke-width: 0.8; stroke-linejoin: miter; stroke-linecap: square"/>
   </g>
   <g id="text_17">
    <!-- Correlation between gf and map-like representations -->
    <g transform="translate(11.79625 20.88) scale(0.12 -0.12)">
     <defs>
      <path id="DejaVuSans-62" d="M 3116 1747 
Q 3116 2381 2855 2742 
Q 2594 3103 2138 3103 
Q 1681 3103 1420 2742 
Q 1159 2381 1159 1747 
Q 1159 1113 1420 752 
Q 1681 391 2138 391 
Q 2594 391 2855 752 
Q 3116 1113 3116 1747 
z
M 1159 2969 
Q 1341 3281 1617 3432 
Q 1894 3584 2278 3584 
Q 2916 3584 3314 3078 
Q 3713 2572 3713 1747 
Q 3713 922 3314 415 
Q 2916 -91 2278 -91 
Q 1894 -91 1617 61 
Q 1341 213 1159 525 
L 1159 0 
L 581 0 
L 581 4863 
L 1159 4863 
L 1159 2969 
z
" transform="scale(0.015625)"/>
      <path id="DejaVuSans-77" d="M 269 3500 
L 844 3500 
L 1563 769 
L 2278 3500 
L 2956 3500 
L 3675 769 
L 4391 3500 
L 4966 3500 
L 4050 0 
L 3372 0 
L 2619 2869 
L 1863 0 
L 1184 0 
L 269 3500 
z
" transform="scale(0.015625)"/>
      <path id="DejaVuSans-64" d="M 2906 2969 
L 2906 4863 
L 3481 4863 
L 3481 0 
L 2906 0 
L 2906 525 
Q 2725 213 2448 61 
Q 2172 -91 1784 -91 
Q 1150 -91 751 415 
Q 353 922 353 1747 
Q 353 2572 751 3078 
Q 1150 3584 1784 3584 
Q 2172 3584 2448 3432 
Q 2725 3281 2906 2969 
z
M 947 1747 
Q 947 1113 1208 752 
Q 1469 391 1925 391 
Q 2381 391 2643 752 
Q 2906 1113 2906 1747 
Q 2906 2381 2643 2742 
Q 2381 3103 1925 3103 
Q 1469 3103 1208 2742 
Q 947 2381 947 1747 
z
" transform="scale(0.015625)"/>
     </defs>
     <use xlink:href="#DejaVuSans-43"/>
     <use xlink:href="#DejaVuSans-6f" x="69.824219"/>
     <use xlink:href="#DejaVuSans-72" x="131.005859"/>
     <use xlink:href="#DejaVuSans-72" x="170.369141"/>
     <use xlink:href="#DejaVuSans-65" x="209.232422"/>
     <use xlink:href="#DejaVuSans-6c" x="270.755859"/>
     <use xlink:href="#DejaVuSans-61" x="298.539062"/>
     <use xlink:href="#DejaVuSans-74" x="359.818359"/>
     <use xlink:href="#DejaVuSans-69" x="399.027344"/>
     <use xlink:href="#DejaVuSans-6f" x="426.810547"/>
     <use xlink:href="#DejaVuSans-6e" x="487.992188"/>
     <use xlink:href="#DejaVuSans-20" x="551.371094"/>
     <use xlink:href="#DejaVuSans-62" x="583.158203"/>
     <use xlink:href="#DejaVuSans-65" x="646.634766"/>
     <use xlink:href="#DejaVuSans-74" x="708.158203"/>
     <use xlink:href="#DejaVuSans-77" x="747.367188"/>
     <use xlink:href="#DejaVuSans-65" x="829.154297"/>
     <use xlink:href="#DejaVuSans-65" x="890.677734"/>
     <use xlink:href="#DejaVuSans-6e" x="952.201172"/>
     <use xlink:href="#DejaVuSans-20" x="1015.580078"/>
     <use xlink:href="#DejaVuSans-67" x="1047.367188"/>
     <use xlink:href="#DejaVuSans-66" x="1110.84375"/>
     <use xlink:href="#DejaVuSans-20" x="1146.048828"/>
     <use xlink:href="#DejaVuSans-61" x="1177.835938"/>
     <use xlink:href="#DejaVuSans-6e" x="1239.115234"/>
     <use xlink:href="#DejaVuSans-64" x="1302.494141"/>
     <use xlink:href="#DejaVuSans-20" x="1365.970703"/>
     <use xlink:href="#DejaVuSans-6d" x="1397.757812"/>
     <use xlink:href="#DejaVuSans-61" x="1495.169922"/>
     <use xlink:href="#DejaVuSans-70" x="1556.449219"/>
     <use xlink:href="#DejaVuSans-2d" x="1619.925781"/>
     <use xlink:href="#DejaVuSans-6c" x="1656.009766"/>
     <use xlink:href="#DejaVuSans-69" x="1683.792969"/>
     <use xlink:href="#DejaVuSans-6b" x="1711.576172"/>
     <use xlink:href="#DejaVuSans-65" x="1765.861328"/>
     <use xlink:href="#DejaVuSans-20" x="1827.384766"/>
     <use xlink:href="#DejaVuSans-72" x="1859.171875"/>
     <use xlink:href="#DejaVuSans-65" x="1898.035156"/>
     <use xlink:href="#DejaVuSans-70" x="1959.558594"/>
     <use xlink:href="#DejaVuSans-72" x="2023.035156"/>
     <use xlink:href="#DejaVuSans-65" x="2061.898438"/>
     <use xlink:href="#DejaVuSans-73" x="2123.421875"/>
     <use xlink:href="#DejaVuSans-65" x="2175.521484"/>
     <use xlink:href="#DejaVuSans-6e" x="2237.044922"/>
     <use xlink:href="#DejaVuSans-74" x="2300.423828"/>
     <use xlink:href="#DejaVuSans-61" x="2339.632812"/>
     <use xlink:href="#DejaVuSans-74" x="2400.912109"/>
     <use xlink:href="#DejaVuSans-69" x="2440.121094"/>
     <use xlink:href="#DejaVuSans-6f" x="2467.904297"/>
     <use xlink:href="#DejaVuSans-6e" x="2529.085938"/>
     <use xlink:href="#DejaVuSans-73" x="2592.464844"/>
    </g>
   </g>
  </g>
 </g>
 <defs>
  <clipPath id="pad3fb2ebb8">
   <rect x="63.74" y="26.88" width="213.46" height="213.4"/>
  </clipPath>
 </defs>
</svg>
