<?xml version="1.0" encoding="utf-8" standalone="no"?>
<!DOCTYPE svg PUBLIC "-//W3C//DTD SVG 1.1//EN"
  "http://www.w3.org/Graphics/SVG/1.1/DTD/svg11.dtd">
<svg xmlns:xlink="http://www.w3.org/1999/xlink" width="216pt" height="288pt" viewBox="0 0 216 288" xmlns="http://www.w3.org/2000/svg" version="1.1">
 <metadata>
  <rdf:RDF xmlns:dc="http://purl.org/dc/elements/1.1/" xmlns:cc="http://creativecommons.org/ns#" xmlns:rdf="http://www.w3.org/1999/02/22-rdf-syntax-ns#">
   <cc:Work>
    <dc:type rdf:resource="http://purl.org/dc/dcmitype/StillImage"/>
    <dc:date>2025-06-10T15:49:30.220654</dc:date>
    <dc:format>image/svg+xml</dc:format>
    <dc:creator>
     <cc:Agent>
      <dc:title>Matplotlib v3.7.5, https://matplotlib.org/</dc:title>
     </cc:Agent>
    </dc:creator>
   </cc:Work>
  </rdf:RDF>
 </metadata>
 <defs>
  <style type="text/css">*{stroke-linejoin: round; stroke-linecap: butt}</style>
 </defs>
 <g id="figure_1">
  <g id="patch_1">
   <path d="M 0 288 
L 216 288 
L 216 0 
L 0 0 
z
" style="fill: #ffffff"/>
  </g>
  <g id="axes_1">
   <g id="patch_2">
    <path d="M 35.93 273.24 
L 205.2 273.24 
L 205.2 26.88 
L 35.93 26.88 
z
" style="fill: #ffffff"/>
   </g>
   <g id="matplotlib.axis_1"/>
   <g id="matplotlib.axis_2">
    <g id="ytick_1">
     <g id="line2d_1">
      <defs>
       <path id="m9964556a4a" d="M 0 0 
L -3.5 0 
" style="stroke: #000000; stroke-width: 0.8"/>
      </defs>
      <g>
       <use xlink:href="#m9964556a4a" x="35.93" y="273.24" style="stroke: #000000; stroke-width: 0.8"/>
      </g>
     </g>
     <g id="text_1">
      <!-- 0 -->
      <g transform="translate(25.1125 275.519531) scale(0.06 -0.06)">
       <defs>
        <path id="DejaVuSans-30" d="M 2034 4250 
Q 1547 4250 1301 3770 
Q 1056 3291 1056 2328 
Q 1056 1369 1301 889 
Q 1547 409 2034 409 
Q 2525 409 2770 889 
Q 3016 1369 3016 2328 
Q 3016 3291 2770 3770 
Q 2525 4250 2034 4250 
z
M 2034 4750 
Q 2819 4750 3233 4129 
Q 3647 3509 3647 2328 
Q 3647 1150 3233 529 
Q 2819 -91 2034 -91 
Q 1250 -91 836 529 
Q 422 1150 422 2328 
Q 422 3509 836 4129 
Q 1250 4750 2034 4750 
z
" transform="scale(0.015625)"/>
       </defs>
       <use xlink:href="#DejaVuSans-30"/>
      </g>
     </g>
    </g>
    <g id="ytick_2">
     <g id="line2d_2">
      <g>
       <use xlink:href="#m9964556a4a" x="35.93" y="202.851429" style="stroke: #000000; stroke-width: 0.8"/>
      </g>
     </g>
     <g id="text_2">
      <!-- 20 -->
      <g transform="translate(21.295 205.13096) scale(0.06 -0.06)">
       <defs>
        <path id="DejaVuSans-32" d="M 1228 531 
L 3431 531 
L 3431 0 
L 469 0 
L 469 531 
Q 828 903 1448 1529 
Q 2069 2156 2228 2338 
Q 2531 2678 2651 2914 
Q 2772 3150 2772 3378 
Q 2772 3750 2511 3984 
Q 2250 4219 1831 4219 
Q 1534 4219 1204 4116 
Q 875 4013 500 3803 
L 500 4441 
Q 881 4594 1212 4672 
Q 1544 4750 1819 4750 
Q 2544 4750 2975 4387 
Q 3406 4025 3406 3419 
Q 3406 3131 3298 2873 
Q 3191 2616 2906 2266 
Q 2828 2175 2409 1742 
Q 1991 1309 1228 531 
z
" transform="scale(0.015625)"/>
       </defs>
       <use xlink:href="#DejaVuSans-32"/>
       <use xlink:href="#DejaVuSans-30" x="63.623047"/>
      </g>
     </g>
    </g>
    <g id="ytick_3">
     <g id="line2d_3">
      <g>
       <use xlink:href="#m9964556a4a" x="35.93" y="132.462857" style="stroke: #000000; stroke-width: 0.8"/>
      </g>
     </g>
     <g id="text_3">
      <!-- 40 -->
      <g transform="translate(21.295 134.742388) scale(0.06 -0.06)">
       <defs>
        <path id="DejaVuSans-34" d="M 2419 4116 
L 825 1625 
L 2419 1625 
L 2419 4116 
z
M 2253 4666 
L 3047 4666 
L 3047 1625 
L 3713 1625 
L 3713 1100 
L 3047 1100 
L 3047 0 
L 2419 0 
L 2419 1100 
L 313 1100 
L 313 1709 
L 2253 4666 
z
" transform="scale(0.015625)"/>
       </defs>
       <use xlink:href="#DejaVuSans-34"/>
       <use xlink:href="#DejaVuSans-30" x="63.623047"/>
      </g>
     </g>
    </g>
    <g id="ytick_4">
     <g id="line2d_4">
      <g>
       <use xlink:href="#m9964556a4a" x="35.93" y="62.074286" style="stroke: #000000; stroke-width: 0.8"/>
      </g>
     </g>
     <g id="text_4">
      <!-- 60 -->
      <g transform="translate(21.295 64.353817) scale(0.06 -0.06)">
       <defs>
        <path id="DejaVuSans-36" d="M 2113 2584 
Q 1688 2584 1439 2293 
Q 1191 2003 1191 1497 
Q 1191 994 1439 701 
Q 1688 409 2113 409 
Q 2538 409 2786 701 
Q 3034 994 3034 1497 
Q 3034 2003 2786 2293 
Q 2538 2584 2113 2584 
z
M 3366 4563 
L 3366 3988 
Q 3128 4100 2886 4159 
Q 2644 4219 2406 4219 
Q 1781 4219 1451 3797 
Q 1122 3375 1075 2522 
Q 1259 2794 1537 2939 
Q 1816 3084 2150 3084 
Q 2853 3084 3261 2657 
Q 3669 2231 3669 1497 
Q 3669 778 3244 343 
Q 2819 -91 2113 -91 
Q 1303 -91 875 529 
Q 447 1150 447 2328 
Q 447 3434 972 4092 
Q 1497 4750 2381 4750 
Q 2619 4750 2861 4703 
Q 3103 4656 3366 4563 
z
" transform="scale(0.015625)"/>
       </defs>
       <use xlink:href="#DejaVuSans-36"/>
       <use xlink:href="#DejaVuSans-30" x="63.623047"/>
      </g>
     </g>
    </g>
    <g id="text_5">
     <!-- Distance from target [% of max] -->
     <g transform="translate(16.047187 198.665625) rotate(-90) scale(0.06 -0.06)">
      <defs>
       <path id="DejaVuSans-44" d="M 1259 4147 
L 1259 519 
L 2022 519 
Q 2988 519 3436 956 
Q 3884 1394 3884 2338 
Q 3884 3275 3436 3711 
Q 2988 4147 2022 4147 
L 1259 4147 
z
M 628 4666 
L 1925 4666 
Q 3281 4666 3915 4102 
Q 4550 3538 4550 2338 
Q 4550 1131 3912 565 
Q 3275 0 1925 0 
L 628 0 
L 628 4666 
z
" transform="scale(0.015625)"/>
       <path id="DejaVuSans-69" d="M 603 3500 
L 1178 3500 
L 1178 0 
L 603 0 
L 603 3500 
z
M 603 4863 
L 1178 4863 
L 1178 4134 
L 603 4134 
L 603 4863 
z
" transform="scale(0.015625)"/>
       <path id="DejaVuSans-73" d="M 2834 3397 
L 2834 2853 
Q 2591 2978 2328 3040 
Q 2066 3103 1784 3103 
Q 1356 3103 1142 2972 
Q 928 2841 928 2578 
Q 928 2378 1081 2264 
Q 1234 2150 1697 2047 
L 1894 2003 
Q 2506 1872 2764 1633 
Q 3022 1394 3022 966 
Q 3022 478 2636 193 
Q 2250 -91 1575 -91 
Q 1294 -91 989 -36 
Q 684 19 347 128 
L 347 722 
Q 666 556 975 473 
Q 1284 391 1588 391 
Q 1994 391 2212 530 
Q 2431 669 2431 922 
Q 2431 1156 2273 1281 
Q 2116 1406 1581 1522 
L 1381 1569 
Q 847 1681 609 1914 
Q 372 2147 372 2553 
Q 372 3047 722 3315 
Q 1072 3584 1716 3584 
Q 2034 3584 2315 3537 
Q 2597 3491 2834 3397 
z
" transform="scale(0.015625)"/>
       <path id="DejaVuSans-74" d="M 1172 4494 
L 1172 3500 
L 2356 3500 
L 2356 3053 
L 1172 3053 
L 1172 1153 
Q 1172 725 1289 603 
Q 1406 481 1766 481 
L 2356 481 
L 2356 0 
L 1766 0 
Q 1100 0 847 248 
Q 594 497 594 1153 
L 594 3053 
L 172 3053 
L 172 3500 
L 594 3500 
L 594 4494 
L 1172 4494 
z
" transform="scale(0.015625)"/>
       <path id="DejaVuSans-61" d="M 2194 1759 
Q 1497 1759 1228 1600 
Q 959 1441 959 1056 
Q 959 750 1161 570 
Q 1363 391 1709 391 
Q 2188 391 2477 730 
Q 2766 1069 2766 1631 
L 2766 1759 
L 2194 1759 
z
M 3341 1997 
L 3341 0 
L 2766 0 
L 2766 531 
Q 2569 213 2275 61 
Q 1981 -91 1556 -91 
Q 1019 -91 701 211 
Q 384 513 384 1019 
Q 384 1609 779 1909 
Q 1175 2209 1959 2209 
L 2766 2209 
L 2766 2266 
Q 2766 2663 2505 2880 
Q 2244 3097 1772 3097 
Q 1472 3097 1187 3025 
Q 903 2953 641 2809 
L 641 3341 
Q 956 3463 1253 3523 
Q 1550 3584 1831 3584 
Q 2591 3584 2966 3190 
Q 3341 2797 3341 1997 
z
" transform="scale(0.015625)"/>
       <path id="DejaVuSans-6e" d="M 3513 2113 
L 3513 0 
L 2938 0 
L 2938 2094 
Q 2938 2591 2744 2837 
Q 2550 3084 2163 3084 
Q 1697 3084 1428 2787 
Q 1159 2491 1159 1978 
L 1159 0 
L 581 0 
L 581 3500 
L 1159 3500 
L 1159 2956 
Q 1366 3272 1645 3428 
Q 1925 3584 2291 3584 
Q 2894 3584 3203 3211 
Q 3513 2838 3513 2113 
z
" transform="scale(0.015625)"/>
       <path id="DejaVuSans-63" d="M 3122 3366 
L 3122 2828 
Q 2878 2963 2633 3030 
Q 2388 3097 2138 3097 
Q 1578 3097 1268 2742 
Q 959 2388 959 1747 
Q 959 1106 1268 751 
Q 1578 397 2138 397 
Q 2388 397 2633 464 
Q 2878 531 3122 666 
L 3122 134 
Q 2881 22 2623 -34 
Q 2366 -91 2075 -91 
Q 1284 -91 818 406 
Q 353 903 353 1747 
Q 353 2603 823 3093 
Q 1294 3584 2113 3584 
Q 2378 3584 2631 3529 
Q 2884 3475 3122 3366 
z
" transform="scale(0.015625)"/>
       <path id="DejaVuSans-65" d="M 3597 1894 
L 3597 1613 
L 953 1613 
Q 991 1019 1311 708 
Q 1631 397 2203 397 
Q 2534 397 2845 478 
Q 3156 559 3463 722 
L 3463 178 
Q 3153 47 2828 -22 
Q 2503 -91 2169 -91 
Q 1331 -91 842 396 
Q 353 884 353 1716 
Q 353 2575 817 3079 
Q 1281 3584 2069 3584 
Q 2775 3584 3186 3129 
Q 3597 2675 3597 1894 
z
M 3022 2063 
Q 3016 2534 2758 2815 
Q 2500 3097 2075 3097 
Q 1594 3097 1305 2825 
Q 1016 2553 972 2059 
L 3022 2063 
z
" transform="scale(0.015625)"/>
       <path id="DejaVuSans-20" transform="scale(0.015625)"/>
       <path id="DejaVuSans-66" d="M 2375 4863 
L 2375 4384 
L 1825 4384 
Q 1516 4384 1395 4259 
Q 1275 4134 1275 3809 
L 1275 3500 
L 2222 3500 
L 2222 3053 
L 1275 3053 
L 1275 0 
L 697 0 
L 697 3053 
L 147 3053 
L 147 3500 
L 697 3500 
L 697 3744 
Q 697 4328 969 4595 
Q 1241 4863 1831 4863 
L 2375 4863 
z
" transform="scale(0.015625)"/>
       <path id="DejaVuSans-72" d="M 2631 2963 
Q 2534 3019 2420 3045 
Q 2306 3072 2169 3072 
Q 1681 3072 1420 2755 
Q 1159 2438 1159 1844 
L 1159 0 
L 581 0 
L 581 3500 
L 1159 3500 
L 1159 2956 
Q 1341 3275 1631 3429 
Q 1922 3584 2338 3584 
Q 2397 3584 2469 3576 
Q 2541 3569 2628 3553 
L 2631 2963 
z
" transform="scale(0.015625)"/>
       <path id="DejaVuSans-6f" d="M 1959 3097 
Q 1497 3097 1228 2736 
Q 959 2375 959 1747 
Q 959 1119 1226 758 
Q 1494 397 1959 397 
Q 2419 397 2687 759 
Q 2956 1122 2956 1747 
Q 2956 2369 2687 2733 
Q 2419 3097 1959 3097 
z
M 1959 3584 
Q 2709 3584 3137 3096 
Q 3566 2609 3566 1747 
Q 3566 888 3137 398 
Q 2709 -91 1959 -91 
Q 1206 -91 779 398 
Q 353 888 353 1747 
Q 353 2609 779 3096 
Q 1206 3584 1959 3584 
z
" transform="scale(0.015625)"/>
       <path id="DejaVuSans-6d" d="M 3328 2828 
Q 3544 3216 3844 3400 
Q 4144 3584 4550 3584 
Q 5097 3584 5394 3201 
Q 5691 2819 5691 2113 
L 5691 0 
L 5113 0 
L 5113 2094 
Q 5113 2597 4934 2840 
Q 4756 3084 4391 3084 
Q 3944 3084 3684 2787 
Q 3425 2491 3425 1978 
L 3425 0 
L 2847 0 
L 2847 2094 
Q 2847 2600 2669 2842 
Q 2491 3084 2119 3084 
Q 1678 3084 1418 2786 
Q 1159 2488 1159 1978 
L 1159 0 
L 581 0 
L 581 3500 
L 1159 3500 
L 1159 2956 
Q 1356 3278 1631 3431 
Q 1906 3584 2284 3584 
Q 2666 3584 2933 3390 
Q 3200 3197 3328 2828 
z
" transform="scale(0.015625)"/>
       <path id="DejaVuSans-67" d="M 2906 1791 
Q 2906 2416 2648 2759 
Q 2391 3103 1925 3103 
Q 1463 3103 1205 2759 
Q 947 2416 947 1791 
Q 947 1169 1205 825 
Q 1463 481 1925 481 
Q 2391 481 2648 825 
Q 2906 1169 2906 1791 
z
M 3481 434 
Q 3481 -459 3084 -895 
Q 2688 -1331 1869 -1331 
Q 1566 -1331 1297 -1286 
Q 1028 -1241 775 -1147 
L 775 -588 
Q 1028 -725 1275 -790 
Q 1522 -856 1778 -856 
Q 2344 -856 2625 -561 
Q 2906 -266 2906 331 
L 2906 616 
Q 2728 306 2450 153 
Q 2172 0 1784 0 
Q 1141 0 747 490 
Q 353 981 353 1791 
Q 353 2603 747 3093 
Q 1141 3584 1784 3584 
Q 2172 3584 2450 3431 
Q 2728 3278 2906 2969 
L 2906 3500 
L 3481 3500 
L 3481 434 
z
" transform="scale(0.015625)"/>
       <path id="DejaVuSans-5b" d="M 550 4863 
L 1875 4863 
L 1875 4416 
L 1125 4416 
L 1125 -397 
L 1875 -397 
L 1875 -844 
L 550 -844 
L 550 4863 
z
" transform="scale(0.015625)"/>
       <path id="DejaVuSans-25" d="M 4653 2053 
Q 4381 2053 4226 1822 
Q 4072 1591 4072 1178 
Q 4072 772 4226 539 
Q 4381 306 4653 306 
Q 4919 306 5073 539 
Q 5228 772 5228 1178 
Q 5228 1588 5073 1820 
Q 4919 2053 4653 2053 
z
M 4653 2450 
Q 5147 2450 5437 2106 
Q 5728 1763 5728 1178 
Q 5728 594 5436 251 
Q 5144 -91 4653 -91 
Q 4153 -91 3862 251 
Q 3572 594 3572 1178 
Q 3572 1766 3864 2108 
Q 4156 2450 4653 2450 
z
M 1428 4353 
Q 1159 4353 1004 4120 
Q 850 3888 850 3481 
Q 850 3069 1003 2837 
Q 1156 2606 1428 2606 
Q 1700 2606 1854 2837 
Q 2009 3069 2009 3481 
Q 2009 3884 1853 4118 
Q 1697 4353 1428 4353 
z
M 4250 4750 
L 4750 4750 
L 1831 -91 
L 1331 -91 
L 4250 4750 
z
M 1428 4750 
Q 1922 4750 2215 4408 
Q 2509 4066 2509 3481 
Q 2509 2891 2217 2550 
Q 1925 2209 1428 2209 
Q 931 2209 642 2551 
Q 353 2894 353 3481 
Q 353 4063 643 4406 
Q 934 4750 1428 4750 
z
" transform="scale(0.015625)"/>
       <path id="DejaVuSans-78" d="M 3513 3500 
L 2247 1797 
L 3578 0 
L 2900 0 
L 1881 1375 
L 863 0 
L 184 0 
L 1544 1831 
L 300 3500 
L 978 3500 
L 1906 2253 
L 2834 3500 
L 3513 3500 
z
" transform="scale(0.015625)"/>
       <path id="DejaVuSans-5d" d="M 1947 4863 
L 1947 -844 
L 622 -844 
L 622 -397 
L 1369 -397 
L 1369 4416 
L 622 4416 
L 622 4863 
L 1947 4863 
z
" transform="scale(0.015625)"/>
      </defs>
      <use xlink:href="#DejaVuSans-44"/>
      <use xlink:href="#DejaVuSans-69" x="77.001953"/>
      <use xlink:href="#DejaVuSans-73" x="104.785156"/>
      <use xlink:href="#DejaVuSans-74" x="156.884766"/>
      <use xlink:href="#DejaVuSans-61" x="196.09375"/>
      <use xlink:href="#DejaVuSans-6e" x="257.373047"/>
      <use xlink:href="#DejaVuSans-63" x="320.751953"/>
      <use xlink:href="#DejaVuSans-65" x="375.732422"/>
      <use xlink:href="#DejaVuSans-20" x="437.255859"/>
      <use xlink:href="#DejaVuSans-66" x="469.042969"/>
      <use xlink:href="#DejaVuSans-72" x="504.248047"/>
      <use xlink:href="#DejaVuSans-6f" x="543.111328"/>
      <use xlink:href="#DejaVuSans-6d" x="604.292969"/>
      <use xlink:href="#DejaVuSans-20" x="701.705078"/>
      <use xlink:href="#DejaVuSans-74" x="733.492188"/>
      <use xlink:href="#DejaVuSans-61" x="772.701172"/>
      <use xlink:href="#DejaVuSans-72" x="833.980469"/>
      <use xlink:href="#DejaVuSans-67" x="873.34375"/>
      <use xlink:href="#DejaVuSans-65" x="936.820312"/>
      <use xlink:href="#DejaVuSans-74" x="998.34375"/>
      <use xlink:href="#DejaVuSans-20" x="1037.552734"/>
      <use xlink:href="#DejaVuSans-5b" x="1069.339844"/>
      <use xlink:href="#DejaVuSans-25" x="1108.353516"/>
      <use xlink:href="#DejaVuSans-20" x="1203.373047"/>
      <use xlink:href="#DejaVuSans-6f" x="1235.160156"/>
      <use xlink:href="#DejaVuSans-66" x="1296.341797"/>
      <use xlink:href="#DejaVuSans-20" x="1331.546875"/>
      <use xlink:href="#DejaVuSans-6d" x="1363.333984"/>
      <use xlink:href="#DejaVuSans-61" x="1460.746094"/>
      <use xlink:href="#DejaVuSans-78" x="1522.025391"/>
      <use xlink:href="#DejaVuSans-5d" x="1581.205078"/>
     </g>
    </g>
   </g>
   <g id="patch_3">
    <path d="M 35.93 273.24 
L 35.93 26.88 
" style="fill: none; stroke: #000000; stroke-width: 0.8; stroke-linejoin: miter; stroke-linecap: square"/>
   </g>
   <g id="patch_4">
    <path d="M 205.2 273.24 
L 205.2 26.88 
" style="fill: none; stroke: #000000; stroke-width: 0.8; stroke-linejoin: miter; stroke-linecap: square"/>
   </g>
   <g id="patch_5">
    <path d="M 35.93 273.24 
L 205.2 273.24 
" style="fill: none; stroke: #000000; stroke-width: 0.8; stroke-linejoin: miter; stroke-linecap: square"/>
   </g>
   <g id="patch_6">
    <path d="M 35.93 26.88 
L 205.2 26.88 
" style="fill: none; stroke: #000000; stroke-width: 0.8; stroke-linejoin: miter; stroke-linecap: square"/>
   </g>
   <g id="PathCollection_1">
    <defs>
     <path id="mf4c40b4beb" d="M 0 1.075 
C 0.285093 1.075 0.558548 0.961731 0.76014 0.76014 
C 0.961731 0.558548 1.075 0.285093 1.075 0 
C 1.075 -0.285093 0.961731 -0.558548 0.76014 -0.76014 
C 0.558548 -0.961731 0.285093 -1.075 0 -1.075 
C -0.285093 -1.075 -0.558548 -0.961731 -0.76014 -0.76014 
C -0.961731 -0.558548 -1.075 -0.285093 -1.075 0 
C -1.075 0.285093 -0.961731 0.558548 -0.76014 0.76014 
C -0.558548 0.961731 -0.285093 1.075 0 1.075 
z
"/>
    </defs>
    <g clip-path="url(#p11f2d2a562)">
     <use xlink:href="#mf4c40b4beb" x="120.565" y="259.041876" style="fill-opacity: 0.5"/>
     <use xlink:href="#mf4c40b4beb" x="132.698388" y="246.584499" style="fill-opacity: 0.5"/>
     <use xlink:href="#mf4c40b4beb" x="120.565" y="194.677269" style="fill-opacity: 0.5"/>
     <use xlink:href="#mf4c40b4beb" x="119.715462" y="237.637115" style="fill-opacity: 0.5"/>
     <use xlink:href="#mf4c40b4beb" x="116.08975" y="238.009804" style="fill-opacity: 0.5"/>
     <use xlink:href="#mf4c40b4beb" x="122.161483" y="234.240994" style="fill-opacity: 0.5"/>
     <use xlink:href="#mf4c40b4beb" x="119.1071" y="231.102173" style="fill-opacity: 0.5"/>
     <use xlink:href="#mf4c40b4beb" x="106.008175" y="242.977811" style="fill-opacity: 0.5"/>
     <use xlink:href="#mf4c40b4beb" x="112.325068" y="244.934323" style="fill-opacity: 0.5"/>
     <use xlink:href="#mf4c40b4beb" x="119.640362" y="252.192987" style="fill-opacity: 0.5"/>
     <use xlink:href="#mf4c40b4beb" x="126.795129" y="248.598618" style="fill-opacity: 0.5"/>
     <use xlink:href="#mf4c40b4beb" x="116.381085" y="243.000068" style="fill-opacity: 0.5"/>
     <use xlink:href="#mf4c40b4beb" x="124.28049" y="252.419405" style="fill-opacity: 0.5"/>
     <use xlink:href="#mf4c40b4beb" x="120.565" y="170.480935" style="fill-opacity: 0.5"/>
     <use xlink:href="#mf4c40b4beb" x="110.367043" y="237.444428" style="fill-opacity: 0.5"/>
     <use xlink:href="#mf4c40b4beb" x="120.565" y="241.860309" style="fill-opacity: 0.5"/>
     <use xlink:href="#mf4c40b4beb" x="121.473914" y="236.288846" style="fill-opacity: 0.5"/>
     <use xlink:href="#mf4c40b4beb" x="116.554051" y="257.305322" style="fill-opacity: 0.5"/>
     <use xlink:href="#mf4c40b4beb" x="115.216107" y="249.939426" style="fill-opacity: 0.5"/>
     <use xlink:href="#mf4c40b4beb" x="126.349233" y="256.359707" style="fill-opacity: 0.5"/>
     <use xlink:href="#mf4c40b4beb" x="129.009845" y="244.911034" style="fill-opacity: 0.5"/>
     <use xlink:href="#mf4c40b4beb" x="117.484764" y="247.165065" style="fill-opacity: 0.5"/>
     <use xlink:href="#mf4c40b4beb" x="125.453342" y="245.880058" style="fill-opacity: 0.5"/>
     <use xlink:href="#mf4c40b4beb" x="133.805367" y="252.830041" style="fill-opacity: 0.5"/>
     <use xlink:href="#mf4c40b4beb" x="122.142861" y="248.626387" style="fill-opacity: 0.5"/>
     <use xlink:href="#mf4c40b4beb" x="105.269202" y="251.274009" style="fill-opacity: 0.5"/>
     <use xlink:href="#mf4c40b4beb" x="117.911904" y="233.69805" style="fill-opacity: 0.5"/>
     <use xlink:href="#mf4c40b4beb" x="117.952649" y="239.224197" style="fill-opacity: 0.5"/>
     <use xlink:href="#mf4c40b4beb" x="117.668438" y="253.28482" style="fill-opacity: 0.5"/>
     <use xlink:href="#mf4c40b4beb" x="127.935632" y="253.990326" style="fill-opacity: 0.5"/>
     <use xlink:href="#mf4c40b4beb" x="113.659717" y="242.984231" style="fill-opacity: 0.5"/>
     <use xlink:href="#mf4c40b4beb" x="124.59874" y="242.385036" style="fill-opacity: 0.5"/>
     <use xlink:href="#mf4c40b4beb" x="110.713112" y="247.078909" style="fill-opacity: 0.5"/>
     <use xlink:href="#mf4c40b4beb" x="120.565" y="250.164021" style="fill-opacity: 0.5"/>
     <use xlink:href="#mf4c40b4beb" x="108.154307" y="243.644767" style="fill-opacity: 0.5"/>
     <use xlink:href="#mf4c40b4beb" x="128.604864" y="256.272233" style="fill-opacity: 0.5"/>
     <use xlink:href="#mf4c40b4beb" x="128.044854" y="250.644657" style="fill-opacity: 0.5"/>
     <use xlink:href="#mf4c40b4beb" x="118.379524" y="194.13852" style="fill-opacity: 0.5"/>
     <use xlink:href="#mf4c40b4beb" x="130.983142" y="243.866708" style="fill-opacity: 0.5"/>
     <use xlink:href="#mf4c40b4beb" x="120.565" y="204.673608" style="fill-opacity: 0.5"/>
     <use xlink:href="#mf4c40b4beb" x="111.402219" y="242.981507" style="fill-opacity: 0.5"/>
     <use xlink:href="#mf4c40b4beb" x="130.523935" y="255.139952" style="fill-opacity: 0.5"/>
     <use xlink:href="#mf4c40b4beb" x="128.647559" y="237.630811" style="fill-opacity: 0.5"/>
     <use xlink:href="#mf4c40b4beb" x="130.958824" y="250.797222" style="fill-opacity: 0.5"/>
     <use xlink:href="#mf4c40b4beb" x="118.551597" y="255.251102" style="fill-opacity: 0.5"/>
     <use xlink:href="#mf4c40b4beb" x="122.042825" y="252.691326" style="fill-opacity: 0.5"/>
     <use xlink:href="#mf4c40b4beb" x="114.151662" y="234.075833" style="fill-opacity: 0.5"/>
     <use xlink:href="#mf4c40b4beb" x="120.565" y="210.03092" style="fill-opacity: 0.5"/>
     <use xlink:href="#mf4c40b4beb" x="118.517278" y="222.73892" style="fill-opacity: 0.5"/>
     <use xlink:href="#mf4c40b4beb" x="131.590299" y="253.244936" style="fill-opacity: 0.5"/>
     <use xlink:href="#mf4c40b4beb" x="120.970686" y="244.219176" style="fill-opacity: 0.5"/>
     <use xlink:href="#mf4c40b4beb" x="125.689198" y="254.202942" style="fill-opacity: 0.5"/>
     <use xlink:href="#mf4c40b4beb" x="117.823242" y="250.94308" style="fill-opacity: 0.5"/>
     <use xlink:href="#mf4c40b4beb" x="115.818908" y="240.677511" style="fill-opacity: 0.5"/>
     <use xlink:href="#mf4c40b4beb" x="130.463263" y="246.886455" style="fill-opacity: 0.5"/>
     <use xlink:href="#mf4c40b4beb" x="118.703596" y="186.516775" style="fill-opacity: 0.5"/>
     <use xlink:href="#mf4c40b4beb" x="122.678334" y="258.285871" style="fill-opacity: 0.5"/>
     <use xlink:href="#mf4c40b4beb" x="108.151084" y="237.033872" style="fill-opacity: 0.5"/>
     <use xlink:href="#mf4c40b4beb" x="113.647223" y="251.564625" style="fill-opacity: 0.5"/>
     <use xlink:href="#mf4c40b4beb" x="137.166596" y="245.977014" style="fill-opacity: 0.5"/>
     <use xlink:href="#mf4c40b4beb" x="120.565" y="219.506078" style="fill-opacity: 0.5"/>
     <use xlink:href="#mf4c40b4beb" x="126.470956" y="252.185971" style="fill-opacity: 0.5"/>
     <use xlink:href="#mf4c40b4beb" x="111.903885" y="233.8765" style="fill-opacity: 0.5"/>
     <use xlink:href="#mf4c40b4beb" x="106.77281" y="249.289761" style="fill-opacity: 0.5"/>
     <use xlink:href="#mf4c40b4beb" x="130.854288" y="237.177399" style="fill-opacity: 0.5"/>
     <use xlink:href="#mf4c40b4beb" x="104.039255" y="246.045997" style="fill-opacity: 0.5"/>
     <use xlink:href="#mf4c40b4beb" x="125.075944" y="249.992063" style="fill-opacity: 0.5"/>
     <use xlink:href="#mf4c40b4beb" x="116.833772" y="245.106398" style="fill-opacity: 0.5"/>
     <use xlink:href="#mf4c40b4beb" x="120.565" y="201.45403" style="fill-opacity: 0.5"/>
     <use xlink:href="#mf4c40b4beb" x="116.115155" y="235.136787" style="fill-opacity: 0.5"/>
     <use xlink:href="#mf4c40b4beb" x="129.696589" y="233.334128" style="fill-opacity: 0.5"/>
     <use xlink:href="#mf4c40b4beb" x="114.53978" y="256.334538" style="fill-opacity: 0.5"/>
     <use xlink:href="#mf4c40b4beb" x="112.970519" y="247.098439" style="fill-opacity: 0.5"/>
     <use xlink:href="#mf4c40b4beb" x="124.144188" y="247.631616" style="fill-opacity: 0.5"/>
     <use xlink:href="#mf4c40b4beb" x="124.184621" y="226.819995" style="fill-opacity: 0.5"/>
     <use xlink:href="#mf4c40b4beb" x="120.13992" y="228.458063" style="fill-opacity: 0.5"/>
     <use xlink:href="#mf4c40b4beb" x="119.203185" y="245.556669" style="fill-opacity: 0.5"/>
     <use xlink:href="#mf4c40b4beb" x="109.285145" y="252.999369" style="fill-opacity: 0.5"/>
     <use xlink:href="#mf4c40b4beb" x="133.223919" y="243.605492" style="fill-opacity: 0.5"/>
     <use xlink:href="#mf4c40b4beb" x="115.227301" y="247.152638" style="fill-opacity: 0.5"/>
     <use xlink:href="#mf4c40b4beb" x="122.467708" y="222.486945" style="fill-opacity: 0.5"/>
     <use xlink:href="#mf4c40b4beb" x="121.937499" y="238.445124" style="fill-opacity: 0.5"/>
     <use xlink:href="#mf4c40b4beb" x="123.22414" y="244.090511" style="fill-opacity: 0.5"/>
     <use xlink:href="#mf4c40b4beb" x="120.438661" y="254.204073" style="fill-opacity: 0.5"/>
     <use xlink:href="#mf4c40b4beb" x="122.284387" y="246.412644" style="fill-opacity: 0.5"/>
     <use xlink:href="#mf4c40b4beb" x="120.565" y="223.644003" style="fill-opacity: 0.5"/>
     <use xlink:href="#mf4c40b4beb" x="114.492493" y="253.733672" style="fill-opacity: 0.5"/>
     <use xlink:href="#mf4c40b4beb" x="123.695147" y="235.968124" style="fill-opacity: 0.5"/>
     <use xlink:href="#mf4c40b4beb" x="118.456037" y="218.739082" style="fill-opacity: 0.5"/>
     <use xlink:href="#mf4c40b4beb" x="123.4428" y="254.415906" style="fill-opacity: 0.5"/>
     <use xlink:href="#mf4c40b4beb" x="127.264049" y="240.120068" style="fill-opacity: 0.5"/>
     <use xlink:href="#mf4c40b4beb" x="122.364413" y="228.091753" style="fill-opacity: 0.5"/>
     <use xlink:href="#mf4c40b4beb" x="132.593585" y="249.314483" style="fill-opacity: 0.5"/>
     <use xlink:href="#mf4c40b4beb" x="124.160726" y="238.071904" style="fill-opacity: 0.5"/>
     <use xlink:href="#mf4c40b4beb" x="120.898325" y="226.433021" style="fill-opacity: 0.5"/>
     <use xlink:href="#mf4c40b4beb" x="135.029617" y="242.315109" style="fill-opacity: 0.5"/>
     <use xlink:href="#mf4c40b4beb" x="133.083069" y="236.835546" style="fill-opacity: 0.5"/>
     <use xlink:href="#mf4c40b4beb" x="110.687298" y="251.313165" style="fill-opacity: 0.5"/>
     <use xlink:href="#mf4c40b4beb" x="129.05235" y="248.564817" style="fill-opacity: 0.5"/>
     <use xlink:href="#mf4c40b4beb" x="120.565" y="187.733246" style="fill-opacity: 0.5"/>
     <use xlink:href="#mf4c40b4beb" x="112.634777" y="255.180909" style="fill-opacity: 0.5"/>
     <use xlink:href="#mf4c40b4beb" x="118.911323" y="243.338376" style="fill-opacity: 0.5"/>
     <use xlink:href="#mf4c40b4beb" x="121.220312" y="230.345859" style="fill-opacity: 0.5"/>
     <use xlink:href="#mf4c40b4beb" x="125.354556" y="234.510431" style="fill-opacity: 0.5"/>
     <use xlink:href="#mf4c40b4beb" x="120.565" y="177.378899" style="fill-opacity: 0.5"/>
     <use xlink:href="#mf4c40b4beb" x="107.074112" y="252.565392" style="fill-opacity: 0.5"/>
     <use xlink:href="#mf4c40b4beb" x="111.51864" y="253.312071" style="fill-opacity: 0.5"/>
     <use xlink:href="#mf4c40b4beb" x="118.332804" y="204.352604" style="fill-opacity: 0.5"/>
     <use xlink:href="#mf4c40b4beb" x="129.422184" y="252.372268" style="fill-opacity: 0.5"/>
     <use xlink:href="#mf4c40b4beb" x="126.414287" y="237.944954" style="fill-opacity: 0.5"/>
     <use xlink:href="#mf4c40b4beb" x="123.057172" y="232.267462" style="fill-opacity: 0.5"/>
     <use xlink:href="#mf4c40b4beb" x="124.108657" y="256.622478" style="fill-opacity: 0.5"/>
     <use xlink:href="#mf4c40b4beb" x="118.714836" y="248.967867" style="fill-opacity: 0.5"/>
     <use xlink:href="#mf4c40b4beb" x="115.857792" y="252.000742" style="fill-opacity: 0.5"/>
     <use xlink:href="#mf4c40b4beb" x="121.816566" y="255.907126" style="fill-opacity: 0.5"/>
     <use xlink:href="#mf4c40b4beb" x="126.374527" y="243.9172" style="fill-opacity: 0.5"/>
     <use xlink:href="#mf4c40b4beb" x="110.073648" y="244.776632" style="fill-opacity: 0.5"/>
     <use xlink:href="#mf4c40b4beb" x="114.582533" y="244.946394" style="fill-opacity: 0.5"/>
     <use xlink:href="#mf4c40b4beb" x="120.142026" y="239.748384" style="fill-opacity: 0.5"/>
     <use xlink:href="#mf4c40b4beb" x="127.599248" y="246.589636" style="fill-opacity: 0.5"/>
     <use xlink:href="#mf4c40b4beb" x="127.536564" y="233.95908" style="fill-opacity: 0.5"/>
     <use xlink:href="#mf4c40b4beb" x="112.375036" y="249.788531" style="fill-opacity: 0.5"/>
     <use xlink:href="#mf4c40b4beb" x="127.920428" y="242.350398" style="fill-opacity: 0.5"/>
     <use xlink:href="#mf4c40b4beb" x="108.4841" y="246.738423" style="fill-opacity: 0.5"/>
     <use xlink:href="#mf4c40b4beb" x="135.925146" y="252.090584" style="fill-opacity: 0.5"/>
     <use xlink:href="#mf4c40b4beb" x="122.630507" y="240.992654" style="fill-opacity: 0.5"/>
     <use xlink:href="#mf4c40b4beb" x="117.947259" y="241.394285" style="fill-opacity: 0.5"/>
     <use xlink:href="#mf4c40b4beb" x="120.565" y="261.296065" style="fill-opacity: 0.5"/>
     <use xlink:href="#mf4c40b4beb" x="125.012148" y="240.271394" style="fill-opacity: 0.5"/>
     <use xlink:href="#mf4c40b4beb" x="120.299179" y="247.43629" style="fill-opacity: 0.5"/>
     <use xlink:href="#mf4c40b4beb" x="117.781999" y="236.586766" style="fill-opacity: 0.5"/>
     <use xlink:href="#mf4c40b4beb" x="123.458937" y="230.068415" style="fill-opacity: 0.5"/>
     <use xlink:href="#mf4c40b4beb" x="119.5275" y="235.199721" style="fill-opacity: 0.5"/>
     <use xlink:href="#mf4c40b4beb" x="118.549044" y="226.932642" style="fill-opacity: 0.5"/>
     <use xlink:href="#mf4c40b4beb" x="119.870153" y="256.996252" style="fill-opacity: 0.5"/>
     <use xlink:href="#mf4c40b4beb" x="101.91107" y="245.328773" style="fill-opacity: 0.5"/>
     <use xlink:href="#mf4c40b4beb" x="117.68876" y="229.429498" style="fill-opacity: 0.5"/>
     <use xlink:href="#mf4c40b4beb" x="108.553462" y="250.611337" style="fill-opacity: 0.5"/>
     <use xlink:href="#mf4c40b4beb" x="113.882624" y="239.572128" style="fill-opacity: 0.5"/>
     <use xlink:href="#mf4c40b4beb" x="122.953261" y="250.723924" style="fill-opacity: 0.5"/>
     <use xlink:href="#mf4c40b4beb" x="116.313443" y="255.004466" style="fill-opacity: 0.5"/>
     <use xlink:href="#mf4c40b4beb" x="118.355437" y="258.601159" style="fill-opacity: 0.5"/>
     <use xlink:href="#mf4c40b4beb" x="112.592007" y="237.808136" style="fill-opacity: 0.5"/>
     <use xlink:href="#mf4c40b4beb" x="106.236157" y="246.540802" style="fill-opacity: 0.5"/>
     <use xlink:href="#mf4c40b4beb" x="120.565" y="232.743706" style="fill-opacity: 0.5"/>
     <use xlink:href="#mf4c40b4beb" x="120.565" y="183.137775" style="fill-opacity: 0.5"/>
     <use xlink:href="#mf4c40b4beb" x="134.940697" y="246.335497" style="fill-opacity: 0.5"/>
    </g>
   </g>
   <g id="text_6">
    <!-- olm_performance -->
    <g transform="translate(67.955312 20.88) scale(0.12 -0.12)">
     <defs>
      <path id="DejaVuSans-6c" d="M 603 4863 
L 1178 4863 
L 1178 0 
L 603 0 
L 603 4863 
z
" transform="scale(0.015625)"/>
      <path id="DejaVuSans-5f" d="M 3263 -1063 
L 3263 -1509 
L -63 -1509 
L -63 -1063 
L 3263 -1063 
z
" transform="scale(0.015625)"/>
      <path id="DejaVuSans-70" d="M 1159 525 
L 1159 -1331 
L 581 -1331 
L 581 3500 
L 1159 3500 
L 1159 2969 
Q 1341 3281 1617 3432 
Q 1894 3584 2278 3584 
Q 2916 3584 3314 3078 
Q 3713 2572 3713 1747 
Q 3713 922 3314 415 
Q 2916 -91 2278 -91 
Q 1894 -91 1617 61 
Q 1341 213 1159 525 
z
M 3116 1747 
Q 3116 2381 2855 2742 
Q 2594 3103 2138 3103 
Q 1681 3103 1420 2742 
Q 1159 2381 1159 1747 
Q 1159 1113 1420 752 
Q 1681 391 2138 391 
Q 2594 391 2855 752 
Q 3116 1113 3116 1747 
z
" transform="scale(0.015625)"/>
     </defs>
     <use xlink:href="#DejaVuSans-6f"/>
     <use xlink:href="#DejaVuSans-6c" x="61.181641"/>
     <use xlink:href="#DejaVuSans-6d" x="88.964844"/>
     <use xlink:href="#DejaVuSans-5f" x="186.376953"/>
     <use xlink:href="#DejaVuSans-70" x="236.376953"/>
     <use xlink:href="#DejaVuSans-65" x="299.853516"/>
     <use xlink:href="#DejaVuSans-72" x="361.376953"/>
     <use xlink:href="#DejaVuSans-66" x="402.490234"/>
     <use xlink:href="#DejaVuSans-6f" x="437.695312"/>
     <use xlink:href="#DejaVuSans-72" x="498.876953"/>
     <use xlink:href="#DejaVuSans-6d" x="538.240234"/>
     <use xlink:href="#DejaVuSans-61" x="635.652344"/>
     <use xlink:href="#DejaVuSans-6e" x="696.931641"/>
     <use xlink:href="#DejaVuSans-63" x="760.310547"/>
     <use xlink:href="#DejaVuSans-65" x="815.291016"/>
    </g>
   </g>
  </g>
 </g>
 <defs>
  <clipPath id="p11f2d2a562">
   <rect x="35.93" y="26.88" width="169.27" height="246.36"/>
  </clipPath>
 </defs>
</svg>
