<?xml version="1.0" encoding="utf-8" standalone="no"?>
<!DOCTYPE svg PUBLIC "-//W3C//DTD SVG 1.1//EN"
  "http://www.w3.org/Graphics/SVG/1.1/DTD/svg11.dtd">
<svg xmlns:xlink="http://www.w3.org/1999/xlink" width="180pt" height="288pt" viewBox="0 0 180 288" xmlns="http://www.w3.org/2000/svg" version="1.1">
 <metadata>
  <rdf:RDF xmlns:dc="http://purl.org/dc/elements/1.1/" xmlns:cc="http://creativecommons.org/ns#" xmlns:rdf="http://www.w3.org/1999/02/22-rdf-syntax-ns#">
   <cc:Work>
    <dc:type rdf:resource="http://purl.org/dc/dcmitype/StillImage"/>
    <dc:date>2025-06-10T15:49:55.393921</dc:date>
    <dc:format>image/svg+xml</dc:format>
    <dc:creator>
     <cc:Agent>
      <dc:title>Matplotlib v3.7.5, https://matplotlib.org/</dc:title>
     </cc:Agent>
    </dc:creator>
   </cc:Work>
  </rdf:RDF>
 </metadata>
 <defs>
  <style type="text/css">*{stroke-linejoin: round; stroke-linecap: butt}</style>
 </defs>
 <g id="figure_1">
  <g id="patch_1">
   <path d="M 0 288 
L 180 288 
L 180 0 
L 0 0 
z
" style="fill: #ffffff"/>
  </g>
  <g id="axes_1">
   <g id="patch_2">
    <path d="M 56 246.04 
L 169.2 246.04 
L 169.2 26.88 
L 56 26.88 
z
" style="fill: #ffffff"/>
   </g>
   <g id="PathCollection_1">
    <defs>
     <path id="m3c4b5c9b89" d="M 0 1.936492 
C 0.513564 1.936492 1.006162 1.732451 1.369306 1.369306 
C 1.732451 1.006162 1.936492 0.513564 1.936492 0 
C 1.936492 -0.513564 1.732451 -1.006162 1.369306 -1.369306 
C 1.006162 -1.732451 0.513564 -1.936492 0 -1.936492 
C -0.513564 -1.936492 -1.006162 -1.732451 -1.369306 -1.369306 
C -1.732451 -1.006162 -1.936492 -0.513564 -1.936492 0 
C -1.936492 0.513564 -1.732451 1.006162 -1.369306 1.369306 
C -1.006162 1.732451 -0.513564 1.936492 0 1.936492 
z
" style="stroke: #de5d5c; stroke-opacity: 0.25"/>
    </defs>
    <g clip-path="url(#pbe49f02aa0)">
     <use xlink:href="#m3c4b5c9b89" x="71.786989" y="73.557204" style="fill: #de5d5c; fill-opacity: 0.25; stroke: #de5d5c; stroke-opacity: 0.25"/>
     <use xlink:href="#m3c4b5c9b89" x="74.226906" y="78.695697" style="fill: #de5d5c; fill-opacity: 0.25; stroke: #de5d5c; stroke-opacity: 0.25"/>
     <use xlink:href="#m3c4b5c9b89" x="68.705414" y="75.422054" style="fill: #de5d5c; fill-opacity: 0.25; stroke: #de5d5c; stroke-opacity: 0.25"/>
     <use xlink:href="#m3c4b5c9b89" x="71.999276" y="78.427722" style="fill: #de5d5c; fill-opacity: 0.25; stroke: #de5d5c; stroke-opacity: 0.25"/>
     <use xlink:href="#m3c4b5c9b89" x="75.836418" y="60.735289" style="fill: #de5d5c; fill-opacity: 0.25; stroke: #de5d5c; stroke-opacity: 0.25"/>
     <use xlink:href="#m3c4b5c9b89" x="68.74891" y="67.064884" style="fill: #de5d5c; fill-opacity: 0.25; stroke: #de5d5c; stroke-opacity: 0.25"/>
     <use xlink:href="#m3c4b5c9b89" x="68.137736" y="63.876175" style="fill: #de5d5c; fill-opacity: 0.25; stroke: #de5d5c; stroke-opacity: 0.25"/>
     <use xlink:href="#m3c4b5c9b89" x="73.443138" y="66.921823" style="fill: #de5d5c; fill-opacity: 0.25; stroke: #de5d5c; stroke-opacity: 0.25"/>
     <use xlink:href="#m3c4b5c9b89" x="76.671846" y="74.064523" style="fill: #de5d5c; fill-opacity: 0.25; stroke: #de5d5c; stroke-opacity: 0.25"/>
     <use xlink:href="#m3c4b5c9b89" x="72.219146" y="82.124101" style="fill: #de5d5c; fill-opacity: 0.25; stroke: #de5d5c; stroke-opacity: 0.25"/>
     <use xlink:href="#m3c4b5c9b89" x="73.682622" y="79.304304" style="fill: #de5d5c; fill-opacity: 0.25; stroke: #de5d5c; stroke-opacity: 0.25"/>
     <use xlink:href="#m3c4b5c9b89" x="75.376873" y="60.664486" style="fill: #de5d5c; fill-opacity: 0.25; stroke: #de5d5c; stroke-opacity: 0.25"/>
     <use xlink:href="#m3c4b5c9b89" x="73.513099" y="103.32295" style="fill: #de5d5c; fill-opacity: 0.25; stroke: #de5d5c; stroke-opacity: 0.25"/>
     <use xlink:href="#m3c4b5c9b89" x="73.684544" y="72.908278" style="fill: #de5d5c; fill-opacity: 0.25; stroke: #de5d5c; stroke-opacity: 0.25"/>
     <use xlink:href="#m3c4b5c9b89" x="76.198679" y="63.229014" style="fill: #de5d5c; fill-opacity: 0.25; stroke: #de5d5c; stroke-opacity: 0.25"/>
     <use xlink:href="#m3c4b5c9b89" x="72.327954" y="81.037295" style="fill: #de5d5c; fill-opacity: 0.25; stroke: #de5d5c; stroke-opacity: 0.25"/>
     <use xlink:href="#m3c4b5c9b89" x="74.357719" y="58.188571" style="fill: #de5d5c; fill-opacity: 0.25; stroke: #de5d5c; stroke-opacity: 0.25"/>
     <use xlink:href="#m3c4b5c9b89" x="73.973477" y="88.071003" style="fill: #de5d5c; fill-opacity: 0.25; stroke: #de5d5c; stroke-opacity: 0.25"/>
     <use xlink:href="#m3c4b5c9b89" x="75.540617" y="66.178466" style="fill: #de5d5c; fill-opacity: 0.25; stroke: #de5d5c; stroke-opacity: 0.25"/>
     <use xlink:href="#m3c4b5c9b89" x="74.373865" y="83.286006" style="fill: #de5d5c; fill-opacity: 0.25; stroke: #de5d5c; stroke-opacity: 0.25"/>
     <use xlink:href="#m3c4b5c9b89" x="71.099158" y="73.760189" style="fill: #de5d5c; fill-opacity: 0.25; stroke: #de5d5c; stroke-opacity: 0.25"/>
     <use xlink:href="#m3c4b5c9b89" x="75.262293" y="62.068504" style="fill: #de5d5c; fill-opacity: 0.25; stroke: #de5d5c; stroke-opacity: 0.25"/>
     <use xlink:href="#m3c4b5c9b89" x="72.926613" y="81.074316" style="fill: #de5d5c; fill-opacity: 0.25; stroke: #de5d5c; stroke-opacity: 0.25"/>
     <use xlink:href="#m3c4b5c9b89" x="76.941013" y="69.252966" style="fill: #de5d5c; fill-opacity: 0.25; stroke: #de5d5c; stroke-opacity: 0.25"/>
     <use xlink:href="#m3c4b5c9b89" x="74.009416" y="60.69147" style="fill: #de5d5c; fill-opacity: 0.25; stroke: #de5d5c; stroke-opacity: 0.25"/>
     <use xlink:href="#m3c4b5c9b89" x="71.803436" y="59.251886" style="fill: #de5d5c; fill-opacity: 0.25; stroke: #de5d5c; stroke-opacity: 0.25"/>
     <use xlink:href="#m3c4b5c9b89" x="67.32" y="65.019861" style="fill: #de5d5c; fill-opacity: 0.25; stroke: #de5d5c; stroke-opacity: 0.25"/>
     <use xlink:href="#m3c4b5c9b89" x="71.111574" y="62.933185" style="fill: #de5d5c; fill-opacity: 0.25; stroke: #de5d5c; stroke-opacity: 0.25"/>
     <use xlink:href="#m3c4b5c9b89" x="77.695775" y="73.452872" style="fill: #de5d5c; fill-opacity: 0.25; stroke: #de5d5c; stroke-opacity: 0.25"/>
     <use xlink:href="#m3c4b5c9b89" x="78.580719" y="73.230531" style="fill: #de5d5c; fill-opacity: 0.25; stroke: #de5d5c; stroke-opacity: 0.25"/>
     <use xlink:href="#m3c4b5c9b89" x="73.513225" y="68.427388" style="fill: #de5d5c; fill-opacity: 0.25; stroke: #de5d5c; stroke-opacity: 0.25"/>
     <use xlink:href="#m3c4b5c9b89" x="72.280889" y="63.055494" style="fill: #de5d5c; fill-opacity: 0.25; stroke: #de5d5c; stroke-opacity: 0.25"/>
     <use xlink:href="#m3c4b5c9b89" x="79.676203" y="65.54693" style="fill: #de5d5c; fill-opacity: 0.25; stroke: #de5d5c; stroke-opacity: 0.25"/>
     <use xlink:href="#m3c4b5c9b89" x="73.059849" y="85.141111" style="fill: #de5d5c; fill-opacity: 0.25; stroke: #de5d5c; stroke-opacity: 0.25"/>
     <use xlink:href="#m3c4b5c9b89" x="75.642024" y="71.592249" style="fill: #de5d5c; fill-opacity: 0.25; stroke: #de5d5c; stroke-opacity: 0.25"/>
     <use xlink:href="#m3c4b5c9b89" x="78.384242" y="70.083316" style="fill: #de5d5c; fill-opacity: 0.25; stroke: #de5d5c; stroke-opacity: 0.25"/>
     <use xlink:href="#m3c4b5c9b89" x="73.539539" y="67.423228" style="fill: #de5d5c; fill-opacity: 0.25; stroke: #de5d5c; stroke-opacity: 0.25"/>
     <use xlink:href="#m3c4b5c9b89" x="72.44342" y="60.36086" style="fill: #de5d5c; fill-opacity: 0.25; stroke: #de5d5c; stroke-opacity: 0.25"/>
     <use xlink:href="#m3c4b5c9b89" x="74.846683" y="76.903962" style="fill: #de5d5c; fill-opacity: 0.25; stroke: #de5d5c; stroke-opacity: 0.25"/>
     <use xlink:href="#m3c4b5c9b89" x="73.621659" y="81.053048" style="fill: #de5d5c; fill-opacity: 0.25; stroke: #de5d5c; stroke-opacity: 0.25"/>
     <use xlink:href="#m3c4b5c9b89" x="76.518363" y="67.753966" style="fill: #de5d5c; fill-opacity: 0.25; stroke: #de5d5c; stroke-opacity: 0.25"/>
     <use xlink:href="#m3c4b5c9b89" x="76.968037" y="69.714334" style="fill: #de5d5c; fill-opacity: 0.25; stroke: #de5d5c; stroke-opacity: 0.25"/>
     <use xlink:href="#m3c4b5c9b89" x="72.247967" y="66.290171" style="fill: #de5d5c; fill-opacity: 0.25; stroke: #de5d5c; stroke-opacity: 0.25"/>
     <use xlink:href="#m3c4b5c9b89" x="72.272426" y="65.850598" style="fill: #de5d5c; fill-opacity: 0.25; stroke: #de5d5c; stroke-opacity: 0.25"/>
     <use xlink:href="#m3c4b5c9b89" x="72.849805" y="60.050052" style="fill: #de5d5c; fill-opacity: 0.25; stroke: #de5d5c; stroke-opacity: 0.25"/>
     <use xlink:href="#m3c4b5c9b89" x="69.042393" y="68.732089" style="fill: #de5d5c; fill-opacity: 0.25; stroke: #de5d5c; stroke-opacity: 0.25"/>
     <use xlink:href="#m3c4b5c9b89" x="71.249172" y="79.11365" style="fill: #de5d5c; fill-opacity: 0.25; stroke: #de5d5c; stroke-opacity: 0.25"/>
     <use xlink:href="#m3c4b5c9b89" x="75.001269" y="58.63497" style="fill: #de5d5c; fill-opacity: 0.25; stroke: #de5d5c; stroke-opacity: 0.25"/>
     <use xlink:href="#m3c4b5c9b89" x="74.241134" y="63.203795" style="fill: #de5d5c; fill-opacity: 0.25; stroke: #de5d5c; stroke-opacity: 0.25"/>
     <use xlink:href="#m3c4b5c9b89" x="76.681703" y="70.195664" style="fill: #de5d5c; fill-opacity: 0.25; stroke: #de5d5c; stroke-opacity: 0.25"/>
     <use xlink:href="#m3c4b5c9b89" x="74.066249" y="65.642582" style="fill: #de5d5c; fill-opacity: 0.25; stroke: #de5d5c; stroke-opacity: 0.25"/>
     <use xlink:href="#m3c4b5c9b89" x="73.765717" y="106.514792" style="fill: #de5d5c; fill-opacity: 0.25; stroke: #de5d5c; stroke-opacity: 0.25"/>
     <use xlink:href="#m3c4b5c9b89" x="74.362184" y="86.998932" style="fill: #de5d5c; fill-opacity: 0.25; stroke: #de5d5c; stroke-opacity: 0.25"/>
     <use xlink:href="#m3c4b5c9b89" x="76.091962" y="69.327297" style="fill: #de5d5c; fill-opacity: 0.25; stroke: #de5d5c; stroke-opacity: 0.25"/>
     <use xlink:href="#m3c4b5c9b89" x="76.003404" y="67.648331" style="fill: #de5d5c; fill-opacity: 0.25; stroke: #de5d5c; stroke-opacity: 0.25"/>
    </g>
   </g>
   <g id="PathCollection_2">
    <defs>
     <path id="mabd7995162" d="M 0 1.936492 
C 0.513564 1.936492 1.006162 1.732451 1.369306 1.369306 
C 1.732451 1.006162 1.936492 0.513564 1.936492 0 
C 1.936492 -0.513564 1.732451 -1.006162 1.369306 -1.369306 
C 1.006162 -1.732451 0.513564 -1.936492 0 -1.936492 
C -0.513564 -1.936492 -1.006162 -1.732451 -1.369306 -1.369306 
C -1.732451 -1.006162 -1.936492 -0.513564 -1.936492 0 
C -1.936492 0.513564 -1.732451 1.006162 -1.369306 1.369306 
C -1.006162 1.732451 -0.513564 1.936492 0 1.936492 
z
" style="stroke: #9a3670; stroke-opacity: 0.25"/>
    </defs>
    <g clip-path="url(#pbe49f02aa0)">
     <use xlink:href="#mabd7995162" x="151.53984" y="79.815052" style="fill: #9a3670; fill-opacity: 0.25; stroke: #9a3670; stroke-opacity: 0.25"/>
     <use xlink:href="#mabd7995162" x="149.056277" y="63.423963" style="fill: #9a3670; fill-opacity: 0.25; stroke: #9a3670; stroke-opacity: 0.25"/>
     <use xlink:href="#mabd7995162" x="153.501737" y="63.208876" style="fill: #9a3670; fill-opacity: 0.25; stroke: #9a3670; stroke-opacity: 0.25"/>
     <use xlink:href="#mabd7995162" x="153.365111" y="63.453685" style="fill: #9a3670; fill-opacity: 0.25; stroke: #9a3670; stroke-opacity: 0.25"/>
     <use xlink:href="#mabd7995162" x="148.356344" y="66.854004" style="fill: #9a3670; fill-opacity: 0.25; stroke: #9a3670; stroke-opacity: 0.25"/>
     <use xlink:href="#mabd7995162" x="150.378065" y="71.097007" style="fill: #9a3670; fill-opacity: 0.25; stroke: #9a3670; stroke-opacity: 0.25"/>
     <use xlink:href="#mabd7995162" x="151.748504" y="60.812339" style="fill: #9a3670; fill-opacity: 0.25; stroke: #9a3670; stroke-opacity: 0.25"/>
     <use xlink:href="#mabd7995162" x="150.841906" y="64.667659" style="fill: #9a3670; fill-opacity: 0.25; stroke: #9a3670; stroke-opacity: 0.25"/>
     <use xlink:href="#mabd7995162" x="152.097139" y="70.372073" style="fill: #9a3670; fill-opacity: 0.25; stroke: #9a3670; stroke-opacity: 0.25"/>
     <use xlink:href="#mabd7995162" x="151.302929" y="63.025023" style="fill: #9a3670; fill-opacity: 0.25; stroke: #9a3670; stroke-opacity: 0.25"/>
     <use xlink:href="#mabd7995162" x="150.31583" y="69.165506" style="fill: #9a3670; fill-opacity: 0.25; stroke: #9a3670; stroke-opacity: 0.25"/>
     <use xlink:href="#mabd7995162" x="152.674582" y="59.952606" style="fill: #9a3670; fill-opacity: 0.25; stroke: #9a3670; stroke-opacity: 0.25"/>
     <use xlink:href="#mabd7995162" x="146.257361" y="63.614326" style="fill: #9a3670; fill-opacity: 0.25; stroke: #9a3670; stroke-opacity: 0.25"/>
     <use xlink:href="#mabd7995162" x="148.761348" y="65.574871" style="fill: #9a3670; fill-opacity: 0.25; stroke: #9a3670; stroke-opacity: 0.25"/>
     <use xlink:href="#mabd7995162" x="153.531408" y="64.485757" style="fill: #9a3670; fill-opacity: 0.25; stroke: #9a3670; stroke-opacity: 0.25"/>
     <use xlink:href="#mabd7995162" x="151.44182" y="76.064472" style="fill: #9a3670; fill-opacity: 0.25; stroke: #9a3670; stroke-opacity: 0.25"/>
     <use xlink:href="#mabd7995162" x="151.208891" y="73.818371" style="fill: #9a3670; fill-opacity: 0.25; stroke: #9a3670; stroke-opacity: 0.25"/>
     <use xlink:href="#mabd7995162" x="150.327049" y="71.894933" style="fill: #9a3670; fill-opacity: 0.25; stroke: #9a3670; stroke-opacity: 0.25"/>
     <use xlink:href="#mabd7995162" x="151.07249" y="77.999594" style="fill: #9a3670; fill-opacity: 0.25; stroke: #9a3670; stroke-opacity: 0.25"/>
     <use xlink:href="#mabd7995162" x="152.363795" y="63.275925" style="fill: #9a3670; fill-opacity: 0.25; stroke: #9a3670; stroke-opacity: 0.25"/>
     <use xlink:href="#mabd7995162" x="151.138191" y="65.993207" style="fill: #9a3670; fill-opacity: 0.25; stroke: #9a3670; stroke-opacity: 0.25"/>
     <use xlink:href="#mabd7995162" x="151.521747" y="69.579192" style="fill: #9a3670; fill-opacity: 0.25; stroke: #9a3670; stroke-opacity: 0.25"/>
     <use xlink:href="#mabd7995162" x="153.482913" y="62.383096" style="fill: #9a3670; fill-opacity: 0.25; stroke: #9a3670; stroke-opacity: 0.25"/>
     <use xlink:href="#mabd7995162" x="145.376445" y="61.850511" style="fill: #9a3670; fill-opacity: 0.25; stroke: #9a3670; stroke-opacity: 0.25"/>
     <use xlink:href="#mabd7995162" x="153.295373" y="62.43544" style="fill: #9a3670; fill-opacity: 0.25; stroke: #9a3670; stroke-opacity: 0.25"/>
     <use xlink:href="#mabd7995162" x="149.406852" y="72.806925" style="fill: #9a3670; fill-opacity: 0.25; stroke: #9a3670; stroke-opacity: 0.25"/>
     <use xlink:href="#mabd7995162" x="152.684681" y="59.491503" style="fill: #9a3670; fill-opacity: 0.25; stroke: #9a3670; stroke-opacity: 0.25"/>
     <use xlink:href="#mabd7995162" x="151.516726" y="78.518044" style="fill: #9a3670; fill-opacity: 0.25; stroke: #9a3670; stroke-opacity: 0.25"/>
     <use xlink:href="#mabd7995162" x="157.88" y="62.838524" style="fill: #9a3670; fill-opacity: 0.25; stroke: #9a3670; stroke-opacity: 0.25"/>
     <use xlink:href="#mabd7995162" x="148.968607" y="66.279995" style="fill: #9a3670; fill-opacity: 0.25; stroke: #9a3670; stroke-opacity: 0.25"/>
     <use xlink:href="#mabd7995162" x="157.116777" y="63.025523" style="fill: #9a3670; fill-opacity: 0.25; stroke: #9a3670; stroke-opacity: 0.25"/>
     <use xlink:href="#mabd7995162" x="151.378701" y="65.669447" style="fill: #9a3670; fill-opacity: 0.25; stroke: #9a3670; stroke-opacity: 0.25"/>
     <use xlink:href="#mabd7995162" x="150.417057" y="58.357521" style="fill: #9a3670; fill-opacity: 0.25; stroke: #9a3670; stroke-opacity: 0.25"/>
     <use xlink:href="#mabd7995162" x="148.844692" y="66.209045" style="fill: #9a3670; fill-opacity: 0.25; stroke: #9a3670; stroke-opacity: 0.25"/>
     <use xlink:href="#mabd7995162" x="156.212359" y="64.697978" style="fill: #9a3670; fill-opacity: 0.25; stroke: #9a3670; stroke-opacity: 0.25"/>
     <use xlink:href="#mabd7995162" x="153.256823" y="70.042838" style="fill: #9a3670; fill-opacity: 0.25; stroke: #9a3670; stroke-opacity: 0.25"/>
     <use xlink:href="#mabd7995162" x="147.857108" y="60.29924" style="fill: #9a3670; fill-opacity: 0.25; stroke: #9a3670; stroke-opacity: 0.25"/>
     <use xlink:href="#mabd7995162" x="152.266384" y="59.653367" style="fill: #9a3670; fill-opacity: 0.25; stroke: #9a3670; stroke-opacity: 0.25"/>
     <use xlink:href="#mabd7995162" x="154.990601" y="62.963266" style="fill: #9a3670; fill-opacity: 0.25; stroke: #9a3670; stroke-opacity: 0.25"/>
     <use xlink:href="#mabd7995162" x="146.076026" y="62.224508" style="fill: #9a3670; fill-opacity: 0.25; stroke: #9a3670; stroke-opacity: 0.25"/>
     <use xlink:href="#mabd7995162" x="154.487565" y="63.130616" style="fill: #9a3670; fill-opacity: 0.25; stroke: #9a3670; stroke-opacity: 0.25"/>
     <use xlink:href="#mabd7995162" x="151.072741" y="74.287366" style="fill: #9a3670; fill-opacity: 0.25; stroke: #9a3670; stroke-opacity: 0.25"/>
     <use xlink:href="#mabd7995162" x="149.889755" y="64.587902" style="fill: #9a3670; fill-opacity: 0.25; stroke: #9a3670; stroke-opacity: 0.25"/>
     <use xlink:href="#mabd7995162" x="154.92225" y="62.034884" style="fill: #9a3670; fill-opacity: 0.25; stroke: #9a3670; stroke-opacity: 0.25"/>
     <use xlink:href="#mabd7995162" x="148.87288" y="62.69501" style="fill: #9a3670; fill-opacity: 0.25; stroke: #9a3670; stroke-opacity: 0.25"/>
     <use xlink:href="#mabd7995162" x="152.333787" y="61.14066" style="fill: #9a3670; fill-opacity: 0.25; stroke: #9a3670; stroke-opacity: 0.25"/>
     <use xlink:href="#mabd7995162" x="154.268119" y="59.826254" style="fill: #9a3670; fill-opacity: 0.25; stroke: #9a3670; stroke-opacity: 0.25"/>
     <use xlink:href="#mabd7995162" x="148.002628" y="62.07256" style="fill: #9a3670; fill-opacity: 0.25; stroke: #9a3670; stroke-opacity: 0.25"/>
     <use xlink:href="#mabd7995162" x="152.531426" y="67.030155" style="fill: #9a3670; fill-opacity: 0.25; stroke: #9a3670; stroke-opacity: 0.25"/>
     <use xlink:href="#mabd7995162" x="149.754366" y="71.292269" style="fill: #9a3670; fill-opacity: 0.25; stroke: #9a3670; stroke-opacity: 0.25"/>
     <use xlink:href="#mabd7995162" x="151.838896" y="62.071385" style="fill: #9a3670; fill-opacity: 0.25; stroke: #9a3670; stroke-opacity: 0.25"/>
     <use xlink:href="#mabd7995162" x="150.705274" y="70.791844" style="fill: #9a3670; fill-opacity: 0.25; stroke: #9a3670; stroke-opacity: 0.25"/>
     <use xlink:href="#mabd7995162" x="151.995817" y="60.122697" style="fill: #9a3670; fill-opacity: 0.25; stroke: #9a3670; stroke-opacity: 0.25"/>
     <use xlink:href="#mabd7995162" x="150.921406" y="70.707134" style="fill: #9a3670; fill-opacity: 0.25; stroke: #9a3670; stroke-opacity: 0.25"/>
    </g>
   </g>
   <g id="matplotlib.axis_1">
    <g id="xtick_1">
     <g id="line2d_1">
      <defs>
       <path id="mce59b1d1a3" d="M 0 0 
L 0 3.5 
" style="stroke: #000000; stroke-width: 0.8"/>
      </defs>
      <g>
       <use xlink:href="#mce59b1d1a3" x="96.428571" y="246.04" style="stroke: #000000; stroke-width: 0.8"/>
      </g>
     </g>
     <g id="text_1">
      <!-- Lower -->
      <g transform="translate(81.449665 260.638438) scale(0.1 -0.1)">
       <defs>
        <path id="DejaVuSans-4c" d="M 628 4666 
L 1259 4666 
L 1259 531 
L 3531 531 
L 3531 0 
L 628 0 
L 628 4666 
z
" transform="scale(0.015625)"/>
        <path id="DejaVuSans-6f" d="M 1959 3097 
Q 1497 3097 1228 2736 
Q 959 2375 959 1747 
Q 959 1119 1226 758 
Q 1494 397 1959 397 
Q 2419 397 2687 759 
Q 2956 1122 2956 1747 
Q 2956 2369 2687 2733 
Q 2419 3097 1959 3097 
z
M 1959 3584 
Q 2709 3584 3137 3096 
Q 3566 2609 3566 1747 
Q 3566 888 3137 398 
Q 2709 -91 1959 -91 
Q 1206 -91 779 398 
Q 353 888 353 1747 
Q 353 2609 779 3096 
Q 1206 3584 1959 3584 
z
" transform="scale(0.015625)"/>
        <path id="DejaVuSans-77" d="M 269 3500 
L 844 3500 
L 1563 769 
L 2278 3500 
L 2956 3500 
L 3675 769 
L 4391 3500 
L 4966 3500 
L 4050 0 
L 3372 0 
L 2619 2869 
L 1863 0 
L 1184 0 
L 269 3500 
z
" transform="scale(0.015625)"/>
        <path id="DejaVuSans-65" d="M 3597 1894 
L 3597 1613 
L 953 1613 
Q 991 1019 1311 708 
Q 1631 397 2203 397 
Q 2534 397 2845 478 
Q 3156 559 3463 722 
L 3463 178 
Q 3153 47 2828 -22 
Q 2503 -91 2169 -91 
Q 1331 -91 842 396 
Q 353 884 353 1716 
Q 353 2575 817 3079 
Q 1281 3584 2069 3584 
Q 2775 3584 3186 3129 
Q 3597 2675 3597 1894 
z
M 3022 2063 
Q 3016 2534 2758 2815 
Q 2500 3097 2075 3097 
Q 1594 3097 1305 2825 
Q 1016 2553 972 2059 
L 3022 2063 
z
" transform="scale(0.015625)"/>
        <path id="DejaVuSans-72" d="M 2631 2963 
Q 2534 3019 2420 3045 
Q 2306 3072 2169 3072 
Q 1681 3072 1420 2755 
Q 1159 2438 1159 1844 
L 1159 0 
L 581 0 
L 581 3500 
L 1159 3500 
L 1159 2956 
Q 1341 3275 1631 3429 
Q 1922 3584 2338 3584 
Q 2397 3584 2469 3576 
Q 2541 3569 2628 3553 
L 2631 2963 
z
" transform="scale(0.015625)"/>
       </defs>
       <use xlink:href="#DejaVuSans-4c"/>
       <use xlink:href="#DejaVuSans-6f" x="53.962891"/>
       <use xlink:href="#DejaVuSans-77" x="115.144531"/>
       <use xlink:href="#DejaVuSans-65" x="196.931641"/>
       <use xlink:href="#DejaVuSans-72" x="258.455078"/>
      </g>
     </g>
    </g>
    <g id="xtick_2">
     <g id="line2d_2">
      <g>
       <use xlink:href="#mce59b1d1a3" x="128.771429" y="246.04" style="stroke: #000000; stroke-width: 0.8"/>
      </g>
     </g>
     <g id="text_2">
      <!-- Higher -->
      <g transform="translate(112.14721 260.638438) scale(0.1 -0.1)">
       <defs>
        <path id="DejaVuSans-48" d="M 628 4666 
L 1259 4666 
L 1259 2753 
L 3553 2753 
L 3553 4666 
L 4184 4666 
L 4184 0 
L 3553 0 
L 3553 2222 
L 1259 2222 
L 1259 0 
L 628 0 
L 628 4666 
z
" transform="scale(0.015625)"/>
        <path id="DejaVuSans-69" d="M 603 3500 
L 1178 3500 
L 1178 0 
L 603 0 
L 603 3500 
z
M 603 4863 
L 1178 4863 
L 1178 4134 
L 603 4134 
L 603 4863 
z
" transform="scale(0.015625)"/>
        <path id="DejaVuSans-67" d="M 2906 1791 
Q 2906 2416 2648 2759 
Q 2391 3103 1925 3103 
Q 1463 3103 1205 2759 
Q 947 2416 947 1791 
Q 947 1169 1205 825 
Q 1463 481 1925 481 
Q 2391 481 2648 825 
Q 2906 1169 2906 1791 
z
M 3481 434 
Q 3481 -459 3084 -895 
Q 2688 -1331 1869 -1331 
Q 1566 -1331 1297 -1286 
Q 1028 -1241 775 -1147 
L 775 -588 
Q 1028 -725 1275 -790 
Q 1522 -856 1778 -856 
Q 2344 -856 2625 -561 
Q 2906 -266 2906 331 
L 2906 616 
Q 2728 306 2450 153 
Q 2172 0 1784 0 
Q 1141 0 747 490 
Q 353 981 353 1791 
Q 353 2603 747 3093 
Q 1141 3584 1784 3584 
Q 2172 3584 2450 3431 
Q 2728 3278 2906 2969 
L 2906 3500 
L 3481 3500 
L 3481 434 
z
" transform="scale(0.015625)"/>
        <path id="DejaVuSans-68" d="M 3513 2113 
L 3513 0 
L 2938 0 
L 2938 2094 
Q 2938 2591 2744 2837 
Q 2550 3084 2163 3084 
Q 1697 3084 1428 2787 
Q 1159 2491 1159 1978 
L 1159 0 
L 581 0 
L 581 4863 
L 1159 4863 
L 1159 2956 
Q 1366 3272 1645 3428 
Q 1925 3584 2291 3584 
Q 2894 3584 3203 3211 
Q 3513 2838 3513 2113 
z
" transform="scale(0.015625)"/>
       </defs>
       <use xlink:href="#DejaVuSans-48"/>
       <use xlink:href="#DejaVuSans-69" x="75.195312"/>
       <use xlink:href="#DejaVuSans-67" x="102.978516"/>
       <use xlink:href="#DejaVuSans-68" x="166.455078"/>
       <use xlink:href="#DejaVuSans-65" x="229.833984"/>
       <use xlink:href="#DejaVuSans-72" x="291.357422"/>
      </g>
     </g>
    </g>
    <g id="text_3">
     <!-- gf -->
     <g transform="translate(107.665625 274.316562) scale(0.1 -0.1)">
      <defs>
       <path id="DejaVuSans-66" d="M 2375 4863 
L 2375 4384 
L 1825 4384 
Q 1516 4384 1395 4259 
Q 1275 4134 1275 3809 
L 1275 3500 
L 2222 3500 
L 2222 3053 
L 1275 3053 
L 1275 0 
L 697 0 
L 697 3053 
L 147 3053 
L 147 3500 
L 697 3500 
L 697 3744 
Q 697 4328 969 4595 
Q 1241 4863 1831 4863 
L 2375 4863 
z
" transform="scale(0.015625)"/>
      </defs>
      <use xlink:href="#DejaVuSans-67"/>
      <use xlink:href="#DejaVuSans-66" x="63.476562"/>
     </g>
    </g>
   </g>
   <g id="matplotlib.axis_2">
    <g id="ytick_1">
     <g id="line2d_3">
      <defs>
       <path id="m2ef7332c73" d="M 0 0 
L -3.5 0 
" style="stroke: #000000; stroke-width: 0.8"/>
      </defs>
      <g>
       <use xlink:href="#m2ef7332c73" x="56" y="233.516571" style="stroke: #000000; stroke-width: 0.8"/>
      </g>
     </g>
     <g id="text_4">
      <!-- −0.4 -->
      <g transform="translate(24.717187 237.31579) scale(0.1 -0.1)">
       <defs>
        <path id="DejaVuSans-2212" d="M 678 2272 
L 4684 2272 
L 4684 1741 
L 678 1741 
L 678 2272 
z
" transform="scale(0.015625)"/>
        <path id="DejaVuSans-30" d="M 2034 4250 
Q 1547 4250 1301 3770 
Q 1056 3291 1056 2328 
Q 1056 1369 1301 889 
Q 1547 409 2034 409 
Q 2525 409 2770 889 
Q 3016 1369 3016 2328 
Q 3016 3291 2770 3770 
Q 2525 4250 2034 4250 
z
M 2034 4750 
Q 2819 4750 3233 4129 
Q 3647 3509 3647 2328 
Q 3647 1150 3233 529 
Q 2819 -91 2034 -91 
Q 1250 -91 836 529 
Q 422 1150 422 2328 
Q 422 3509 836 4129 
Q 1250 4750 2034 4750 
z
" transform="scale(0.015625)"/>
        <path id="DejaVuSans-2e" d="M 684 794 
L 1344 794 
L 1344 0 
L 684 0 
L 684 794 
z
" transform="scale(0.015625)"/>
        <path id="DejaVuSans-34" d="M 2419 4116 
L 825 1625 
L 2419 1625 
L 2419 4116 
z
M 2253 4666 
L 3047 4666 
L 3047 1625 
L 3713 1625 
L 3713 1100 
L 3047 1100 
L 3047 0 
L 2419 0 
L 2419 1100 
L 313 1100 
L 313 1709 
L 2253 4666 
z
" transform="scale(0.015625)"/>
       </defs>
       <use xlink:href="#DejaVuSans-2212"/>
       <use xlink:href="#DejaVuSans-30" x="83.789062"/>
       <use xlink:href="#DejaVuSans-2e" x="147.412109"/>
       <use xlink:href="#DejaVuSans-34" x="179.199219"/>
      </g>
     </g>
    </g>
    <g id="ytick_2">
     <g id="line2d_4">
      <g>
       <use xlink:href="#m2ef7332c73" x="56" y="208.469714" style="stroke: #000000; stroke-width: 0.8"/>
      </g>
     </g>
     <g id="text_5">
      <!-- −0.2 -->
      <g transform="translate(24.717187 212.268933) scale(0.1 -0.1)">
       <defs>
        <path id="DejaVuSans-32" d="M 1228 531 
L 3431 531 
L 3431 0 
L 469 0 
L 469 531 
Q 828 903 1448 1529 
Q 2069 2156 2228 2338 
Q 2531 2678 2651 2914 
Q 2772 3150 2772 3378 
Q 2772 3750 2511 3984 
Q 2250 4219 1831 4219 
Q 1534 4219 1204 4116 
Q 875 4013 500 3803 
L 500 4441 
Q 881 4594 1212 4672 
Q 1544 4750 1819 4750 
Q 2544 4750 2975 4387 
Q 3406 4025 3406 3419 
Q 3406 3131 3298 2873 
Q 3191 2616 2906 2266 
Q 2828 2175 2409 1742 
Q 1991 1309 1228 531 
z
" transform="scale(0.015625)"/>
       </defs>
       <use xlink:href="#DejaVuSans-2212"/>
       <use xlink:href="#DejaVuSans-30" x="83.789062"/>
       <use xlink:href="#DejaVuSans-2e" x="147.412109"/>
       <use xlink:href="#DejaVuSans-32" x="179.199219"/>
      </g>
     </g>
    </g>
    <g id="ytick_3">
     <g id="line2d_5">
      <g>
       <use xlink:href="#m2ef7332c73" x="56" y="183.422857" style="stroke: #000000; stroke-width: 0.8"/>
      </g>
     </g>
     <g id="text_6">
      <!-- 0.0 -->
      <g transform="translate(33.096875 187.222076) scale(0.1 -0.1)">
       <use xlink:href="#DejaVuSans-30"/>
       <use xlink:href="#DejaVuSans-2e" x="63.623047"/>
       <use xlink:href="#DejaVuSans-30" x="95.410156"/>
      </g>
     </g>
    </g>
    <g id="ytick_4">
     <g id="line2d_6">
      <g>
       <use xlink:href="#m2ef7332c73" x="56" y="158.376" style="stroke: #000000; stroke-width: 0.8"/>
      </g>
     </g>
     <g id="text_7">
      <!-- 0.2 -->
      <g transform="translate(33.096875 162.175219) scale(0.1 -0.1)">
       <use xlink:href="#DejaVuSans-30"/>
       <use xlink:href="#DejaVuSans-2e" x="63.623047"/>
       <use xlink:href="#DejaVuSans-32" x="95.410156"/>
      </g>
     </g>
    </g>
    <g id="ytick_5">
     <g id="line2d_7">
      <g>
       <use xlink:href="#m2ef7332c73" x="56" y="133.329143" style="stroke: #000000; stroke-width: 0.8"/>
      </g>
     </g>
     <g id="text_8">
      <!-- 0.4 -->
      <g transform="translate(33.096875 137.128362) scale(0.1 -0.1)">
       <use xlink:href="#DejaVuSans-30"/>
       <use xlink:href="#DejaVuSans-2e" x="63.623047"/>
       <use xlink:href="#DejaVuSans-34" x="95.410156"/>
      </g>
     </g>
    </g>
    <g id="ytick_6">
     <g id="line2d_8">
      <g>
       <use xlink:href="#m2ef7332c73" x="56" y="108.282286" style="stroke: #000000; stroke-width: 0.8"/>
      </g>
     </g>
     <g id="text_9">
      <!-- 0.6 -->
      <g transform="translate(33.096875 112.081504) scale(0.1 -0.1)">
       <defs>
        <path id="DejaVuSans-36" d="M 2113 2584 
Q 1688 2584 1439 2293 
Q 1191 2003 1191 1497 
Q 1191 994 1439 701 
Q 1688 409 2113 409 
Q 2538 409 2786 701 
Q 3034 994 3034 1497 
Q 3034 2003 2786 2293 
Q 2538 2584 2113 2584 
z
M 3366 4563 
L 3366 3988 
Q 3128 4100 2886 4159 
Q 2644 4219 2406 4219 
Q 1781 4219 1451 3797 
Q 1122 3375 1075 2522 
Q 1259 2794 1537 2939 
Q 1816 3084 2150 3084 
Q 2853 3084 3261 2657 
Q 3669 2231 3669 1497 
Q 3669 778 3244 343 
Q 2819 -91 2113 -91 
Q 1303 -91 875 529 
Q 447 1150 447 2328 
Q 447 3434 972 4092 
Q 1497 4750 2381 4750 
Q 2619 4750 2861 4703 
Q 3103 4656 3366 4563 
z
" transform="scale(0.015625)"/>
       </defs>
       <use xlink:href="#DejaVuSans-30"/>
       <use xlink:href="#DejaVuSans-2e" x="63.623047"/>
       <use xlink:href="#DejaVuSans-36" x="95.410156"/>
      </g>
     </g>
    </g>
    <g id="ytick_7">
     <g id="line2d_9">
      <g>
       <use xlink:href="#m2ef7332c73" x="56" y="83.235429" style="stroke: #000000; stroke-width: 0.8"/>
      </g>
     </g>
     <g id="text_10">
      <!-- 0.8 -->
      <g transform="translate(33.096875 87.034647) scale(0.1 -0.1)">
       <defs>
        <path id="DejaVuSans-38" d="M 2034 2216 
Q 1584 2216 1326 1975 
Q 1069 1734 1069 1313 
Q 1069 891 1326 650 
Q 1584 409 2034 409 
Q 2484 409 2743 651 
Q 3003 894 3003 1313 
Q 3003 1734 2745 1975 
Q 2488 2216 2034 2216 
z
M 1403 2484 
Q 997 2584 770 2862 
Q 544 3141 544 3541 
Q 544 4100 942 4425 
Q 1341 4750 2034 4750 
Q 2731 4750 3128 4425 
Q 3525 4100 3525 3541 
Q 3525 3141 3298 2862 
Q 3072 2584 2669 2484 
Q 3125 2378 3379 2068 
Q 3634 1759 3634 1313 
Q 3634 634 3220 271 
Q 2806 -91 2034 -91 
Q 1263 -91 848 271 
Q 434 634 434 1313 
Q 434 1759 690 2068 
Q 947 2378 1403 2484 
z
M 1172 3481 
Q 1172 3119 1398 2916 
Q 1625 2713 2034 2713 
Q 2441 2713 2670 2916 
Q 2900 3119 2900 3481 
Q 2900 3844 2670 4047 
Q 2441 4250 2034 4250 
Q 1625 4250 1398 4047 
Q 1172 3844 1172 3481 
z
" transform="scale(0.015625)"/>
       </defs>
       <use xlink:href="#DejaVuSans-30"/>
       <use xlink:href="#DejaVuSans-2e" x="63.623047"/>
       <use xlink:href="#DejaVuSans-38" x="95.410156"/>
      </g>
     </g>
    </g>
    <g id="ytick_8">
     <g id="line2d_10">
      <g>
       <use xlink:href="#m2ef7332c73" x="56" y="58.188571" style="stroke: #000000; stroke-width: 0.8"/>
      </g>
     </g>
     <g id="text_11">
      <!-- 1.0 -->
      <g transform="translate(33.096875 61.98779) scale(0.1 -0.1)">
       <defs>
        <path id="DejaVuSans-31" d="M 794 531 
L 1825 531 
L 1825 4091 
L 703 3866 
L 703 4441 
L 1819 4666 
L 2450 4666 
L 2450 531 
L 3481 531 
L 3481 0 
L 794 0 
L 794 531 
z
" transform="scale(0.015625)"/>
       </defs>
       <use xlink:href="#DejaVuSans-31"/>
       <use xlink:href="#DejaVuSans-2e" x="63.623047"/>
       <use xlink:href="#DejaVuSans-30" x="95.410156"/>
      </g>
     </g>
    </g>
    <g id="ytick_9">
     <g id="line2d_11">
      <g>
       <use xlink:href="#m2ef7332c73" x="56" y="33.141714" style="stroke: #000000; stroke-width: 0.8"/>
      </g>
     </g>
     <g id="text_12">
      <!-- 1.2 -->
      <g transform="translate(33.096875 36.940933) scale(0.1 -0.1)">
       <use xlink:href="#DejaVuSans-31"/>
       <use xlink:href="#DejaVuSans-2e" x="63.623047"/>
       <use xlink:href="#DejaVuSans-32" x="95.410156"/>
      </g>
     </g>
    </g>
    <g id="text_13">
     <!-- 2D-ness -->
     <g transform="translate(18.6375 156.749844) rotate(-90) scale(0.1 -0.1)">
      <defs>
       <path id="DejaVuSans-44" d="M 1259 4147 
L 1259 519 
L 2022 519 
Q 2988 519 3436 956 
Q 3884 1394 3884 2338 
Q 3884 3275 3436 3711 
Q 2988 4147 2022 4147 
L 1259 4147 
z
M 628 4666 
L 1925 4666 
Q 3281 4666 3915 4102 
Q 4550 3538 4550 2338 
Q 4550 1131 3912 565 
Q 3275 0 1925 0 
L 628 0 
L 628 4666 
z
" transform="scale(0.015625)"/>
       <path id="DejaVuSans-2d" d="M 313 2009 
L 1997 2009 
L 1997 1497 
L 313 1497 
L 313 2009 
z
" transform="scale(0.015625)"/>
       <path id="DejaVuSans-6e" d="M 3513 2113 
L 3513 0 
L 2938 0 
L 2938 2094 
Q 2938 2591 2744 2837 
Q 2550 3084 2163 3084 
Q 1697 3084 1428 2787 
Q 1159 2491 1159 1978 
L 1159 0 
L 581 0 
L 581 3500 
L 1159 3500 
L 1159 2956 
Q 1366 3272 1645 3428 
Q 1925 3584 2291 3584 
Q 2894 3584 3203 3211 
Q 3513 2838 3513 2113 
z
" transform="scale(0.015625)"/>
       <path id="DejaVuSans-73" d="M 2834 3397 
L 2834 2853 
Q 2591 2978 2328 3040 
Q 2066 3103 1784 3103 
Q 1356 3103 1142 2972 
Q 928 2841 928 2578 
Q 928 2378 1081 2264 
Q 1234 2150 1697 2047 
L 1894 2003 
Q 2506 1872 2764 1633 
Q 3022 1394 3022 966 
Q 3022 478 2636 193 
Q 2250 -91 1575 -91 
Q 1294 -91 989 -36 
Q 684 19 347 128 
L 347 722 
Q 666 556 975 473 
Q 1284 391 1588 391 
Q 1994 391 2212 530 
Q 2431 669 2431 922 
Q 2431 1156 2273 1281 
Q 2116 1406 1581 1522 
L 1381 1569 
Q 847 1681 609 1914 
Q 372 2147 372 2553 
Q 372 3047 722 3315 
Q 1072 3584 1716 3584 
Q 2034 3584 2315 3537 
Q 2597 3491 2834 3397 
z
" transform="scale(0.015625)"/>
      </defs>
      <use xlink:href="#DejaVuSans-32"/>
      <use xlink:href="#DejaVuSans-44" x="63.623047"/>
      <use xlink:href="#DejaVuSans-2d" x="140.625"/>
      <use xlink:href="#DejaVuSans-6e" x="176.708984"/>
      <use xlink:href="#DejaVuSans-65" x="240.087891"/>
      <use xlink:href="#DejaVuSans-73" x="301.611328"/>
      <use xlink:href="#DejaVuSans-73" x="353.710938"/>
     </g>
    </g>
   </g>
   <g id="patch_3">
    <path d="M 89.96 77.665842 
L 102.897143 77.665842 
L 102.897143 72.051163 
L 99.662857 69.252966 
L 102.897143 66.45477 
L 102.897143 64.448018 
L 89.96 64.448018 
L 89.96 66.45477 
L 93.194286 69.252966 
L 89.96 72.051163 
L 89.96 77.665842 
z
" clip-path="url(#pbe49f02aa0)" style="fill: #ce6d6c; stroke: #3e3e3e; stroke-linejoin: miter"/>
   </g>
   <g id="line2d_12">
    <path d="M 96.428571 77.665842 
L 96.428571 88.071003 
" clip-path="url(#pbe49f02aa0)" style="fill: none; stroke: #3e3e3e"/>
   </g>
   <g id="line2d_13">
    <path d="M 96.428571 64.448018 
L 96.428571 58.188571 
" clip-path="url(#pbe49f02aa0)" style="fill: none; stroke: #3e3e3e"/>
   </g>
   <g id="line2d_14">
    <path d="M 93.194286 88.071003 
L 99.662857 88.071003 
" clip-path="url(#pbe49f02aa0)" style="fill: none; stroke: #3e3e3e; stroke-linecap: square"/>
   </g>
   <g id="line2d_15">
    <path d="M 93.194286 58.188571 
L 99.662857 58.188571 
" clip-path="url(#pbe49f02aa0)" style="fill: none; stroke: #3e3e3e; stroke-linecap: square"/>
   </g>
   <g id="line2d_16">
    <defs>
     <path id="m9309eb1256" d="M 0 3 
C 0.795609 3 1.55874 2.683901 2.12132 2.12132 
C 2.683901 1.55874 3 0.795609 3 0 
C 3 -0.795609 2.683901 -1.55874 2.12132 -2.12132 
C 1.55874 -2.683901 0.795609 -3 0 -3 
C -0.795609 -3 -1.55874 -2.683901 -2.12132 -2.12132 
C -2.683901 -1.55874 -3 -0.795609 -3 0 
C -3 0.795609 -2.683901 1.55874 -2.12132 2.12132 
C -1.55874 2.683901 -0.795609 3 0 3 
z
" style="stroke: #3e3e3e"/>
    </defs>
    <g clip-path="url(#pbe49f02aa0)">
     <use xlink:href="#m9309eb1256" x="96.428571" y="103.32295" style="fill-opacity: 0; stroke: #3e3e3e"/>
     <use xlink:href="#m9309eb1256" x="96.428571" y="106.514792" style="fill-opacity: 0; stroke: #3e3e3e"/>
    </g>
   </g>
   <g id="patch_4">
    <path d="M 122.302857 69.926926 
L 135.24 69.926926 
L 135.24 65.687192 
L 132.005714 64.050042 
L 135.24 62.412891 
L 135.24 62.264155 
L 122.302857 62.264155 
L 122.302857 62.412891 
L 125.537143 64.050042 
L 122.302857 65.687192 
L 122.302857 69.926926 
z
" clip-path="url(#pbe49f02aa0)" style="fill: #8d426e; stroke: #3e3e3e; stroke-linejoin: miter"/>
   </g>
   <g id="line2d_17">
    <path d="M 128.771429 69.926926 
L 128.771429 79.815052 
" clip-path="url(#pbe49f02aa0)" style="fill: none; stroke: #3e3e3e"/>
   </g>
   <g id="line2d_18">
    <path d="M 128.771429 62.264155 
L 128.771429 58.357521 
" clip-path="url(#pbe49f02aa0)" style="fill: none; stroke: #3e3e3e"/>
   </g>
   <g id="line2d_19">
    <path d="M 125.537143 79.815052 
L 132.005714 79.815052 
" clip-path="url(#pbe49f02aa0)" style="fill: none; stroke: #3e3e3e; stroke-linecap: square"/>
   </g>
   <g id="line2d_20">
    <path d="M 125.537143 58.357521 
L 132.005714 58.357521 
" clip-path="url(#pbe49f02aa0)" style="fill: none; stroke: #3e3e3e; stroke-linecap: square"/>
   </g>
   <g id="line2d_21"/>
   <g id="line2d_22">
    <path d="M 93.194286 69.252966 
L 99.662857 69.252966 
" clip-path="url(#pbe49f02aa0)" style="fill: none; stroke: #3e3e3e"/>
   </g>
   <g id="line2d_23">
    <path d="M 125.537143 64.050042 
L 132.005714 64.050042 
" clip-path="url(#pbe49f02aa0)" style="fill: none; stroke: #3e3e3e"/>
   </g>
   <g id="patch_5">
    <path d="M 56 246.04 
L 56 26.88 
" style="fill: none; stroke: #000000; stroke-width: 0.8; stroke-linejoin: miter; stroke-linecap: square"/>
   </g>
   <g id="patch_6">
    <path d="M 169.2 246.04 
L 169.2 26.88 
" style="fill: none; stroke: #000000; stroke-width: 0.8; stroke-linejoin: miter; stroke-linecap: square"/>
   </g>
   <g id="patch_7">
    <path d="M 56 246.04 
L 169.2 246.04 
" style="fill: none; stroke: #000000; stroke-width: 0.8; stroke-linejoin: miter; stroke-linecap: square"/>
   </g>
   <g id="patch_8">
    <path d="M 56 26.88 
L 169.2 26.88 
" style="fill: none; stroke: #000000; stroke-width: 0.8; stroke-linejoin: miter; stroke-linecap: square"/>
   </g>
   <g id="text_14">
    <!-- 2D-ness of Behavioural Representations -->
    <g transform="translate(-7.732812 20.88) scale(0.12 -0.12)">
     <defs>
      <path id="DejaVuSans-20" transform="scale(0.015625)"/>
      <path id="DejaVuSans-42" d="M 1259 2228 
L 1259 519 
L 2272 519 
Q 2781 519 3026 730 
Q 3272 941 3272 1375 
Q 3272 1813 3026 2020 
Q 2781 2228 2272 2228 
L 1259 2228 
z
M 1259 4147 
L 1259 2741 
L 2194 2741 
Q 2656 2741 2882 2914 
Q 3109 3088 3109 3444 
Q 3109 3797 2882 3972 
Q 2656 4147 2194 4147 
L 1259 4147 
z
M 628 4666 
L 2241 4666 
Q 2963 4666 3353 4366 
Q 3744 4066 3744 3513 
Q 3744 3084 3544 2831 
Q 3344 2578 2956 2516 
Q 3422 2416 3680 2098 
Q 3938 1781 3938 1306 
Q 3938 681 3513 340 
Q 3088 0 2303 0 
L 628 0 
L 628 4666 
z
" transform="scale(0.015625)"/>
      <path id="DejaVuSans-61" d="M 2194 1759 
Q 1497 1759 1228 1600 
Q 959 1441 959 1056 
Q 959 750 1161 570 
Q 1363 391 1709 391 
Q 2188 391 2477 730 
Q 2766 1069 2766 1631 
L 2766 1759 
L 2194 1759 
z
M 3341 1997 
L 3341 0 
L 2766 0 
L 2766 531 
Q 2569 213 2275 61 
Q 1981 -91 1556 -91 
Q 1019 -91 701 211 
Q 384 513 384 1019 
Q 384 1609 779 1909 
Q 1175 2209 1959 2209 
L 2766 2209 
L 2766 2266 
Q 2766 2663 2505 2880 
Q 2244 3097 1772 3097 
Q 1472 3097 1187 3025 
Q 903 2953 641 2809 
L 641 3341 
Q 956 3463 1253 3523 
Q 1550 3584 1831 3584 
Q 2591 3584 2966 3190 
Q 3341 2797 3341 1997 
z
" transform="scale(0.015625)"/>
      <path id="DejaVuSans-76" d="M 191 3500 
L 800 3500 
L 1894 563 
L 2988 3500 
L 3597 3500 
L 2284 0 
L 1503 0 
L 191 3500 
z
" transform="scale(0.015625)"/>
      <path id="DejaVuSans-75" d="M 544 1381 
L 544 3500 
L 1119 3500 
L 1119 1403 
Q 1119 906 1312 657 
Q 1506 409 1894 409 
Q 2359 409 2629 706 
Q 2900 1003 2900 1516 
L 2900 3500 
L 3475 3500 
L 3475 0 
L 2900 0 
L 2900 538 
Q 2691 219 2414 64 
Q 2138 -91 1772 -91 
Q 1169 -91 856 284 
Q 544 659 544 1381 
z
M 1991 3584 
L 1991 3584 
z
" transform="scale(0.015625)"/>
      <path id="DejaVuSans-6c" d="M 603 4863 
L 1178 4863 
L 1178 0 
L 603 0 
L 603 4863 
z
" transform="scale(0.015625)"/>
      <path id="DejaVuSans-52" d="M 2841 2188 
Q 3044 2119 3236 1894 
Q 3428 1669 3622 1275 
L 4263 0 
L 3584 0 
L 2988 1197 
Q 2756 1666 2539 1819 
Q 2322 1972 1947 1972 
L 1259 1972 
L 1259 0 
L 628 0 
L 628 4666 
L 2053 4666 
Q 2853 4666 3247 4331 
Q 3641 3997 3641 3322 
Q 3641 2881 3436 2590 
Q 3231 2300 2841 2188 
z
M 1259 4147 
L 1259 2491 
L 2053 2491 
Q 2509 2491 2742 2702 
Q 2975 2913 2975 3322 
Q 2975 3731 2742 3939 
Q 2509 4147 2053 4147 
L 1259 4147 
z
" transform="scale(0.015625)"/>
      <path id="DejaVuSans-70" d="M 1159 525 
L 1159 -1331 
L 581 -1331 
L 581 3500 
L 1159 3500 
L 1159 2969 
Q 1341 3281 1617 3432 
Q 1894 3584 2278 3584 
Q 2916 3584 3314 3078 
Q 3713 2572 3713 1747 
Q 3713 922 3314 415 
Q 2916 -91 2278 -91 
Q 1894 -91 1617 61 
Q 1341 213 1159 525 
z
M 3116 1747 
Q 3116 2381 2855 2742 
Q 2594 3103 2138 3103 
Q 1681 3103 1420 2742 
Q 1159 2381 1159 1747 
Q 1159 1113 1420 752 
Q 1681 391 2138 391 
Q 2594 391 2855 752 
Q 3116 1113 3116 1747 
z
" transform="scale(0.015625)"/>
      <path id="DejaVuSans-74" d="M 1172 4494 
L 1172 3500 
L 2356 3500 
L 2356 3053 
L 1172 3053 
L 1172 1153 
Q 1172 725 1289 603 
Q 1406 481 1766 481 
L 2356 481 
L 2356 0 
L 1766 0 
Q 1100 0 847 248 
Q 594 497 594 1153 
L 594 3053 
L 172 3053 
L 172 3500 
L 594 3500 
L 594 4494 
L 1172 4494 
z
" transform="scale(0.015625)"/>
     </defs>
     <use xlink:href="#DejaVuSans-32"/>
     <use xlink:href="#DejaVuSans-44" x="63.623047"/>
     <use xlink:href="#DejaVuSans-2d" x="140.625"/>
     <use xlink:href="#DejaVuSans-6e" x="176.708984"/>
     <use xlink:href="#DejaVuSans-65" x="240.087891"/>
     <use xlink:href="#DejaVuSans-73" x="301.611328"/>
     <use xlink:href="#DejaVuSans-73" x="353.710938"/>
     <use xlink:href="#DejaVuSans-20" x="405.810547"/>
     <use xlink:href="#DejaVuSans-6f" x="437.597656"/>
     <use xlink:href="#DejaVuSans-66" x="498.779297"/>
     <use xlink:href="#DejaVuSans-20" x="533.984375"/>
     <use xlink:href="#DejaVuSans-42" x="565.771484"/>
     <use xlink:href="#DejaVuSans-65" x="634.375"/>
     <use xlink:href="#DejaVuSans-68" x="695.898438"/>
     <use xlink:href="#DejaVuSans-61" x="759.277344"/>
     <use xlink:href="#DejaVuSans-76" x="820.556641"/>
     <use xlink:href="#DejaVuSans-69" x="879.736328"/>
     <use xlink:href="#DejaVuSans-6f" x="907.519531"/>
     <use xlink:href="#DejaVuSans-75" x="968.701172"/>
     <use xlink:href="#DejaVuSans-72" x="1032.080078"/>
     <use xlink:href="#DejaVuSans-61" x="1073.193359"/>
     <use xlink:href="#DejaVuSans-6c" x="1134.472656"/>
     <use xlink:href="#DejaVuSans-20" x="1162.255859"/>
     <use xlink:href="#DejaVuSans-52" x="1194.042969"/>
     <use xlink:href="#DejaVuSans-65" x="1259.025391"/>
     <use xlink:href="#DejaVuSans-70" x="1320.548828"/>
     <use xlink:href="#DejaVuSans-72" x="1384.025391"/>
     <use xlink:href="#DejaVuSans-65" x="1422.888672"/>
     <use xlink:href="#DejaVuSans-73" x="1484.412109"/>
     <use xlink:href="#DejaVuSans-65" x="1536.511719"/>
     <use xlink:href="#DejaVuSans-6e" x="1598.035156"/>
     <use xlink:href="#DejaVuSans-74" x="1661.414062"/>
     <use xlink:href="#DejaVuSans-61" x="1700.623047"/>
     <use xlink:href="#DejaVuSans-74" x="1761.902344"/>
     <use xlink:href="#DejaVuSans-69" x="1801.111328"/>
     <use xlink:href="#DejaVuSans-6f" x="1828.894531"/>
     <use xlink:href="#DejaVuSans-6e" x="1890.076172"/>
     <use xlink:href="#DejaVuSans-73" x="1953.455078"/>
    </g>
   </g>
  </g>
 </g>
 <defs>
  <clipPath id="pbe49f02aa0">
   <rect x="56" y="26.88" width="113.2" height="219.16"/>
  </clipPath>
 </defs>
</svg>
