<?xml version="1.0" encoding="utf-8" standalone="no"?>
<!DOCTYPE svg PUBLIC "-//W3C//DTD SVG 1.1//EN"
  "http://www.w3.org/Graphics/SVG/1.1/DTD/svg11.dtd">
<svg xmlns:xlink="http://www.w3.org/1999/xlink" width="171.526562pt" height="278.491875pt" viewBox="0 0 171.526562 278.491875" xmlns="http://www.w3.org/2000/svg" version="1.1">
 <metadata>
  <rdf:RDF xmlns:dc="http://purl.org/dc/elements/1.1/" xmlns:cc="http://creativecommons.org/ns#" xmlns:rdf="http://www.w3.org/1999/02/22-rdf-syntax-ns#">
   <cc:Work>
    <dc:type rdf:resource="http://purl.org/dc/dcmitype/StillImage"/>
    <dc:date>2025-06-10T15:41:04.133839</dc:date>
    <dc:format>image/svg+xml</dc:format>
    <dc:creator>
     <cc:Agent>
      <dc:title>Matplotlib v3.7.5, https://matplotlib.org/</dc:title>
     </cc:Agent>
    </dc:creator>
   </cc:Work>
  </rdf:RDF>
 </metadata>
 <defs>
  <style type="text/css">*{stroke-linejoin: round; stroke-linecap: butt}</style>
 </defs>
 <g id="figure_1">
  <g id="patch_1">
   <path d="M 0 278.491875 
L 171.526562 278.491875 
L 171.526562 0 
L 0 0 
z
" style="fill: #ffffff"/>
  </g>
  <g id="axes_1">
   <g id="patch_2">
    <path d="M 54.096563 252.678125 
L 164.326562 252.678125 
L 164.326562 22.318125 
L 54.096563 22.318125 
z
" style="fill: #ffffff"/>
   </g>
   <g id="PathCollection_1">
    <defs>
     <path id="m381120d7f9" d="M 0 3 
C 0.795609 3 1.55874 2.683901 2.12132 2.12132 
C 2.683901 1.55874 3 0.795609 3 0 
C 3 -0.795609 2.683901 -1.55874 2.12132 -2.12132 
C 1.55874 -2.683901 0.795609 -3 0 -3 
C -0.795609 -3 -1.55874 -2.683901 -2.12132 -2.12132 
C -2.683901 -1.55874 -3 -0.795609 -3 0 
C -3 0.795609 -2.683901 1.55874 -2.12132 2.12132 
C -1.55874 2.683901 -0.795609 3 0 3 
z
" style="stroke: #004c4c; stroke-opacity: 0.3"/>
    </defs>
    <g clip-path="url(#paeb2493f46)">
     <use xlink:href="#m381120d7f9" x="148.43336" y="121.822802" style="fill: #004c4c; fill-opacity: 0.3; stroke: #004c4c; stroke-opacity: 0.3"/>
     <use xlink:href="#m381120d7f9" x="146.154251" y="104.556821" style="fill: #004c4c; fill-opacity: 0.3; stroke: #004c4c; stroke-opacity: 0.3"/>
     <use xlink:href="#m381120d7f9" x="141.561" y="129.237659" style="fill: #004c4c; fill-opacity: 0.3; stroke: #004c4c; stroke-opacity: 0.3"/>
     <use xlink:href="#m381120d7f9" x="142.086983" y="157.14661" style="fill: #004c4c; fill-opacity: 0.3; stroke: #004c4c; stroke-opacity: 0.3"/>
     <use xlink:href="#m381120d7f9" x="140.824919" y="122.990428" style="fill: #004c4c; fill-opacity: 0.3; stroke: #004c4c; stroke-opacity: 0.3"/>
     <use xlink:href="#m381120d7f9" x="144.285286" y="168.280611" style="fill: #004c4c; fill-opacity: 0.3; stroke: #004c4c; stroke-opacity: 0.3"/>
     <use xlink:href="#m381120d7f9" x="142.668885" y="99.86466" style="fill: #004c4c; fill-opacity: 0.3; stroke: #004c4c; stroke-opacity: 0.3"/>
     <use xlink:href="#m381120d7f9" x="142.625361" y="193.313357" style="fill: #004c4c; fill-opacity: 0.3; stroke: #004c4c; stroke-opacity: 0.3"/>
     <use xlink:href="#m381120d7f9" x="139.410243" y="113.761368" style="fill: #004c4c; fill-opacity: 0.3; stroke: #004c4c; stroke-opacity: 0.3"/>
     <use xlink:href="#m381120d7f9" x="140.840761" y="123.894201" style="fill: #004c4c; fill-opacity: 0.3; stroke: #004c4c; stroke-opacity: 0.3"/>
     <use xlink:href="#m381120d7f9" x="143.90324" y="145.510658" style="fill: #004c4c; fill-opacity: 0.3; stroke: #004c4c; stroke-opacity: 0.3"/>
     <use xlink:href="#m381120d7f9" x="139.401311" y="89.305106" style="fill: #004c4c; fill-opacity: 0.3; stroke: #004c4c; stroke-opacity: 0.3"/>
     <use xlink:href="#m381120d7f9" x="138.99732" y="141.475315" style="fill: #004c4c; fill-opacity: 0.3; stroke: #004c4c; stroke-opacity: 0.3"/>
     <use xlink:href="#m381120d7f9" x="139.940737" y="106.666834" style="fill: #004c4c; fill-opacity: 0.3; stroke: #004c4c; stroke-opacity: 0.3"/>
     <use xlink:href="#m381120d7f9" x="141.000117" y="155.243766" style="fill: #004c4c; fill-opacity: 0.3; stroke: #004c4c; stroke-opacity: 0.3"/>
     <use xlink:href="#m381120d7f9" x="144.923522" y="93.164707" style="fill: #004c4c; fill-opacity: 0.3; stroke: #004c4c; stroke-opacity: 0.3"/>
     <use xlink:href="#m381120d7f9" x="145.136623" y="113.479307" style="fill: #004c4c; fill-opacity: 0.3; stroke: #004c4c; stroke-opacity: 0.3"/>
     <use xlink:href="#m381120d7f9" x="144.395193" y="125.075568" style="fill: #004c4c; fill-opacity: 0.3; stroke: #004c4c; stroke-opacity: 0.3"/>
     <use xlink:href="#m381120d7f9" x="146.445753" y="134.23342" style="fill: #004c4c; fill-opacity: 0.3; stroke: #004c4c; stroke-opacity: 0.3"/>
     <use xlink:href="#m381120d7f9" x="142.581692" y="132.057023" style="fill: #004c4c; fill-opacity: 0.3; stroke: #004c4c; stroke-opacity: 0.3"/>
     <use xlink:href="#m381120d7f9" x="140.885588" y="95.366822" style="fill: #004c4c; fill-opacity: 0.3; stroke: #004c4c; stroke-opacity: 0.3"/>
     <use xlink:href="#m381120d7f9" x="141.668957" y="192.600012" style="fill: #004c4c; fill-opacity: 0.3; stroke: #004c4c; stroke-opacity: 0.3"/>
     <use xlink:href="#m381120d7f9" x="144.837855" y="118.482413" style="fill: #004c4c; fill-opacity: 0.3; stroke: #004c4c; stroke-opacity: 0.3"/>
     <use xlink:href="#m381120d7f9" x="143.328475" y="148.476688" style="fill: #004c4c; fill-opacity: 0.3; stroke: #004c4c; stroke-opacity: 0.3"/>
     <use xlink:href="#m381120d7f9" x="141.716045" y="130.046975" style="fill: #004c4c; fill-opacity: 0.3; stroke: #004c4c; stroke-opacity: 0.3"/>
     <use xlink:href="#m381120d7f9" x="146.019529" y="89.885188" style="fill: #004c4c; fill-opacity: 0.3; stroke: #004c4c; stroke-opacity: 0.3"/>
     <use xlink:href="#m381120d7f9" x="141.934541" y="121.407617" style="fill: #004c4c; fill-opacity: 0.3; stroke: #004c4c; stroke-opacity: 0.3"/>
     <use xlink:href="#m381120d7f9" x="140.869448" y="179.728232" style="fill: #004c4c; fill-opacity: 0.3; stroke: #004c4c; stroke-opacity: 0.3"/>
     <use xlink:href="#m381120d7f9" x="141.992071" y="174.60525" style="fill: #004c4c; fill-opacity: 0.3; stroke: #004c4c; stroke-opacity: 0.3"/>
     <use xlink:href="#m381120d7f9" x="144.961974" y="135.419479" style="fill: #004c4c; fill-opacity: 0.3; stroke: #004c4c; stroke-opacity: 0.3"/>
     <use xlink:href="#m381120d7f9" x="143.556995" y="157.781937" style="fill: #004c4c; fill-opacity: 0.3; stroke: #004c4c; stroke-opacity: 0.3"/>
     <use xlink:href="#m381120d7f9" x="142.332954" y="91.259205" style="fill: #004c4c; fill-opacity: 0.3; stroke: #004c4c; stroke-opacity: 0.3"/>
     <use xlink:href="#m381120d7f9" x="143.145249" y="107.608668" style="fill: #004c4c; fill-opacity: 0.3; stroke: #004c4c; stroke-opacity: 0.3"/>
     <use xlink:href="#m381120d7f9" x="141.376197" y="162.427308" style="fill: #004c4c; fill-opacity: 0.3; stroke: #004c4c; stroke-opacity: 0.3"/>
     <use xlink:href="#m381120d7f9" x="138.013928" y="115.731552" style="fill: #004c4c; fill-opacity: 0.3; stroke: #004c4c; stroke-opacity: 0.3"/>
     <use xlink:href="#m381120d7f9" x="142.596916" y="109.642267" style="fill: #004c4c; fill-opacity: 0.3; stroke: #004c4c; stroke-opacity: 0.3"/>
     <use xlink:href="#m381120d7f9" x="145.907598" y="160.801539" style="fill: #004c4c; fill-opacity: 0.3; stroke: #004c4c; stroke-opacity: 0.3"/>
     <use xlink:href="#m381120d7f9" x="141.811266" y="181.147539" style="fill: #004c4c; fill-opacity: 0.3; stroke: #004c4c; stroke-opacity: 0.3"/>
     <use xlink:href="#m381120d7f9" x="140.214526" y="126.755147" style="fill: #004c4c; fill-opacity: 0.3; stroke: #004c4c; stroke-opacity: 0.3"/>
     <use xlink:href="#m381120d7f9" x="138.793392" y="113.995836" style="fill: #004c4c; fill-opacity: 0.3; stroke: #004c4c; stroke-opacity: 0.3"/>
     <use xlink:href="#m381120d7f9" x="139.884228" y="90.325298" style="fill: #004c4c; fill-opacity: 0.3; stroke: #004c4c; stroke-opacity: 0.3"/>
     <use xlink:href="#m381120d7f9" x="140.862515" y="140.418757" style="fill: #004c4c; fill-opacity: 0.3; stroke: #004c4c; stroke-opacity: 0.3"/>
     <use xlink:href="#m381120d7f9" x="144.568203" y="117.852073" style="fill: #004c4c; fill-opacity: 0.3; stroke: #004c4c; stroke-opacity: 0.3"/>
     <use xlink:href="#m381120d7f9" x="141.017624" y="85.417436" style="fill: #004c4c; fill-opacity: 0.3; stroke: #004c4c; stroke-opacity: 0.3"/>
     <use xlink:href="#m381120d7f9" x="138.549608" y="134.238264" style="fill: #004c4c; fill-opacity: 0.3; stroke: #004c4c; stroke-opacity: 0.3"/>
     <use xlink:href="#m381120d7f9" x="142.200858" y="167.753298" style="fill: #004c4c; fill-opacity: 0.3; stroke: #004c4c; stroke-opacity: 0.3"/>
     <use xlink:href="#m381120d7f9" x="142.393739" y="180.75944" style="fill: #004c4c; fill-opacity: 0.3; stroke: #004c4c; stroke-opacity: 0.3"/>
     <use xlink:href="#m381120d7f9" x="142.320039" y="110.379104" style="fill: #004c4c; fill-opacity: 0.3; stroke: #004c4c; stroke-opacity: 0.3"/>
     <use xlink:href="#m381120d7f9" x="137.900523" y="125.55153" style="fill: #004c4c; fill-opacity: 0.3; stroke: #004c4c; stroke-opacity: 0.3"/>
     <use xlink:href="#m381120d7f9" x="147.402905" y="104.467121" style="fill: #004c4c; fill-opacity: 0.3; stroke: #004c4c; stroke-opacity: 0.3"/>
     <use xlink:href="#m381120d7f9" x="143.487847" y="125.458755" style="fill: #004c4c; fill-opacity: 0.3; stroke: #004c4c; stroke-opacity: 0.3"/>
     <use xlink:href="#m381120d7f9" x="145.36894" y="129.115369" style="fill: #004c4c; fill-opacity: 0.3; stroke: #004c4c; stroke-opacity: 0.3"/>
     <use xlink:href="#m381120d7f9" x="140.128399" y="98.797" style="fill: #004c4c; fill-opacity: 0.3; stroke: #004c4c; stroke-opacity: 0.3"/>
     <use xlink:href="#m381120d7f9" x="142.44534" y="219.504088" style="fill: #004c4c; fill-opacity: 0.3; stroke: #004c4c; stroke-opacity: 0.3"/>
     <use xlink:href="#m381120d7f9" x="142.599287" y="76.713628" style="fill: #004c4c; fill-opacity: 0.3; stroke: #004c4c; stroke-opacity: 0.3"/>
     <use xlink:href="#m381120d7f9" x="142.002672" y="90.502606" style="fill: #004c4c; fill-opacity: 0.3; stroke: #004c4c; stroke-opacity: 0.3"/>
     <use xlink:href="#m381120d7f9" x="145.608144" y="92.915143" style="fill: #004c4c; fill-opacity: 0.3; stroke: #004c4c; stroke-opacity: 0.3"/>
     <use xlink:href="#m381120d7f9" x="140.037425" y="137.450852" style="fill: #004c4c; fill-opacity: 0.3; stroke: #004c4c; stroke-opacity: 0.3"/>
     <use xlink:href="#m381120d7f9" x="143.78734" y="89.890931" style="fill: #004c4c; fill-opacity: 0.3; stroke: #004c4c; stroke-opacity: 0.3"/>
     <use xlink:href="#m381120d7f9" x="139.417662" y="125.429907" style="fill: #004c4c; fill-opacity: 0.3; stroke: #004c4c; stroke-opacity: 0.3"/>
     <use xlink:href="#m381120d7f9" x="141.672065" y="71.186721" style="fill: #004c4c; fill-opacity: 0.3; stroke: #004c4c; stroke-opacity: 0.3"/>
     <use xlink:href="#m381120d7f9" x="141.631432" y="126.716631" style="fill: #004c4c; fill-opacity: 0.3; stroke: #004c4c; stroke-opacity: 0.3"/>
     <use xlink:href="#m381120d7f9" x="142.080736" y="85.455969" style="fill: #004c4c; fill-opacity: 0.3; stroke: #004c4c; stroke-opacity: 0.3"/>
     <use xlink:href="#m381120d7f9" x="143.03738" y="92.177276" style="fill: #004c4c; fill-opacity: 0.3; stroke: #004c4c; stroke-opacity: 0.3"/>
     <use xlink:href="#m381120d7f9" x="134.709264" y="147.935911" style="fill: #004c4c; fill-opacity: 0.3; stroke: #004c4c; stroke-opacity: 0.3"/>
     <use xlink:href="#m381120d7f9" x="144.554285" y="161.211328" style="fill: #004c4c; fill-opacity: 0.3; stroke: #004c4c; stroke-opacity: 0.3"/>
     <use xlink:href="#m381120d7f9" x="138.187572" y="141.578775" style="fill: #004c4c; fill-opacity: 0.3; stroke: #004c4c; stroke-opacity: 0.3"/>
     <use xlink:href="#m381120d7f9" x="138.426364" y="124.521754" style="fill: #004c4c; fill-opacity: 0.3; stroke: #004c4c; stroke-opacity: 0.3"/>
     <use xlink:href="#m381120d7f9" x="142.318056" y="170.420089" style="fill: #004c4c; fill-opacity: 0.3; stroke: #004c4c; stroke-opacity: 0.3"/>
     <use xlink:href="#m381120d7f9" x="139.894373" y="131.306765" style="fill: #004c4c; fill-opacity: 0.3; stroke: #004c4c; stroke-opacity: 0.3"/>
     <use xlink:href="#m381120d7f9" x="142.912863" y="102.031694" style="fill: #004c4c; fill-opacity: 0.3; stroke: #004c4c; stroke-opacity: 0.3"/>
     <use xlink:href="#m381120d7f9" x="144.349306" y="107.141839" style="fill: #004c4c; fill-opacity: 0.3; stroke: #004c4c; stroke-opacity: 0.3"/>
     <use xlink:href="#m381120d7f9" x="143.516359" y="154.751988" style="fill: #004c4c; fill-opacity: 0.3; stroke: #004c4c; stroke-opacity: 0.3"/>
     <use xlink:href="#m381120d7f9" x="145.027279" y="141.856929" style="fill: #004c4c; fill-opacity: 0.3; stroke: #004c4c; stroke-opacity: 0.3"/>
     <use xlink:href="#m381120d7f9" x="144.511013" y="82.571774" style="fill: #004c4c; fill-opacity: 0.3; stroke: #004c4c; stroke-opacity: 0.3"/>
     <use xlink:href="#m381120d7f9" x="144.444727" y="154.415508" style="fill: #004c4c; fill-opacity: 0.3; stroke: #004c4c; stroke-opacity: 0.3"/>
     <use xlink:href="#m381120d7f9" x="142.284049" y="226.098125" style="fill: #004c4c; fill-opacity: 0.3; stroke: #004c4c; stroke-opacity: 0.3"/>
     <use xlink:href="#m381120d7f9" x="141.143339" y="138.342804" style="fill: #004c4c; fill-opacity: 0.3; stroke: #004c4c; stroke-opacity: 0.3"/>
     <use xlink:href="#m381120d7f9" x="144.769739" y="153.248423" style="fill: #004c4c; fill-opacity: 0.3; stroke: #004c4c; stroke-opacity: 0.3"/>
     <use xlink:href="#m381120d7f9" x="141.712149" y="113.771699" style="fill: #004c4c; fill-opacity: 0.3; stroke: #004c4c; stroke-opacity: 0.3"/>
     <use xlink:href="#m381120d7f9" x="138.862675" y="162.13793" style="fill: #004c4c; fill-opacity: 0.3; stroke: #004c4c; stroke-opacity: 0.3"/>
     <use xlink:href="#m381120d7f9" x="143.130072" y="134.169521" style="fill: #004c4c; fill-opacity: 0.3; stroke: #004c4c; stroke-opacity: 0.3"/>
     <use xlink:href="#m381120d7f9" x="142.385794" y="162.333202" style="fill: #004c4c; fill-opacity: 0.3; stroke: #004c4c; stroke-opacity: 0.3"/>
     <use xlink:href="#m381120d7f9" x="139.548177" y="138.062412" style="fill: #004c4c; fill-opacity: 0.3; stroke: #004c4c; stroke-opacity: 0.3"/>
     <use xlink:href="#m381120d7f9" x="142.676787" y="129.755825" style="fill: #004c4c; fill-opacity: 0.3; stroke: #004c4c; stroke-opacity: 0.3"/>
     <use xlink:href="#m381120d7f9" x="144.599649" y="135.615071" style="fill: #004c4c; fill-opacity: 0.3; stroke: #004c4c; stroke-opacity: 0.3"/>
     <use xlink:href="#m381120d7f9" x="142.217419" y="73.515129" style="fill: #004c4c; fill-opacity: 0.3; stroke: #004c4c; stroke-opacity: 0.3"/>
     <use xlink:href="#m381120d7f9" x="144.968413" y="152.860489" style="fill: #004c4c; fill-opacity: 0.3; stroke: #004c4c; stroke-opacity: 0.3"/>
     <use xlink:href="#m381120d7f9" x="140.68465" y="135.73194" style="fill: #004c4c; fill-opacity: 0.3; stroke: #004c4c; stroke-opacity: 0.3"/>
     <use xlink:href="#m381120d7f9" x="143.417474" y="111.847359" style="fill: #004c4c; fill-opacity: 0.3; stroke: #004c4c; stroke-opacity: 0.3"/>
     <use xlink:href="#m381120d7f9" x="143.030368" y="80.079843" style="fill: #004c4c; fill-opacity: 0.3; stroke: #004c4c; stroke-opacity: 0.3"/>
     <use xlink:href="#m381120d7f9" x="140.869195" y="130.078592" style="fill: #004c4c; fill-opacity: 0.3; stroke: #004c4c; stroke-opacity: 0.3"/>
     <use xlink:href="#m381120d7f9" x="140.848361" y="168.022065" style="fill: #004c4c; fill-opacity: 0.3; stroke: #004c4c; stroke-opacity: 0.3"/>
     <use xlink:href="#m381120d7f9" x="141.639312" y="148.854847" style="fill: #004c4c; fill-opacity: 0.3; stroke: #004c4c; stroke-opacity: 0.3"/>
     <use xlink:href="#m381120d7f9" x="140.994753" y="95.337155" style="fill: #004c4c; fill-opacity: 0.3; stroke: #004c4c; stroke-opacity: 0.3"/>
     <use xlink:href="#m381120d7f9" x="145.132215" y="128.117458" style="fill: #004c4c; fill-opacity: 0.3; stroke: #004c4c; stroke-opacity: 0.3"/>
     <use xlink:href="#m381120d7f9" x="142.385646" y="48.898125" style="fill: #004c4c; fill-opacity: 0.3; stroke: #004c4c; stroke-opacity: 0.3"/>
     <use xlink:href="#m381120d7f9" x="138.137589" y="153.724376" style="fill: #004c4c; fill-opacity: 0.3; stroke: #004c4c; stroke-opacity: 0.3"/>
     <use xlink:href="#m381120d7f9" x="140.500503" y="128.001731" style="fill: #004c4c; fill-opacity: 0.3; stroke: #004c4c; stroke-opacity: 0.3"/>
     <use xlink:href="#m381120d7f9" x="141.75566" y="111.87114" style="fill: #004c4c; fill-opacity: 0.3; stroke: #004c4c; stroke-opacity: 0.3"/>
     <use xlink:href="#m381120d7f9" x="142.539376" y="131.563838" style="fill: #004c4c; fill-opacity: 0.3; stroke: #004c4c; stroke-opacity: 0.3"/>
     <use xlink:href="#m381120d7f9" x="141.920583" y="119.827753" style="fill: #004c4c; fill-opacity: 0.3; stroke: #004c4c; stroke-opacity: 0.3"/>
     <use xlink:href="#m381120d7f9" x="139.35702" y="145.28715" style="fill: #004c4c; fill-opacity: 0.3; stroke: #004c4c; stroke-opacity: 0.3"/>
     <use xlink:href="#m381120d7f9" x="142.692579" y="156.593471" style="fill: #004c4c; fill-opacity: 0.3; stroke: #004c4c; stroke-opacity: 0.3"/>
     <use xlink:href="#m381120d7f9" x="143.324934" y="123.371339" style="fill: #004c4c; fill-opacity: 0.3; stroke: #004c4c; stroke-opacity: 0.3"/>
     <use xlink:href="#m381120d7f9" x="142.22717" y="178.719836" style="fill: #004c4c; fill-opacity: 0.3; stroke: #004c4c; stroke-opacity: 0.3"/>
     <use xlink:href="#m381120d7f9" x="140.522925" y="163.437428" style="fill: #004c4c; fill-opacity: 0.3; stroke: #004c4c; stroke-opacity: 0.3"/>
     <use xlink:href="#m381120d7f9" x="143.393368" y="127.946157" style="fill: #004c4c; fill-opacity: 0.3; stroke: #004c4c; stroke-opacity: 0.3"/>
     <use xlink:href="#m381120d7f9" x="139.618693" y="120.690657" style="fill: #004c4c; fill-opacity: 0.3; stroke: #004c4c; stroke-opacity: 0.3"/>
     <use xlink:href="#m381120d7f9" x="141.527394" y="145.733905" style="fill: #004c4c; fill-opacity: 0.3; stroke: #004c4c; stroke-opacity: 0.3"/>
     <use xlink:href="#m381120d7f9" x="142.84285" y="153.906333" style="fill: #004c4c; fill-opacity: 0.3; stroke: #004c4c; stroke-opacity: 0.3"/>
     <use xlink:href="#m381120d7f9" x="143.871469" y="141.844251" style="fill: #004c4c; fill-opacity: 0.3; stroke: #004c4c; stroke-opacity: 0.3"/>
     <use xlink:href="#m381120d7f9" x="143.977205" y="118.511473" style="fill: #004c4c; fill-opacity: 0.3; stroke: #004c4c; stroke-opacity: 0.3"/>
     <use xlink:href="#m381120d7f9" x="139.79083" y="94.210557" style="fill: #004c4c; fill-opacity: 0.3; stroke: #004c4c; stroke-opacity: 0.3"/>
     <use xlink:href="#m381120d7f9" x="139.860125" y="152.920948" style="fill: #004c4c; fill-opacity: 0.3; stroke: #004c4c; stroke-opacity: 0.3"/>
     <use xlink:href="#m381120d7f9" x="142.701641" y="145.240753" style="fill: #004c4c; fill-opacity: 0.3; stroke: #004c4c; stroke-opacity: 0.3"/>
     <use xlink:href="#m381120d7f9" x="139.335758" y="100.186953" style="fill: #004c4c; fill-opacity: 0.3; stroke: #004c4c; stroke-opacity: 0.3"/>
     <use xlink:href="#m381120d7f9" x="143.789076" y="183.919135" style="fill: #004c4c; fill-opacity: 0.3; stroke: #004c4c; stroke-opacity: 0.3"/>
     <use xlink:href="#m381120d7f9" x="143.168311" y="143.434695" style="fill: #004c4c; fill-opacity: 0.3; stroke: #004c4c; stroke-opacity: 0.3"/>
     <use xlink:href="#m381120d7f9" x="145.017051" y="105.787696" style="fill: #004c4c; fill-opacity: 0.3; stroke: #004c4c; stroke-opacity: 0.3"/>
     <use xlink:href="#m381120d7f9" x="143.813332" y="77.45626" style="fill: #004c4c; fill-opacity: 0.3; stroke: #004c4c; stroke-opacity: 0.3"/>
     <use xlink:href="#m381120d7f9" x="136.239879" y="131.434478" style="fill: #004c4c; fill-opacity: 0.3; stroke: #004c4c; stroke-opacity: 0.3"/>
     <use xlink:href="#m381120d7f9" x="141.926556" y="176.921296" style="fill: #004c4c; fill-opacity: 0.3; stroke: #004c4c; stroke-opacity: 0.3"/>
     <use xlink:href="#m381120d7f9" x="142.281135" y="95.512063" style="fill: #004c4c; fill-opacity: 0.3; stroke: #004c4c; stroke-opacity: 0.3"/>
     <use xlink:href="#m381120d7f9" x="139.910831" y="130.32045" style="fill: #004c4c; fill-opacity: 0.3; stroke: #004c4c; stroke-opacity: 0.3"/>
     <use xlink:href="#m381120d7f9" x="138.123403" y="127.136043" style="fill: #004c4c; fill-opacity: 0.3; stroke: #004c4c; stroke-opacity: 0.3"/>
     <use xlink:href="#m381120d7f9" x="137.68456" y="109.568338" style="fill: #004c4c; fill-opacity: 0.3; stroke: #004c4c; stroke-opacity: 0.3"/>
     <use xlink:href="#m381120d7f9" x="143.304549" y="100.994675" style="fill: #004c4c; fill-opacity: 0.3; stroke: #004c4c; stroke-opacity: 0.3"/>
     <use xlink:href="#m381120d7f9" x="141.37026" y="76.800618" style="fill: #004c4c; fill-opacity: 0.3; stroke: #004c4c; stroke-opacity: 0.3"/>
     <use xlink:href="#m381120d7f9" x="141.224069" y="76.708795" style="fill: #004c4c; fill-opacity: 0.3; stroke: #004c4c; stroke-opacity: 0.3"/>
     <use xlink:href="#m381120d7f9" x="141.982453" y="109.243442" style="fill: #004c4c; fill-opacity: 0.3; stroke: #004c4c; stroke-opacity: 0.3"/>
     <use xlink:href="#m381120d7f9" x="138.197482" y="111.989311" style="fill: #004c4c; fill-opacity: 0.3; stroke: #004c4c; stroke-opacity: 0.3"/>
     <use xlink:href="#m381120d7f9" x="142.526226" y="68.145454" style="fill: #004c4c; fill-opacity: 0.3; stroke: #004c4c; stroke-opacity: 0.3"/>
     <use xlink:href="#m381120d7f9" x="144.146693" y="105.768515" style="fill: #004c4c; fill-opacity: 0.3; stroke: #004c4c; stroke-opacity: 0.3"/>
     <use xlink:href="#m381120d7f9" x="140.795399" y="164.128722" style="fill: #004c4c; fill-opacity: 0.3; stroke: #004c4c; stroke-opacity: 0.3"/>
     <use xlink:href="#m381120d7f9" x="142.486488" y="135.977485" style="fill: #004c4c; fill-opacity: 0.3; stroke: #004c4c; stroke-opacity: 0.3"/>
     <use xlink:href="#m381120d7f9" x="142.317576" y="110.752151" style="fill: #004c4c; fill-opacity: 0.3; stroke: #004c4c; stroke-opacity: 0.3"/>
     <use xlink:href="#m381120d7f9" x="145.270301" y="167.208201" style="fill: #004c4c; fill-opacity: 0.3; stroke: #004c4c; stroke-opacity: 0.3"/>
     <use xlink:href="#m381120d7f9" x="140.539948" y="125.679386" style="fill: #004c4c; fill-opacity: 0.3; stroke: #004c4c; stroke-opacity: 0.3"/>
     <use xlink:href="#m381120d7f9" x="134.013312" y="151.645093" style="fill: #004c4c; fill-opacity: 0.3; stroke: #004c4c; stroke-opacity: 0.3"/>
     <use xlink:href="#m381120d7f9" x="140.169868" y="123.475143" style="fill: #004c4c; fill-opacity: 0.3; stroke: #004c4c; stroke-opacity: 0.3"/>
     <use xlink:href="#m381120d7f9" x="145.387012" y="104.633477" style="fill: #004c4c; fill-opacity: 0.3; stroke: #004c4c; stroke-opacity: 0.3"/>
     <use xlink:href="#m381120d7f9" x="138.092362" y="114.692768" style="fill: #004c4c; fill-opacity: 0.3; stroke: #004c4c; stroke-opacity: 0.3"/>
     <use xlink:href="#m381120d7f9" x="141.486326" y="137.109466" style="fill: #004c4c; fill-opacity: 0.3; stroke: #004c4c; stroke-opacity: 0.3"/>
     <use xlink:href="#m381120d7f9" x="141.959181" y="130.182941" style="fill: #004c4c; fill-opacity: 0.3; stroke: #004c4c; stroke-opacity: 0.3"/>
     <use xlink:href="#m381120d7f9" x="142.862966" y="136.014719" style="fill: #004c4c; fill-opacity: 0.3; stroke: #004c4c; stroke-opacity: 0.3"/>
     <use xlink:href="#m381120d7f9" x="142.622925" y="104.50451" style="fill: #004c4c; fill-opacity: 0.3; stroke: #004c4c; stroke-opacity: 0.3"/>
     <use xlink:href="#m381120d7f9" x="140.590383" y="133.546676" style="fill: #004c4c; fill-opacity: 0.3; stroke: #004c4c; stroke-opacity: 0.3"/>
     <use xlink:href="#m381120d7f9" x="141.09409" y="137.067242" style="fill: #004c4c; fill-opacity: 0.3; stroke: #004c4c; stroke-opacity: 0.3"/>
     <use xlink:href="#m381120d7f9" x="145.982893" y="151.414512" style="fill: #004c4c; fill-opacity: 0.3; stroke: #004c4c; stroke-opacity: 0.3"/>
     <use xlink:href="#m381120d7f9" x="141.373805" y="159.568792" style="fill: #004c4c; fill-opacity: 0.3; stroke: #004c4c; stroke-opacity: 0.3"/>
     <use xlink:href="#m381120d7f9" x="138.124839" y="123.816128" style="fill: #004c4c; fill-opacity: 0.3; stroke: #004c4c; stroke-opacity: 0.3"/>
     <use xlink:href="#m381120d7f9" x="141.421691" y="92.115093" style="fill: #004c4c; fill-opacity: 0.3; stroke: #004c4c; stroke-opacity: 0.3"/>
     <use xlink:href="#m381120d7f9" x="142.744357" y="92.373296" style="fill: #004c4c; fill-opacity: 0.3; stroke: #004c4c; stroke-opacity: 0.3"/>
    </g>
   </g>
   <g id="matplotlib.axis_1">
    <g id="xtick_1">
     <g id="line2d_1">
      <defs>
       <path id="m928f8f86b4" d="M 0 0 
L 0 3.5 
" style="stroke: #000000; stroke-width: 0.8"/>
      </defs>
      <g>
       <use xlink:href="#m928f8f86b4" x="109.211562" y="252.678125" style="stroke: #000000; stroke-width: 0.8"/>
      </g>
     </g>
     <g id="text_1">
      <!-- prepost -->
      <g transform="translate(86.420938 268.79625) scale(0.12 -0.12)">
       <defs>
        <path id="DejaVuSans-70" d="M 1159 525 
L 1159 -1331 
L 581 -1331 
L 581 3500 
L 1159 3500 
L 1159 2969 
Q 1341 3281 1617 3432 
Q 1894 3584 2278 3584 
Q 2916 3584 3314 3078 
Q 3713 2572 3713 1747 
Q 3713 922 3314 415 
Q 2916 -91 2278 -91 
Q 1894 -91 1617 61 
Q 1341 213 1159 525 
z
M 3116 1747 
Q 3116 2381 2855 2742 
Q 2594 3103 2138 3103 
Q 1681 3103 1420 2742 
Q 1159 2381 1159 1747 
Q 1159 1113 1420 752 
Q 1681 391 2138 391 
Q 2594 391 2855 752 
Q 3116 1113 3116 1747 
z
" transform="scale(0.015625)"/>
        <path id="DejaVuSans-72" d="M 2631 2963 
Q 2534 3019 2420 3045 
Q 2306 3072 2169 3072 
Q 1681 3072 1420 2755 
Q 1159 2438 1159 1844 
L 1159 0 
L 581 0 
L 581 3500 
L 1159 3500 
L 1159 2956 
Q 1341 3275 1631 3429 
Q 1922 3584 2338 3584 
Q 2397 3584 2469 3576 
Q 2541 3569 2628 3553 
L 2631 2963 
z
" transform="scale(0.015625)"/>
        <path id="DejaVuSans-65" d="M 3597 1894 
L 3597 1613 
L 953 1613 
Q 991 1019 1311 708 
Q 1631 397 2203 397 
Q 2534 397 2845 478 
Q 3156 559 3463 722 
L 3463 178 
Q 3153 47 2828 -22 
Q 2503 -91 2169 -91 
Q 1331 -91 842 396 
Q 353 884 353 1716 
Q 353 2575 817 3079 
Q 1281 3584 2069 3584 
Q 2775 3584 3186 3129 
Q 3597 2675 3597 1894 
z
M 3022 2063 
Q 3016 2534 2758 2815 
Q 2500 3097 2075 3097 
Q 1594 3097 1305 2825 
Q 1016 2553 972 2059 
L 3022 2063 
z
" transform="scale(0.015625)"/>
        <path id="DejaVuSans-6f" d="M 1959 3097 
Q 1497 3097 1228 2736 
Q 959 2375 959 1747 
Q 959 1119 1226 758 
Q 1494 397 1959 397 
Q 2419 397 2687 759 
Q 2956 1122 2956 1747 
Q 2956 2369 2687 2733 
Q 2419 3097 1959 3097 
z
M 1959 3584 
Q 2709 3584 3137 3096 
Q 3566 2609 3566 1747 
Q 3566 888 3137 398 
Q 2709 -91 1959 -91 
Q 1206 -91 779 398 
Q 353 888 353 1747 
Q 353 2609 779 3096 
Q 1206 3584 1959 3584 
z
" transform="scale(0.015625)"/>
        <path id="DejaVuSans-73" d="M 2834 3397 
L 2834 2853 
Q 2591 2978 2328 3040 
Q 2066 3103 1784 3103 
Q 1356 3103 1142 2972 
Q 928 2841 928 2578 
Q 928 2378 1081 2264 
Q 1234 2150 1697 2047 
L 1894 2003 
Q 2506 1872 2764 1633 
Q 3022 1394 3022 966 
Q 3022 478 2636 193 
Q 2250 -91 1575 -91 
Q 1294 -91 989 -36 
Q 684 19 347 128 
L 347 722 
Q 666 556 975 473 
Q 1284 391 1588 391 
Q 1994 391 2212 530 
Q 2431 669 2431 922 
Q 2431 1156 2273 1281 
Q 2116 1406 1581 1522 
L 1381 1569 
Q 847 1681 609 1914 
Q 372 2147 372 2553 
Q 372 3047 722 3315 
Q 1072 3584 1716 3584 
Q 2034 3584 2315 3537 
Q 2597 3491 2834 3397 
z
" transform="scale(0.015625)"/>
        <path id="DejaVuSans-74" d="M 1172 4494 
L 1172 3500 
L 2356 3500 
L 2356 3053 
L 1172 3053 
L 1172 1153 
Q 1172 725 1289 603 
Q 1406 481 1766 481 
L 2356 481 
L 2356 0 
L 1766 0 
Q 1100 0 847 248 
Q 594 497 594 1153 
L 594 3053 
L 172 3053 
L 172 3500 
L 594 3500 
L 594 4494 
L 1172 4494 
z
" transform="scale(0.015625)"/>
       </defs>
       <use xlink:href="#DejaVuSans-70"/>
       <use xlink:href="#DejaVuSans-72" x="63.476562"/>
       <use xlink:href="#DejaVuSans-65" x="102.339844"/>
       <use xlink:href="#DejaVuSans-70" x="163.863281"/>
       <use xlink:href="#DejaVuSans-6f" x="227.339844"/>
       <use xlink:href="#DejaVuSans-73" x="288.521484"/>
       <use xlink:href="#DejaVuSans-74" x="340.621094"/>
      </g>
     </g>
    </g>
   </g>
   <g id="matplotlib.axis_2">
    <g id="ytick_1">
     <g id="line2d_2">
      <defs>
       <path id="mafe30e3dd2" d="M 0 0 
L -3.5 0 
" style="stroke: #000000; stroke-width: 0.8"/>
      </defs>
      <g>
       <use xlink:href="#mafe30e3dd2" x="54.096563" y="238.140227" style="stroke: #000000; stroke-width: 0.8"/>
      </g>
     </g>
     <g id="text_2">
      <!-- −1.5 -->
      <g transform="translate(22.81375 241.939446) scale(0.1 -0.1)">
       <defs>
        <path id="DejaVuSans-2212" d="M 678 2272 
L 4684 2272 
L 4684 1741 
L 678 1741 
L 678 2272 
z
" transform="scale(0.015625)"/>
        <path id="DejaVuSans-31" d="M 794 531 
L 1825 531 
L 1825 4091 
L 703 3866 
L 703 4441 
L 1819 4666 
L 2450 4666 
L 2450 531 
L 3481 531 
L 3481 0 
L 794 0 
L 794 531 
z
" transform="scale(0.015625)"/>
        <path id="DejaVuSans-2e" d="M 684 794 
L 1344 794 
L 1344 0 
L 684 0 
L 684 794 
z
" transform="scale(0.015625)"/>
        <path id="DejaVuSans-35" d="M 691 4666 
L 3169 4666 
L 3169 4134 
L 1269 4134 
L 1269 2991 
Q 1406 3038 1543 3061 
Q 1681 3084 1819 3084 
Q 2600 3084 3056 2656 
Q 3513 2228 3513 1497 
Q 3513 744 3044 326 
Q 2575 -91 1722 -91 
Q 1428 -91 1123 -41 
Q 819 9 494 109 
L 494 744 
Q 775 591 1075 516 
Q 1375 441 1709 441 
Q 2250 441 2565 725 
Q 2881 1009 2881 1497 
Q 2881 1984 2565 2268 
Q 2250 2553 1709 2553 
Q 1456 2553 1204 2497 
Q 953 2441 691 2322 
L 691 4666 
z
" transform="scale(0.015625)"/>
       </defs>
       <use xlink:href="#DejaVuSans-2212"/>
       <use xlink:href="#DejaVuSans-31" x="83.789062"/>
       <use xlink:href="#DejaVuSans-2e" x="147.412109"/>
       <use xlink:href="#DejaVuSans-35" x="179.199219"/>
      </g>
     </g>
    </g>
    <g id="ytick_2">
     <g id="line2d_3">
      <g>
       <use xlink:href="#mafe30e3dd2" x="54.096563" y="205.058921" style="stroke: #000000; stroke-width: 0.8"/>
      </g>
     </g>
     <g id="text_3">
      <!-- −1.0 -->
      <g transform="translate(22.81375 208.85814) scale(0.1 -0.1)">
       <defs>
        <path id="DejaVuSans-30" d="M 2034 4250 
Q 1547 4250 1301 3770 
Q 1056 3291 1056 2328 
Q 1056 1369 1301 889 
Q 1547 409 2034 409 
Q 2525 409 2770 889 
Q 3016 1369 3016 2328 
Q 3016 3291 2770 3770 
Q 2525 4250 2034 4250 
z
M 2034 4750 
Q 2819 4750 3233 4129 
Q 3647 3509 3647 2328 
Q 3647 1150 3233 529 
Q 2819 -91 2034 -91 
Q 1250 -91 836 529 
Q 422 1150 422 2328 
Q 422 3509 836 4129 
Q 1250 4750 2034 4750 
z
" transform="scale(0.015625)"/>
       </defs>
       <use xlink:href="#DejaVuSans-2212"/>
       <use xlink:href="#DejaVuSans-31" x="83.789062"/>
       <use xlink:href="#DejaVuSans-2e" x="147.412109"/>
       <use xlink:href="#DejaVuSans-30" x="179.199219"/>
      </g>
     </g>
    </g>
    <g id="ytick_3">
     <g id="line2d_4">
      <g>
       <use xlink:href="#mafe30e3dd2" x="54.096563" y="171.977616" style="stroke: #000000; stroke-width: 0.8"/>
      </g>
     </g>
     <g id="text_4">
      <!-- −0.5 -->
      <g transform="translate(22.81375 175.776834) scale(0.1 -0.1)">
       <use xlink:href="#DejaVuSans-2212"/>
       <use xlink:href="#DejaVuSans-30" x="83.789062"/>
       <use xlink:href="#DejaVuSans-2e" x="147.412109"/>
       <use xlink:href="#DejaVuSans-35" x="179.199219"/>
      </g>
     </g>
    </g>
    <g id="ytick_4">
     <g id="line2d_5">
      <g>
       <use xlink:href="#mafe30e3dd2" x="54.096563" y="138.89631" style="stroke: #000000; stroke-width: 0.8"/>
      </g>
     </g>
     <g id="text_5">
      <!-- 0.0 -->
      <g transform="translate(31.193438 142.695529) scale(0.1 -0.1)">
       <use xlink:href="#DejaVuSans-30"/>
       <use xlink:href="#DejaVuSans-2e" x="63.623047"/>
       <use xlink:href="#DejaVuSans-30" x="95.410156"/>
      </g>
     </g>
    </g>
    <g id="ytick_5">
     <g id="line2d_6">
      <g>
       <use xlink:href="#mafe30e3dd2" x="54.096563" y="105.815004" style="stroke: #000000; stroke-width: 0.8"/>
      </g>
     </g>
     <g id="text_6">
      <!-- 0.5 -->
      <g transform="translate(31.193438 109.614223) scale(0.1 -0.1)">
       <use xlink:href="#DejaVuSans-30"/>
       <use xlink:href="#DejaVuSans-2e" x="63.623047"/>
       <use xlink:href="#DejaVuSans-35" x="95.410156"/>
      </g>
     </g>
    </g>
    <g id="ytick_6">
     <g id="line2d_7">
      <g>
       <use xlink:href="#mafe30e3dd2" x="54.096563" y="72.733699" style="stroke: #000000; stroke-width: 0.8"/>
      </g>
     </g>
     <g id="text_7">
      <!-- 1.0 -->
      <g transform="translate(31.193438 76.532917) scale(0.1 -0.1)">
       <use xlink:href="#DejaVuSans-31"/>
       <use xlink:href="#DejaVuSans-2e" x="63.623047"/>
       <use xlink:href="#DejaVuSans-30" x="95.410156"/>
      </g>
     </g>
    </g>
    <g id="ytick_7">
     <g id="line2d_8">
      <g>
       <use xlink:href="#mafe30e3dd2" x="54.096563" y="39.652393" style="stroke: #000000; stroke-width: 0.8"/>
      </g>
     </g>
     <g id="text_8">
      <!-- 1.5 -->
      <g transform="translate(31.193438 43.451612) scale(0.1 -0.1)">
       <use xlink:href="#DejaVuSans-31"/>
       <use xlink:href="#DejaVuSans-2e" x="63.623047"/>
       <use xlink:href="#DejaVuSans-35" x="95.410156"/>
      </g>
     </g>
    </g>
    <g id="text_9">
     <!-- rHC item familiarity signal -->
     <g transform="translate(16.318125 216.038125) rotate(-90) scale(0.12 -0.12)">
      <defs>
       <path id="DejaVuSans-48" d="M 628 4666 
L 1259 4666 
L 1259 2753 
L 3553 2753 
L 3553 4666 
L 4184 4666 
L 4184 0 
L 3553 0 
L 3553 2222 
L 1259 2222 
L 1259 0 
L 628 0 
L 628 4666 
z
" transform="scale(0.015625)"/>
       <path id="DejaVuSans-43" d="M 4122 4306 
L 4122 3641 
Q 3803 3938 3442 4084 
Q 3081 4231 2675 4231 
Q 1875 4231 1450 3742 
Q 1025 3253 1025 2328 
Q 1025 1406 1450 917 
Q 1875 428 2675 428 
Q 3081 428 3442 575 
Q 3803 722 4122 1019 
L 4122 359 
Q 3791 134 3420 21 
Q 3050 -91 2638 -91 
Q 1578 -91 968 557 
Q 359 1206 359 2328 
Q 359 3453 968 4101 
Q 1578 4750 2638 4750 
Q 3056 4750 3426 4639 
Q 3797 4528 4122 4306 
z
" transform="scale(0.015625)"/>
       <path id="DejaVuSans-20" transform="scale(0.015625)"/>
       <path id="DejaVuSans-69" d="M 603 3500 
L 1178 3500 
L 1178 0 
L 603 0 
L 603 3500 
z
M 603 4863 
L 1178 4863 
L 1178 4134 
L 603 4134 
L 603 4863 
z
" transform="scale(0.015625)"/>
       <path id="DejaVuSans-6d" d="M 3328 2828 
Q 3544 3216 3844 3400 
Q 4144 3584 4550 3584 
Q 5097 3584 5394 3201 
Q 5691 2819 5691 2113 
L 5691 0 
L 5113 0 
L 5113 2094 
Q 5113 2597 4934 2840 
Q 4756 3084 4391 3084 
Q 3944 3084 3684 2787 
Q 3425 2491 3425 1978 
L 3425 0 
L 2847 0 
L 2847 2094 
Q 2847 2600 2669 2842 
Q 2491 3084 2119 3084 
Q 1678 3084 1418 2786 
Q 1159 2488 1159 1978 
L 1159 0 
L 581 0 
L 581 3500 
L 1159 3500 
L 1159 2956 
Q 1356 3278 1631 3431 
Q 1906 3584 2284 3584 
Q 2666 3584 2933 3390 
Q 3200 3197 3328 2828 
z
" transform="scale(0.015625)"/>
       <path id="DejaVuSans-66" d="M 2375 4863 
L 2375 4384 
L 1825 4384 
Q 1516 4384 1395 4259 
Q 1275 4134 1275 3809 
L 1275 3500 
L 2222 3500 
L 2222 3053 
L 1275 3053 
L 1275 0 
L 697 0 
L 697 3053 
L 147 3053 
L 147 3500 
L 697 3500 
L 697 3744 
Q 697 4328 969 4595 
Q 1241 4863 1831 4863 
L 2375 4863 
z
" transform="scale(0.015625)"/>
       <path id="DejaVuSans-61" d="M 2194 1759 
Q 1497 1759 1228 1600 
Q 959 1441 959 1056 
Q 959 750 1161 570 
Q 1363 391 1709 391 
Q 2188 391 2477 730 
Q 2766 1069 2766 1631 
L 2766 1759 
L 2194 1759 
z
M 3341 1997 
L 3341 0 
L 2766 0 
L 2766 531 
Q 2569 213 2275 61 
Q 1981 -91 1556 -91 
Q 1019 -91 701 211 
Q 384 513 384 1019 
Q 384 1609 779 1909 
Q 1175 2209 1959 2209 
L 2766 2209 
L 2766 2266 
Q 2766 2663 2505 2880 
Q 2244 3097 1772 3097 
Q 1472 3097 1187 3025 
Q 903 2953 641 2809 
L 641 3341 
Q 956 3463 1253 3523 
Q 1550 3584 1831 3584 
Q 2591 3584 2966 3190 
Q 3341 2797 3341 1997 
z
" transform="scale(0.015625)"/>
       <path id="DejaVuSans-6c" d="M 603 4863 
L 1178 4863 
L 1178 0 
L 603 0 
L 603 4863 
z
" transform="scale(0.015625)"/>
       <path id="DejaVuSans-79" d="M 2059 -325 
Q 1816 -950 1584 -1140 
Q 1353 -1331 966 -1331 
L 506 -1331 
L 506 -850 
L 844 -850 
Q 1081 -850 1212 -737 
Q 1344 -625 1503 -206 
L 1606 56 
L 191 3500 
L 800 3500 
L 1894 763 
L 2988 3500 
L 3597 3500 
L 2059 -325 
z
" transform="scale(0.015625)"/>
       <path id="DejaVuSans-67" d="M 2906 1791 
Q 2906 2416 2648 2759 
Q 2391 3103 1925 3103 
Q 1463 3103 1205 2759 
Q 947 2416 947 1791 
Q 947 1169 1205 825 
Q 1463 481 1925 481 
Q 2391 481 2648 825 
Q 2906 1169 2906 1791 
z
M 3481 434 
Q 3481 -459 3084 -895 
Q 2688 -1331 1869 -1331 
Q 1566 -1331 1297 -1286 
Q 1028 -1241 775 -1147 
L 775 -588 
Q 1028 -725 1275 -790 
Q 1522 -856 1778 -856 
Q 2344 -856 2625 -561 
Q 2906 -266 2906 331 
L 2906 616 
Q 2728 306 2450 153 
Q 2172 0 1784 0 
Q 1141 0 747 490 
Q 353 981 353 1791 
Q 353 2603 747 3093 
Q 1141 3584 1784 3584 
Q 2172 3584 2450 3431 
Q 2728 3278 2906 2969 
L 2906 3500 
L 3481 3500 
L 3481 434 
z
" transform="scale(0.015625)"/>
       <path id="DejaVuSans-6e" d="M 3513 2113 
L 3513 0 
L 2938 0 
L 2938 2094 
Q 2938 2591 2744 2837 
Q 2550 3084 2163 3084 
Q 1697 3084 1428 2787 
Q 1159 2491 1159 1978 
L 1159 0 
L 581 0 
L 581 3500 
L 1159 3500 
L 1159 2956 
Q 1366 3272 1645 3428 
Q 1925 3584 2291 3584 
Q 2894 3584 3203 3211 
Q 3513 2838 3513 2113 
z
" transform="scale(0.015625)"/>
      </defs>
      <use xlink:href="#DejaVuSans-72"/>
      <use xlink:href="#DejaVuSans-48" x="41.113281"/>
      <use xlink:href="#DejaVuSans-43" x="116.308594"/>
      <use xlink:href="#DejaVuSans-20" x="186.132812"/>
      <use xlink:href="#DejaVuSans-69" x="217.919922"/>
      <use xlink:href="#DejaVuSans-74" x="245.703125"/>
      <use xlink:href="#DejaVuSans-65" x="284.912109"/>
      <use xlink:href="#DejaVuSans-6d" x="346.435547"/>
      <use xlink:href="#DejaVuSans-20" x="443.847656"/>
      <use xlink:href="#DejaVuSans-66" x="475.634766"/>
      <use xlink:href="#DejaVuSans-61" x="510.839844"/>
      <use xlink:href="#DejaVuSans-6d" x="572.119141"/>
      <use xlink:href="#DejaVuSans-69" x="669.53125"/>
      <use xlink:href="#DejaVuSans-6c" x="697.314453"/>
      <use xlink:href="#DejaVuSans-69" x="725.097656"/>
      <use xlink:href="#DejaVuSans-61" x="752.880859"/>
      <use xlink:href="#DejaVuSans-72" x="814.160156"/>
      <use xlink:href="#DejaVuSans-69" x="855.273438"/>
      <use xlink:href="#DejaVuSans-74" x="883.056641"/>
      <use xlink:href="#DejaVuSans-79" x="922.265625"/>
      <use xlink:href="#DejaVuSans-20" x="981.445312"/>
      <use xlink:href="#DejaVuSans-73" x="1013.232422"/>
      <use xlink:href="#DejaVuSans-69" x="1065.332031"/>
      <use xlink:href="#DejaVuSans-67" x="1093.115234"/>
      <use xlink:href="#DejaVuSans-6e" x="1156.591797"/>
      <use xlink:href="#DejaVuSans-61" x="1219.970703"/>
      <use xlink:href="#DejaVuSans-6c" x="1281.25"/>
     </g>
    </g>
   </g>
   <g id="line2d_9">
    <path d="M 92.677063 148.341494 
L 125.746062 148.341494 
L 125.746062 133.231357 
L 117.478812 127.973944 
L 125.746062 122.716532 
L 125.746062 106.785586 
L 92.677063 106.785586 
L 92.677063 122.716532 
L 100.944313 127.973944 
L 92.677063 133.231357 
L 92.677063 148.341494 
" clip-path="url(#paeb2493f46)" style="fill: none; stroke: #000000; stroke-linecap: square"/>
   </g>
   <g id="line2d_10">
    <path d="M 109.211562 148.341494 
L 109.211562 193.313357 
" clip-path="url(#paeb2493f46)" style="fill: none; stroke: #000000; stroke-linecap: square"/>
   </g>
   <g id="line2d_11">
    <path d="M 109.211562 106.785586 
L 109.211562 48.898125 
" clip-path="url(#paeb2493f46)" style="fill: none; stroke: #000000; stroke-linecap: square"/>
   </g>
   <g id="line2d_12">
    <path d="M 100.944313 193.313357 
L 117.478812 193.313357 
" clip-path="url(#paeb2493f46)" style="fill: none; stroke: #000000; stroke-linecap: square"/>
   </g>
   <g id="line2d_13">
    <path d="M 100.944313 48.898125 
L 117.478812 48.898125 
" clip-path="url(#paeb2493f46)" style="fill: none; stroke: #000000; stroke-linecap: square"/>
   </g>
   <g id="line2d_14">
    <defs>
     <path id="mdc43113dd9" d="M 0 3 
C 0.795609 3 1.55874 2.683901 2.12132 2.12132 
C 2.683901 1.55874 3 0.795609 3 0 
C 3 -0.795609 2.683901 -1.55874 2.12132 -2.12132 
C 1.55874 -2.683901 0.795609 -3 0 -3 
C -0.795609 -3 -1.55874 -2.683901 -2.12132 -2.12132 
C -2.683901 -1.55874 -3 -0.795609 -3 0 
C -3 0.795609 -2.683901 1.55874 -2.12132 2.12132 
C -1.55874 2.683901 -0.795609 3 0 3 
z
" style="stroke: #000000"/>
    </defs>
    <g clip-path="url(#paeb2493f46)">
     <use xlink:href="#mdc43113dd9" x="109.211562" y="219.504088" style="fill-opacity: 0; stroke: #000000"/>
     <use xlink:href="#mdc43113dd9" x="109.211562" y="226.098125" style="fill-opacity: 0; stroke: #000000"/>
    </g>
   </g>
   <g id="line2d_15">
    <path d="M 54.096563 138.89631 
L 164.326562 138.89631 
" clip-path="url(#paeb2493f46)" style="fill: none; stroke-dasharray: 3.7,1.6; stroke-dashoffset: 0; stroke: #000000"/>
   </g>
   <g id="line2d_16">
    <path d="M 100.944313 127.973944 
L 117.478812 127.973944 
" clip-path="url(#paeb2493f46)" style="fill: none; stroke: #ff7f0e; stroke-linecap: square"/>
   </g>
   <g id="patch_3">
    <path d="M 54.096563 252.678125 
L 54.096563 22.318125 
" style="fill: none; stroke: #000000; stroke-width: 0.8; stroke-linejoin: miter; stroke-linecap: square"/>
   </g>
   <g id="patch_4">
    <path d="M 164.326562 252.678125 
L 164.326562 22.318125 
" style="fill: none; stroke: #000000; stroke-width: 0.8; stroke-linejoin: miter; stroke-linecap: square"/>
   </g>
   <g id="patch_5">
    <path d="M 54.096563 252.678125 
L 164.326562 252.678125 
" style="fill: none; stroke: #000000; stroke-width: 0.8; stroke-linejoin: miter; stroke-linecap: square"/>
   </g>
   <g id="patch_6">
    <path d="M 54.096563 22.318125 
L 164.326562 22.318125 
" style="fill: none; stroke: #000000; stroke-width: 0.8; stroke-linejoin: miter; stroke-linecap: square"/>
   </g>
   <g id="text_10">
    <!-- All subjects -->
    <g transform="translate(74.99375 16.318125) scale(0.12 -0.12)">
     <defs>
      <path id="DejaVuSans-41" d="M 2188 4044 
L 1331 1722 
L 3047 1722 
L 2188 4044 
z
M 1831 4666 
L 2547 4666 
L 4325 0 
L 3669 0 
L 3244 1197 
L 1141 1197 
L 716 0 
L 50 0 
L 1831 4666 
z
" transform="scale(0.015625)"/>
      <path id="DejaVuSans-75" d="M 544 1381 
L 544 3500 
L 1119 3500 
L 1119 1403 
Q 1119 906 1312 657 
Q 1506 409 1894 409 
Q 2359 409 2629 706 
Q 2900 1003 2900 1516 
L 2900 3500 
L 3475 3500 
L 3475 0 
L 2900 0 
L 2900 538 
Q 2691 219 2414 64 
Q 2138 -91 1772 -91 
Q 1169 -91 856 284 
Q 544 659 544 1381 
z
M 1991 3584 
L 1991 3584 
z
" transform="scale(0.015625)"/>
      <path id="DejaVuSans-62" d="M 3116 1747 
Q 3116 2381 2855 2742 
Q 2594 3103 2138 3103 
Q 1681 3103 1420 2742 
Q 1159 2381 1159 1747 
Q 1159 1113 1420 752 
Q 1681 391 2138 391 
Q 2594 391 2855 752 
Q 3116 1113 3116 1747 
z
M 1159 2969 
Q 1341 3281 1617 3432 
Q 1894 3584 2278 3584 
Q 2916 3584 3314 3078 
Q 3713 2572 3713 1747 
Q 3713 922 3314 415 
Q 2916 -91 2278 -91 
Q 1894 -91 1617 61 
Q 1341 213 1159 525 
L 1159 0 
L 581 0 
L 581 4863 
L 1159 4863 
L 1159 2969 
z
" transform="scale(0.015625)"/>
      <path id="DejaVuSans-6a" d="M 603 3500 
L 1178 3500 
L 1178 -63 
Q 1178 -731 923 -1031 
Q 669 -1331 103 -1331 
L -116 -1331 
L -116 -844 
L 38 -844 
Q 366 -844 484 -692 
Q 603 -541 603 -63 
L 603 3500 
z
M 603 4863 
L 1178 4863 
L 1178 4134 
L 603 4134 
L 603 4863 
z
" transform="scale(0.015625)"/>
      <path id="DejaVuSans-63" d="M 3122 3366 
L 3122 2828 
Q 2878 2963 2633 3030 
Q 2388 3097 2138 3097 
Q 1578 3097 1268 2742 
Q 959 2388 959 1747 
Q 959 1106 1268 751 
Q 1578 397 2138 397 
Q 2388 397 2633 464 
Q 2878 531 3122 666 
L 3122 134 
Q 2881 22 2623 -34 
Q 2366 -91 2075 -91 
Q 1284 -91 818 406 
Q 353 903 353 1747 
Q 353 2603 823 3093 
Q 1294 3584 2113 3584 
Q 2378 3584 2631 3529 
Q 2884 3475 3122 3366 
z
" transform="scale(0.015625)"/>
     </defs>
     <use xlink:href="#DejaVuSans-41"/>
     <use xlink:href="#DejaVuSans-6c" x="68.408203"/>
     <use xlink:href="#DejaVuSans-6c" x="96.191406"/>
     <use xlink:href="#DejaVuSans-20" x="123.974609"/>
     <use xlink:href="#DejaVuSans-73" x="155.761719"/>
     <use xlink:href="#DejaVuSans-75" x="207.861328"/>
     <use xlink:href="#DejaVuSans-62" x="271.240234"/>
     <use xlink:href="#DejaVuSans-6a" x="334.716797"/>
     <use xlink:href="#DejaVuSans-65" x="362.5"/>
     <use xlink:href="#DejaVuSans-63" x="424.023438"/>
     <use xlink:href="#DejaVuSans-74" x="479.003906"/>
     <use xlink:href="#DejaVuSans-73" x="518.212891"/>
    </g>
   </g>
  </g>
 </g>
 <defs>
  <clipPath id="paeb2493f46">
   <rect x="54.096563" y="22.318125" width="110.23" height="230.36"/>
  </clipPath>
 </defs>
</svg>
